<?xml version="1.0" encoding="UTF-8" standalone="no"?>
<!-- Created with Inkscape (http://www.inkscape.org/) -->

<svg
   xmlns:dc="http://purl.org/dc/elements/1.1/"
   xmlns:cc="http://creativecommons.org/ns#"
   xmlns:rdf="http://www.w3.org/1999/02/22-rdf-syntax-ns#"
   xmlns:svg="http://www.w3.org/2000/svg"
   xmlns="http://www.w3.org/2000/svg"
   version="1.0"
   width="55"
   height="55"
   id="svg2">
  <metadata
     id="metadata9">
    <rdf:RDF>
      <cc:Work
         rdf:about="">
        <dc:format>image/svg+xml</dc:format>
        <dc:type
           rdf:resource="http://purl.org/dc/dcmitype/StillImage" />
        <dc:title></dc:title>
      </cc:Work>
    </rdf:RDF>
  </metadata>
  <defs
     id="defs6" />
  <path
     d="m 1.5,25.5 0,-8 a 8,8 0 0 1 8,-8 l 8,0 0,4 20,0 0,-4 8,0 a 8,8 0 0 1 8,8 l 0,8 0,8 a 8,8 0 0 1 -8,8 l -8,0 -2,0 0,4 -16,0 0,-4 -2,0 -8,0 a 8,8 0 0 1 -8,-8 l 0,-8 z"
     id="path2882"
     style="fill:#404040;fill-opacity:1;stroke:#ffffff;stroke-width:2.5;stroke-linecap:square;stroke-miterlimit:4;stroke-opacity:1;stroke-dasharray:none" />
  <rect
     width="10"
     height="2"
     x="22.5"
     y="26.5"
     id="rect2844"
     style="fill:#404040;fill-opacity:1;fill-rule:nonzero;stroke:#404040;stroke-width:1.5;stroke-linecap:round;stroke-miterlimit:4;stroke-opacity:1;stroke-dasharray:none" />
  <path
     d="M 4.4354839,50.564516 50.564516,4.435484"
     id="path2988"
     style="fill:#ffffff;stroke:#ffffff;stroke-width:5.87096786;stroke-linecap:round;stroke-linejoin:miter;stroke-miterlimit:4;stroke-opacity:1;stroke-dasharray:none" />
</svg>
