<?xml version="1.0" encoding="UTF-8" standalone="no"?>
<!-- Created with Inkscape (http://www.inkscape.org/) -->

<svg
   xmlns:dc="http://purl.org/dc/elements/1.1/"
   xmlns:cc="http://creativecommons.org/ns#"
   xmlns:rdf="http://www.w3.org/1999/02/22-rdf-syntax-ns#"
   xmlns:svg="http://www.w3.org/2000/svg"
   xmlns="http://www.w3.org/2000/svg"
   version="1.1"
   width="45"
   height="45"
   id="svg2">
  <metadata
     id="metadata16">
    <rdf:RDF>
      <cc:Work
         rdf:about="">
        <dc:format>image/svg+xml</dc:format>
        <dc:type
           rdf:resource="http://purl.org/dc/dcmitype/StillImage" />
        <dc:title></dc:title>
      </cc:Work>
    </rdf:RDF>
  </metadata>
  <defs
     id="defs14" />
  <g
     id="g3841">
    <path
       d="m 37.15747,28.544755 a 14.777543,12.20339 0 1 1 0.0085,-0.13313"
       transform="matrix(0.8284927,0.62797117,-0.6397875,0.81319114,19.84214,-9.8222574)"
       id="path3837"
       style="fill:#000000;fill-opacity:1;fill-rule:evenodd;stroke:none" />
    <path
       d="m 1.7161017,27.838983 c 0,0 7.7726082,7.403143 12.5847453,9.533898 3.7843,1.675641 8.338357,3.768075 12.20339,2.288136 4.487623,-1.718332 7.8979,-6.715343 8.771187,-11.440678 0.771139,-4.172611 -1.805438,-8.541404 -3.622882,-12.20339 -1.176276,-2.37009 0.950565,-5.921962 3.241526,-7.2457626 2.157523,-1.2466946 5.615946,-0.9387447 7.43644,0.7627119 1.648959,1.5411377 1.717684,4.4908097 1.144068,6.6737287 -0.562593,2.14097 -4.194915,5.148305 -4.194915,5.148305 0,0 2.267876,6.98827 1.716102,10.487288 -0.38966,2.470991 -3.432204,6.673729 -3.432204,6.673729 l 4.004238,5.338983 -31.080509,0 c 0,0 -3.9944694,-3.621538 -5.3389829,-5.911017 C 3.3467496,34.877171 1.7161017,27.838983 1.7161017,27.838983 z"
       id="path3839"
       style="fill:#00000f;fill-opacity:0.94117647;stroke:none" />
    <g
       id="g3826">
      <path
         d="m 15.65625,12.75 c -1.614497,0.07503 -3.199031,0.47309 -4.625,1.21875 -3.2171584,1.682298 -5.0663964,4.857702 -5.5,8.34375 -0.4336036,3.486048 0.5017617,7.345584 2.75,10.75 5.026637,7.611637 14.74017,10.702605 21.5625,7 3.76836,-2.045157 5.923688,-5.78161 6.40625,-9.9375 0.482562,-4.15589 -1.280751,-8.360615 -4.009694,-12.415816 -0.368091,-0.54829 -0.567236,-1.108852 -1.11545,-0.740649 -0.548214,0.368204 0.557466,1.757434 0.925782,2.305572 2.416991,3.591643 2.105181,7.07468 1.699362,10.569643 -0.405819,3.494963 -2.086755,6.399299 -5.09375,8.03125 -5.383434,2.921689 -13.939493,0.403123 -18.3125,-6.21875 C 8.402634,28.716897 7.6488656,25.448019 8,22.625 c 0.3511344,-2.823019 1.7414099,-5.158404 4.1875,-6.4375 4.264326,-2.229878 11.089732,-0.219767 14.5,5.09375 1.467229,2.286079 2.013625,4.849058 1.71875,7 -0.294875,2.150942 -1.366599,3.853459 -3.25,4.78125 -3.143215,1.548391 -8.241768,0.03065 -10.6875,-3.96875 C 13.471552,27.463073 13.139761,25.666045 13.375,24.1875 13.610239,22.708955 14.339282,21.580085 15.65625,21 c 2.017606,-0.888695 5.429216,0.174617 6.90625,2.84375 0.536203,0.968968 0.666077,2.038539 0.5,2.84375 -0.166077,0.805211 -0.509247,1.287144 -1.25,1.53125 -0.790344,0.260449 -2.222528,-0.260859 -2.875,-1.28125 0.396165,0.211311 0.907532,0.186366 1.28125,-0.0625 0.442832,-0.28221 0.823935,-1.006154 0.75,-1.5625 -0.07393,-0.556346 -0.333991,-0.858555 -0.5625,-1.09375 C 19.949233,23.74836 19.600727,23.464135 18.75,23.40625 17.618767,23.329275 16.603975,24.132796 16.28125,25 c -0.322725,0.867204 -0.26448,1.768381 0.0625,2.59375 1.039978,2.62516 3.923993,3.766509 6.25,3 1.607223,-0.529639 2.629832,-1.914547 2.9375,-3.40625 0.307668,-1.491703 0.02295,-3.109236 -0.78125,-4.5625 -2.096066,-3.787779 -6.665914,-5.429873 -10.125,-3.90625 -2.12896,0.937743 -3.407771,2.911492 -3.75,5.0625 -0.342229,2.151008 0.182802,4.522142 1.46875,6.625 3.084666,5.04422 9.353983,7.164155 13.9375,4.90625 2.669439,-1.315005 4.207521,-3.870183 4.59375,-6.6875 0.386229,-2.817317 -0.326466,-5.933908 -2.09375,-8.6875 -3.043856,-4.742614 -8.28151,-7.412576 -13.125,-7.1875 z"
         id="path3004"
         style="font-size:medium;font-style:normal;font-variant:normal;font-weight:normal;font-stretch:normal;text-indent:0;text-align:start;text-decoration:none;line-height:normal;letter-spacing:normal;word-spacing:normal;text-transform:none;direction:ltr;block-progression:tb;writing-mode:lr-tb;text-anchor:start;baseline-shift:baseline;color:#ffffff;fill:#ffffff;fill-opacity:1;stroke:none;stroke-width:2.5;marker:none;visibility:visible;display:inline;overflow:visible;enable-background:accumulate;font-family:Sans;-inkscape-font-specification:Sans" />
      <path
         d="M 38.21875,7.21875 C 35.95345,6.9735924 33.812209,8.3593201 32.375,9.8125 c -2.490546,2.518218 -2.466228,5.943708 -0.78125,8.875 1.46236,2.544015 2.717706,3.361592 3.09375,8.75 0.07947,1.138714 -0.625524,3.710285 -1.71875,6.03125 -1.093226,2.320965 -2.62638,4.445002 -3.59375,4.9375 -2.392028,1.217807 -4.110116,1.526403 -5.8125,1.4375 -1.693346,-0.08843 -3.429295,-0.590662 -5.65625,-1.0625 -0.01025,-0.0027 -0.02104,0.0028 -0.03125,0 -2.598815,-0.700915 -4.12005,-1.970485 -6.3125,-4 C 9.3614341,32.743759 6.5429901,29.963381 1.53125,26.40625 L 0.34375,25.5625 0.5625,27 c 0.5308433,3.495626 1.8826818,7.814991 3.78125,11.3125 0.9492841,1.748754 2.0320067,3.301849 3.25,4.4375 1.2179933,1.135651 2.600235,1.875 4.09375,1.875 l 29.15625,0 c 0.21783,0 0.444419,-0.04184 0.65625,-0.15625 0.211831,-0.114408 0.366429,-0.338618 0.4375,-0.5625 0.142142,-0.447765 0.0028,-0.771185 -0.15625,-1.125 -0.318149,-0.70763 -0.896028,-1.512529 -1.5625,-2.3125 -1.149288,-1.379498 -1.416233,-1.973274 -1.769132,-2.322066 0.259336,-0.27744 0.282091,-0.800053 1.009566,-1.766837 0.918296,-1.220377 1.995652,-2.987282 2.204337,-4.45676 C 41.911315,30.178213 40.976173,27.487413 40.5,25.21875 40.070598,23.17292 39.682733,21.819893 39.59375,21.5 c 0.164132,-0.120276 0.477662,-0.349438 1.03125,-0.78125 0.668584,-0.521513 1.492677,-1.273094 2.21875,-2.375 1.190171,-1.781973 2.388249,-4.213352 1.5625,-6.46875 -0.893257,-2.4397905 -3.537977,-4.3695112 -6.1875,-4.65625 z m -0.125,1.25 c 2.115163,0.2289088 4.444423,1.98486 5.125,3.84375 0.577723,1.577958 -0.307101,3.698059 -1.40625,5.34375 -0.634267,0.96258 -1.337532,1.62576 -1.9375,2.09375 -0.599968,0.46799 -1.062486,0.659566 -1.4375,1.09375 l -0.21875,0.25 0.09375,0.3125 c 0,0 0.502452,1.840884 0.96875,4.0625 0.466298,2.221616 0.400235,4.968932 0.211479,6.298087 -0.14113,0.993782 -0.562604,2.392627 -1.430229,3.545663 -0.867625,1.153036 -1.6875,2 -1.6875,2 l -0.4375,0.4375 0.4375,0.4375 c 0,0 1.602434,1.566281 2.875,3.09375 0.636283,0.763735 1.19712,1.534851 1.40625,2 0.03867,0.08602 0.01982,0.04145 0.03125,0.09375 L 12.242857,42.898979 c -1.078085,-0.01804 -2.098043,-0.451808 -3.1706629,-1.451913 -1.0726195,-1.000105 -2.0946038,-2.219085 -3,-3.88699 -1.5215823,-2.803032 -2.6592949,-5.122684 -3.2980867,-8.124872 3.9138849,2.92622 6.5361144,5.338313 8.4999996,7.15625 C 13.502351,38.654103 14.72746,39.234182 17.59375,40 l 0.03125,0 c 2.189001,0.462262 3.941493,0.994409 5.84375,1.09375 1.902257,0.09934 3.930186,-0.27009 6.46875,-1.5625 1.623389,-0.826485 3.009529,-3.096713 4.15625,-5.53125 1.146721,-2.434537 1.709328,-4.96352 1.84375,-6.65625 0.324053,-4.080679 -1.918846,-6.911125 -3.28125,-9.28125 -1.49034,-2.592688 -1.510078,-5.247798 0.59375,-7.375 1.261429,-1.2754467 3.191004,-2.3976152 4.84375,-2.21875 z"
         id="path3068"
         style="font-size:medium;font-style:normal;font-variant:normal;font-weight:normal;font-stretch:normal;text-indent:0;text-align:start;text-decoration:none;line-height:normal;letter-spacing:normal;word-spacing:normal;text-transform:none;direction:ltr;block-progression:tb;writing-mode:lr-tb;text-anchor:start;baseline-shift:baseline;color:#ffffff;fill:#ffffff;fill-opacity:1;stroke:none;stroke-width:1.25;marker:none;visibility:visible;display:inline;overflow:visible;enable-background:accumulate;font-family:Sans;-inkscape-font-specification:Sans" />
      <path
         d="m 28.875,4.5625 c -0.571937,0.1470518 -1.128172,0.3953973 -1.625,0.59375 -0.496828,0.1983527 -0.961646,0.3604407 -1.3125,0.40625 -0.350854,0.045809 -0.544204,0.015026 -0.75,-0.15625 0.160497,0.1335718 0.180585,0.2856276 0.1875,0.34375 0.0069,0.058122 3.31e-4,0.060268 0,0.0625 L 24.1875,5.40625 c 0,0 -0.01197,0.088788 -0.03125,0.21875 -0.0096,0.064981 -0.04515,0.1331954 -0.03125,0.25 0.0139,0.1168046 0.08352,0.3354397 0.28125,0.5 0.507753,0.4225842 1.123754,0.5111056 1.6875,0.4375 0.563746,-0.073606 1.110974,-0.2947808 1.625,-0.5 1.028053,-0.4104383 1.943493,-0.2839663 2.5,-0.086479 0.539494,0.1914493 0.850436,1.5104384 1.475893,2.3197706 0.625457,0.8093322 0.507142,1.8005094 0.507142,1.8005094 L 34.40625,8.53125 c 0,0 -0.475639,-0.8067996 -1.15625,-1.6875 C 32.569389,5.9630496 31.727037,4.9737385 30.65625,4.59375 30.04553,4.3770247 29.446937,4.4154482 28.875,4.5625 z"
         id="path3838"
         style="font-size:medium;font-style:normal;font-variant:normal;font-weight:normal;font-stretch:normal;text-indent:0;text-align:start;text-decoration:none;line-height:normal;letter-spacing:normal;word-spacing:normal;text-transform:none;direction:ltr;block-progression:tb;writing-mode:lr-tb;text-anchor:start;baseline-shift:baseline;color:#ffffff;fill:#ffffff;fill-opacity:1;stroke:none;stroke-width:1.25;marker:none;visibility:visible;display:inline;overflow:visible;enable-background:accumulate;font-family:Sans;-inkscape-font-specification:Sans" />
      <path
         d="M 33.8125,1.71875 33.3125,3 c 0,0 0.597762,0.2401006 1.3125,0.625 0.714738,0.3848994 1.121522,1.4377337 1.384566,1.8197706 0.192864,0.2801096 0.302192,1.2975088 0.435077,2.0336735 C 36.577528,8.2146088 37.1875,8.1875 37.1875,8.1875 l 1.375,-0.09375 c 0,0 -0.07326,-0.6940034 -0.21875,-1.5 C 38.198259,5.7877534 38.007809,4.8796388 37.53125,4.1875 36.984512,3.393433 36.072705,2.8324629 35.28125,2.40625 34.489795,1.9800371 33.8125,1.71875 33.8125,1.71875 z"
         id="path3840"
         style="font-size:medium;font-style:normal;font-variant:normal;font-weight:normal;font-stretch:normal;text-indent:0;text-align:start;text-decoration:none;line-height:normal;letter-spacing:normal;word-spacing:normal;text-transform:none;direction:ltr;block-progression:tb;writing-mode:lr-tb;text-anchor:start;baseline-shift:baseline;color:#ffffff;fill:#ffffff;fill-opacity:1;stroke:none;stroke-width:1.372666;marker:none;visibility:visible;display:inline;overflow:visible;enable-background:accumulate;font-family:Sans;-inkscape-font-specification:Sans" />
      <path
         d="m 34.4484,1.7218009 a 1.3371958,0.77545426 0 1 1 -2.67439,0 1.3371958,0.77545426 0 1 1 2.67439,0 z"
         id="path3842"
         style="fill:#ffffff;fill-opacity:1;stroke:#ffffff;stroke-width:1.25;stroke-linecap:round;stroke-linejoin:round;stroke-miterlimit:4;stroke-opacity:1;stroke-dasharray:none" />
      <path
         d="m 26.425225,6.3040308 a 1.3371958,0.77545426 0 1 1 -2.67439,0 1.3371958,0.77545426 0 1 1 2.67439,0 z"
         id="path3842-1"
         style="fill:none;stroke:#ffffff;stroke-width:1.25;stroke-linecap:round;stroke-linejoin:round;stroke-miterlimit:4;stroke-opacity:1;stroke-dasharray:none" />
      <path
         d="m 36.202923,12.574111 a 0.84306913,0.84190056 0 1 1 -1.686138,0 0.84306913,0.84190056 0 1 1 1.686138,0 z"
         id="path3842-1-3"
         style="fill:#ffffff;fill-opacity:1;stroke:#ffffff;stroke-width:1.25;stroke-linecap:round;stroke-linejoin:round;stroke-miterlimit:4;stroke-opacity:1;stroke-dasharray:none" />
      <path
         d="m 40.005942,11.412268 a 0.84306913,0.84190056 0 1 1 -1.686138,0 0.84306913,0.84190056 0 1 1 1.686138,0 z"
         id="path3842-1-3-6"
         style="fill:#ffffff;fill-opacity:1;stroke:#ffffff;stroke-width:1.25;stroke-linecap:round;stroke-linejoin:round;stroke-miterlimit:4;stroke-opacity:1;stroke-dasharray:none" />
      <path
         d="m 34.63698,15.707092 c 0,0 2.686558,1.731732 4.287284,1.016096 1.600727,-0.715636 2.564416,-2.865256 2.564416,-2.865256"
         id="path3811"
         style="fill:none;stroke:#ffffff;stroke-width:1.25;stroke-linecap:round;stroke-linejoin:miter;stroke-miterlimit:4;stroke-opacity:1;stroke-dasharray:none" />
    </g>
  </g>
</svg>
