<?xml version="1.0" encoding="UTF-8" standalone="no"?>
<!-- Created with Inkscape (http://www.inkscape.org/) -->

<svg
   xmlns:dc="http://purl.org/dc/elements/1.1/"
   xmlns:cc="http://creativecommons.org/ns#"
   xmlns:rdf="http://www.w3.org/1999/02/22-rdf-syntax-ns#"
   xmlns:svg="http://www.w3.org/2000/svg"
   xmlns="http://www.w3.org/2000/svg"
   version="1.0"
   width="55"
   height="55"
   id="svg2"><metadata
   id="metadata38">
  <rdf:RDF>
    <cc:Work
       rdf:about="">
      <dc:format>image/svg+xml</dc:format>
      <dc:type
         rdf:resource="http://purl.org/dc/dcmitype/StillImage" />
      <dc:title></dc:title>
    </cc:Work>
  </rdf:RDF>
</metadata>
<defs
   id="defs4" />

 `  <g
   transform="matrix(1.0397092,0,0,1.0397092,0.30466332,0.1382154)"
   id="g2941">
  <g
     transform="matrix(1.5,0,0,1.5,-13.078338,-13.158384)"
     id="g2418">
    <path
       d="m 27.377856,20.343519 c 0.943144,-1.32305 2.909066,-2.23143 3.443893,-2.052418 0.816335,0.273235 2.634387,1.285134 2.828305,1.870614 0.363444,1.097313 -0.440961,2.212871 -0.661443,3.319307"
       id="path3252"
       style="fill:#000000;fill-opacity:1;fill-rule:evenodd;stroke:#ffffff;stroke-width:1.51091182px;stroke-linecap:butt;stroke-linejoin:miter;stroke-opacity:1" />
    <path
       d="m 31.312226,33.70644 c -3.075459,5.326852 -8.151812,8.153707 -11.338352,6.313958 -3.18654,-1.83975 -3.276587,-7.649428 -0.201128,-12.97628 3.07546,-5.326852 8.151812,-8.153707 11.338352,-6.313958 3.18654,1.83975 3.276588,7.649428 0.201128,12.97628 l 0,0 z"
       id="path3197"
       style="fill:#000000;fill-opacity:1;stroke:#ffffff;stroke-width:1.51091182;stroke-linecap:square;stroke-linejoin:miter;stroke-miterlimit:4;stroke-opacity:1;stroke-dasharray:none" />
    <path
       d="m 30.640788,20.96543 c -3.356038,6.044559 -3.301174,5.949533 -3.301174,5.949533"
       id="path3199"
       style="fill:#000000;fill-opacity:1;fill-rule:evenodd;stroke:#ffffff;stroke-width:1.51091182px;stroke-linecap:butt;stroke-linejoin:miter;stroke-opacity:1" />
    <path
       d="m 23.640267,22.485322 c 0.955579,1.892858 2.334494,3.24269 3.831245,4.497123 0.02734,0.02291 3.988592,1.409612 5.914011,1.031489"
       id="path3201"
       style="fill:none;stroke:#ffffff;stroke-width:1.51091182px;stroke-linecap:butt;stroke-linejoin:round;stroke-opacity:1" />
    <path
       d="m 22.8141,25.484531 c 2.380046,2.460708 2.406938,2.476234 2.406938,2.476234"
       id="path3203"
       style="fill:#000000;fill-opacity:1;fill-rule:evenodd;stroke:#ffffff;stroke-width:0.75545591;stroke-linecap:round;stroke-linejoin:miter;stroke-miterlimit:4;stroke-opacity:1;stroke-dasharray:none" />
    <path
       d="m 21.785315,26.831706 c 2.380046,2.460709 2.551072,2.661318 2.551072,2.661318"
       id="path3207"
       style="fill:#000000;fill-opacity:1;fill-rule:evenodd;stroke:#ffffff;stroke-width:0.75545591;stroke-linecap:round;stroke-linejoin:miter;stroke-miterlimit:4;stroke-opacity:1;stroke-dasharray:none" />
    <path
       d="m 20.834693,28.29192 c 2.380046,2.460708 2.617044,2.733363 2.617044,2.733363"
       id="path3209"
       style="fill:#000000;fill-opacity:1;fill-rule:evenodd;stroke:#ffffff;stroke-width:0.75545591;stroke-linecap:round;stroke-linejoin:miter;stroke-miterlimit:4;stroke-opacity:1;stroke-dasharray:none" />
    <path
       d="m 20.016015,29.896225 c 2.380045,2.460709 2.551071,2.661318 2.551071,2.661318"
       id="path3211"
       style="fill:#000000;fill-opacity:1;fill-rule:evenodd;stroke:#ffffff;stroke-width:0.75545591;stroke-linecap:round;stroke-linejoin:miter;stroke-miterlimit:4;stroke-opacity:1;stroke-dasharray:none" />
    <path
       d="m 19.370877,31.63468 c 2.380046,2.460709 2.311559,2.455123 2.311559,2.455123"
       id="path3213"
       style="fill:#000000;fill-opacity:1;fill-rule:evenodd;stroke:#ffffff;stroke-width:0.75545591;stroke-linecap:round;stroke-linejoin:miter;stroke-miterlimit:4;stroke-opacity:1;stroke-dasharray:none" />
    <path
       d="m 19.111902,33.697954 c 2.252745,2.556991 1.685883,1.92411 1.685883,1.92411"
       id="path3215"
       style="fill:#000000;fill-opacity:1;fill-rule:evenodd;stroke:#ffffff;stroke-width:0.75545591;stroke-linecap:round;stroke-linejoin:miter;stroke-miterlimit:4;stroke-opacity:1;stroke-dasharray:none" />
    <path
       d="m 19.133652,36.330772 c 0.569377,0.566421 0.779483,0.823549 0.779483,0.823549"
       id="path3217"
       style="fill:#000000;fill-opacity:1;fill-rule:evenodd;stroke:#ffffff;stroke-width:0.75545591;stroke-linecap:round;stroke-linejoin:miter;stroke-miterlimit:4;stroke-opacity:1;stroke-dasharray:none" />
    <path
       d="M 30.786085,30.087159 C 27.465026,29.256333 27.438134,29.240807 27.438134,29.240807"
       id="path3230"
       style="fill:#000000;fill-opacity:1;fill-rule:evenodd;stroke:#ffffff;stroke-width:0.75545591;stroke-linecap:round;stroke-linejoin:miter;stroke-miterlimit:4;stroke-opacity:1;stroke-dasharray:none" />
    <path
       d="M 30.133789,31.6517 C 26.81273,30.820874 26.553484,30.773066 26.553484,30.773066"
       id="path3232"
       style="fill:#000000;fill-opacity:1;fill-rule:evenodd;stroke:#ffffff;stroke-width:0.75545591;stroke-linecap:round;stroke-linejoin:miter;stroke-miterlimit:4;stroke-opacity:1;stroke-dasharray:none" />
    <path
       d="M 29.344518,33.20507 C 26.023459,32.374244 25.668834,32.305325 25.668834,32.305325"
       id="path3234"
       style="fill:#000000;fill-opacity:1;fill-rule:evenodd;stroke:#ffffff;stroke-width:0.75545591;stroke-linecap:round;stroke-linejoin:miter;stroke-miterlimit:4;stroke-opacity:1;stroke-dasharray:none" />
    <path
       d="M 28.364488,34.716219 C 25.043429,33.885393 24.784183,33.837585 24.784183,33.837585"
       id="path3236"
       style="fill:#000000;fill-opacity:1;fill-rule:evenodd;stroke:#ffffff;stroke-width:0.75545591;stroke-linecap:round;stroke-linejoin:miter;stroke-miterlimit:4;stroke-opacity:1;stroke-dasharray:none" />
    <path
       d="M 27.18151,36.144152 C 23.860451,35.313326 23.899532,35.369845 23.899532,35.369845"
       id="path3238"
       style="fill:#000000;fill-opacity:1;fill-rule:evenodd;stroke:#ffffff;stroke-width:0.75545591;stroke-linecap:round;stroke-linejoin:miter;stroke-miterlimit:4;stroke-opacity:1;stroke-dasharray:none" />
    <path
       d="m 25.524151,37.400068 c -3.340792,-0.672439 -2.50927,-0.497963 -2.50927,-0.497963"
       id="path3240"
       style="fill:#000000;fill-opacity:1;fill-rule:evenodd;stroke:#ffffff;stroke-width:0.75545591;stroke-linecap:round;stroke-linejoin:miter;stroke-miterlimit:4;stroke-opacity:1;stroke-dasharray:none" />
    <path
       d="M 23.233189,38.697641 C 22.457965,38.487756 22.130232,38.434363 22.130232,38.434363"
       id="path3242"
       style="fill:#000000;fill-opacity:1;fill-rule:evenodd;stroke:#ffffff;stroke-width:0.75545591;stroke-linecap:round;stroke-linejoin:miter;stroke-miterlimit:4;stroke-opacity:1;stroke-dasharray:none" />
    <path
       d="m 38.499043,20.363658 c -0.698249,1.209401 -2.299567,1.592097 -3.576644,0.854776 -1.277077,-0.73732 -1.746312,-2.315451 -1.048064,-3.524852 0.698249,-1.209402 2.299567,-1.592098 3.576644,-0.854777 1.277077,0.73732 1.746312,2.315451 1.048064,3.524853 z"
       id="path3244"
       style="fill:#000000;fill-opacity:1;stroke:#ffffff;stroke-width:0.84691685;stroke-linecap:round;stroke-linejoin:round;stroke-miterlimit:4;stroke-opacity:1;stroke-dasharray:none" />
    <path
       d="m 36.397626,17.843099 c -0.197275,0.341691 -0.649694,0.449815 -1.010506,0.2415 -0.360812,-0.208315 -0.493384,-0.654183 -0.296109,-0.995875 0.197276,-0.341691 0.649695,-0.449814 1.010507,-0.241499 0.360812,0.208315 0.493384,0.654183 0.296108,0.995874 z"
       id="path3246"
       style="fill:#000000;fill-opacity:1;stroke:#ffffff;stroke-width:0.79813904;stroke-linecap:round;stroke-linejoin:round;stroke-miterlimit:4;stroke-opacity:1;stroke-dasharray:none" />
    <path
       d="m 32.748117,16.754734 c -0.698248,1.209401 -2.299567,1.592097 -3.576644,0.854776 -1.277077,-0.73732 -1.746311,-2.315451 -1.048063,-3.524852 0.698249,-1.209402 2.299567,-1.592098 3.576644,-0.854777 1.277077,0.73732 1.746312,2.315451 1.048063,3.524853 z"
       id="path3248"
       style="fill:#000000;fill-opacity:1;stroke:#ffffff;stroke-width:0.84691685;stroke-linecap:round;stroke-linejoin:round;stroke-miterlimit:4;stroke-opacity:1;stroke-dasharray:none" />
    <path
       d="m 30.781161,14.311805 c -0.197275,0.341691 -0.649694,0.449815 -1.010506,0.2415 -0.360813,-0.208315 -0.493385,-0.654183 -0.296109,-0.995875 0.197275,-0.341691 0.649695,-0.449814 1.010507,-0.241499 0.360812,0.208315 0.493384,0.654183 0.296108,0.995874 z"
       id="path3250"
       style="fill:#000000;fill-opacity:1;stroke:#ffffff;stroke-width:0.79813904;stroke-linecap:round;stroke-linejoin:round;stroke-miterlimit:4;stroke-opacity:1;stroke-dasharray:none" />
    <path
       d="m 32.6771,18.762402 c 1.915624,-3.421466 5.072352,-4.541771 5.072352,-4.541771 l 0,0"
       id="path3254"
       style="fill:none;stroke:#ffffff;stroke-width:0.75545591;stroke-linecap:butt;stroke-linejoin:miter;stroke-miterlimit:4;stroke-opacity:1;stroke-dasharray:none" />
    <path
       d="m 32.234792,18.337256 c 2.005265,-3.369712 1.397113,-6.663671 1.397113,-6.663671 l 0,0"
       id="path3258"
       style="fill:none;stroke:#ffffff;stroke-width:0.75545591;stroke-linecap:butt;stroke-linejoin:miter;stroke-miterlimit:4;stroke-opacity:1;stroke-dasharray:none" />
    <path
       d="M 26.988213,20.231746 25.8722,15.229742 22.062204,17.274526"
       id="path3260"
       style="fill:none;stroke:#ffffff;stroke-width:1.51091182px;stroke-linecap:butt;stroke-linejoin:miter;stroke-opacity:1" />
    <path
       d="m 33.361036,23.684723 3.584614,-0.929858 2.882681,3.70167"
       id="path3262"
       style="fill:none;stroke:#ffffff;stroke-width:1.51091182px;stroke-linecap:butt;stroke-linejoin:miter;stroke-opacity:1" />
    <path
       d="m 23.851158,22.042526 -1.097622,-3.067217 -8.164934,2.756268"
       id="path3264"
       style="fill:none;stroke:#ffffff;stroke-width:1.51091182px;stroke-linecap:butt;stroke-linejoin:miter;stroke-opacity:1" />
    <path
       d="m 33.777334,27.207476 3.47402,-0.42778 0.497902,7.4182"
       id="path3266"
       style="fill:none;stroke:#ffffff;stroke-width:1.51091182px;stroke-linecap:butt;stroke-linejoin:miter;stroke-opacity:1" />
    <path
       d="M 20.388485,25.668558 19.349188,23.00868 12.485021,29.515384"
       id="path3268"
       style="fill:none;stroke:#ffffff;stroke-width:1.51091182px;stroke-linecap:butt;stroke-linejoin:miter;stroke-opacity:1" />
    <path
       d="m 32.410841,31.851473 2.920057,-0.91739 -2.027798,9.412169"
       id="path3270"
       style="fill:none;stroke:#ffffff;stroke-width:1.51091182px;stroke-linecap:butt;stroke-linejoin:miter;stroke-opacity:1" />
  </g>
</g>
</svg>
