<svg xmlns="http://www.w3.org/2000/svg" width='61.805' height='70'><defs><radialGradient cx="30.902" cy="38.695" r="30.902" id="0" gradientUnits="userSpaceOnUse" gradientTransform="matrix(1 0 0 1.01303 0-.504)"><stop stop-color="#f3c82f"/><stop offset="1" stop-color="#c5ca1e"/></radialGradient></defs><g stroke="#000" stroke-linecap="round"><g stroke-width="1.236"><path d="m.876 36.816c-1.203-7.628 1.876-16.633 7.644-21.768 4.901-4.363 13.345-3.779 19.82-5.334 3.611-.867 10.311-2.265 13.938-1.47 6.476 1.42 10.03 4.437 14.541 10.299 2.485 3.233 3.763 8.784 4.265 12.83 1.31 10.558-10.335 30.32-12.693 32.33-3.038 2.586-10.327 3.313-14.771 5.327-2.41 1.092-11.259-.613-13.741-1.528-4.702-1.732-16.868-17.15-19-30.685z" fill="url(#0)"/><path d="m18.941 16.05c0 0 5.574 2.167 8.494 2.216 4.21.07 12.06-2.954 12.06-2.954" fill="none"/></g><path d="m27.805 18.02c0 0 2.498-14.06 7.14-16.865 1.037-.627 2.6.671 3.201 1.723.509.892.707 2.473-.123 3.078-.619.452-1.72-1.2-2.216-.616-1.544 1.819-4.555 11.818-4.555 11.818" fill="#453100" stroke-width="1.978"/></g></svg>
