<svg xmlns="http://www.w3.org/2000/svg" width='93.73' height='70.02'><g transform="matrix(.27155 0 0 .27155-.404.092)"><g stroke="#000"><path d="m12.493 169.43c25.13-12.1 90.58-9.415 121.77-10.656 35.777-1.423 74.28-1.532 103.46-22.279 17.479-12.427 49.569-47.45 57.49-77.03 3.99-14.896-1.629-24.25-5.377-39.21-5.144-20.531 20.524-19.252 30.1-16.541 8.607 2.436-3.585 20.898-2.707 25.445 2.979 15.431 2.488 29.17 6.706 35.85 3.885 6.153 15.281 6.647 17.704 15.622 9.552 35.37-10.408 80.2-30.902 110.57-21.03 31.17-78.24 55.29-123.56 63.16-18.572 3.226-126.94-6.509-147.75-19.934-7.747-4.997-20.848-21.615-29.23-31.26-8.236-9.48-9.02-28.29 2.297-33.737z" fill="#ffe612" stroke-width="5"/><path d="m289.22 18.561c1.408 3.272 11.336.54 14.74-.508 5.888-1.813 16.989-3.622 15.757-9.658-.925-4.531-13.893-5.473-18.299-4.066-5.594 1.785-14.52 8.838-12.199 14.232z"/></g><path d="m301.42 189.35c-28.435 32.894-113.35 64.55-113.35 64.55 0 0 91.47-15.418 115.38-49.813 48.03-69.07 38.884-119.45 38.884-119.45 0 0-16.411 76.36-40.918 104.71" fill="#c3ae00"/><path d="m9.149 173.08c0 0 98.39 23.674 138.76 23.381 34.485-.25 49.24-2.322 79.8-18.299 34.877-18.232 67.955-50.1 78.79-87.93 4.875-17.03-6.608-42.697-6.608-42.697 0 0-28.26 77.895-80.82 99.88-45.16 18.891-95.44 13.721-146.13 14.613-42.837.754-63.791 11.06-63.791 11.06" fill="#ffed59"/><g stroke="#000"><path d="m14.232 183.25c-.55 4.442-2.357 13.09-6.608 11.691-7.863-2.595-5.209-24.05 3.05-24.652 4.469-.324 4.109 8.515 3.558 12.961z"/><path d="m12.493 169.43c25.13-12.1 90.58-9.415 121.77-10.656 35.777-1.423 74.28-1.532 103.46-22.279 17.479-12.427 49.569-47.45 57.49-77.03 3.99-14.896-1.629-24.25-5.377-39.21-5.144-20.531 20.524-19.252 30.1-16.541 8.607 2.436-3.585 20.898-2.707 25.445 2.979 15.431 2.488 29.17 6.706 35.85 3.885 6.153 15.281 6.647 17.704 15.622 9.552 35.37-10.408 80.2-30.902 110.57-21.03 31.17-78.24 55.29-123.56 63.16-18.572 3.226-126.94-6.509-147.75-19.934-7.747-4.997-20.848-21.615-29.23-31.26-8.236-9.48-9.02-28.29 2.297-33.737z" fill="none" stroke-width="5"/></g></g></svg>
