<svg xmlns="http://www.w3.org/2000/svg" width='103.25' height='68.26'><g transform="translate(-242.71-315.86)" stroke="#000"><path d="m244.24 321.12c-2.841 9.958.95 23.21 2 31 .736 5.462 16.795 8.468 25.5 12 10.452 4.241 21.306 7.414 32 11 8.645 2.899 16.883 8.388 26 8.5 5.22.064 14.94-2.077 15-4.5.073-2.942 1.861-15.06-.5-22-1.996-5.87-6.582-10.65-11-15-4.515-4.445-9.343-9.509-15.5-11-4.582-1.11-10.905 1.621-15.338 2-6.476.553-12.139-4.69-18-7.5-5.649-2.709-8.997-7.886-15.16-9-4.639-.838-9.408.603-14.12.662-2.853.035-5.77-.817-8.378.338-1.311.58-2.107 2.121-2.5 3.5z" fill="#fdd3c6"/><path d="m244.24 321.12c-2.841 9.958 6.842 12.64 12.826 17.741 3.465 2.953 16.917 11.02 24.77 16.379 9.318 6.356 15.224 8.995 25.918 12.581 8.645 2.899 18.951 3.401 28.07 3.513 5.22.064 7.623-4.454 8.188-6.811.559-2.334 2.591-.458.23-7.402-1.996-5.87-6.582-10.65-11-15-4.515-4.445-9.343-9.509-15.5-11-4.582-1.11-10.905 1.621-15.338 2-6.476.553-12.139-4.69-18-7.5-5.649-2.709-8.997-7.886-15.16-9-4.639-.838-9.408.603-14.12.662-2.853.035-5.77-.817-8.378.338-1.311.58-2.107 2.121-2.5 3.5z" fill="#feece7"/><g fill="#fc6030"><path d="m251.81 324.8c.888 2.278 2.897 3.993 4.744 5.596 7.02 6.089 15.923 9.604 23.599 14.841 2.707 1.847 4.704 5.148 7.907 5.839 2.27.49 6.326-1.338 6.812-1.46.487-.122 3.807-3.365 3.041-5.231-.942-2.293-6.691-1.825-7.177-1.946-.487-.122-7.542-3.041-8.394-3.771-.852-.73-12.272-8.359-12.773-8.394-1.749-.122-10.1-7.907-10.583-8.03-.487-.122-5.552-2.188-7.299-.487-.727.708-.247 2.096.122 3.041z"/><path d="m264.46 320.78c-1.081.758-1.164 1.908-.487 3.041 2.817 4.711 10.826 2.881 15.449 5.839 2.127 1.361 3.02 4.179 5.109 5.596 2.188 1.483 4.891 2.03 7.42 2.798 2.908.883 6.461.228 8.88 2.068 1.213.923.71 4.38 2.19 4.01 2.638-.652 1.957-6.147.122-8.15-2.636-2.878-8.06.616-11.678-.852-4.267-1.731-10.1-8.515-10.583-8.88-.487-.365-6.817-3.437-10.462-4.501-1.933-.564-4.313-2.129-5.961-.973z"/><path d="m308.25 335.5c-1.308 1.61-1.291 5.135.487 6.204 2.615 1.572 5.355-3.924 8.394-3.649 4.57.413 9.511 3.498 11.435 7.664.89 1.927.889 4.953-.73 6.326-1.889 1.602-5.549-1.987-7.42-.365-.985.854-.105 2.771.73 3.771 3.939 4.717 10.67 2.207 17.274 1.703 5.687-.434-8.637-14.476-9.123-14.476-.487 0-7.654-7.142-12.53-8.272-2.788-.646-6.711-1.126-8.515 1.095z"/><path d="m299.98 353.63c-2.239 1.081-3.566 4.381-3.041 6.812 1.018 4.717 4.613 2.256 11.435 5.717 5.113 2.594 17.76 2.92 18.247 2.92.487 0 8.05-.33 9.853-3.893.816-1.616-.973-3.893-1.46-3.771-.487.122-7.144.502-10.583-.365-3.566-.899-6.421-8.699-9.123-6.204-1.988 1.835 3.522 4.395 4.01 7.06.44 2.38 1.131 4.681-.852 4.866-3.782.353-10.638-1.552-12.286-5.961-.997-2.667 3.988-2.279 2.798-4.866-1.295-2.814-6.212-3.658-9-2.311z"/><path d="m315.55 344.51c-.892 1.422 1.393 3.696 3.041 4.01 1.625.314 4.54-.924 4.258-2.555-.423-2.445-5.981-3.562-7.299-1.46z"/><path d="m307.28 345.11c-1.591.716-3.285 4.615-1.581 4.987 3.329.727 5.965 2.193 8.03.365.913-.808.82-1.433.122-2.433-1.372-1.965-4.384-3.903-6.569-2.92z"/></g></g></svg>
