<?xml version="1.0" encoding="UTF-8" standalone="no"?>
<!-- Created with Inkscape (http://www.inkscape.org/) -->

<svg
   xmlns:dc="http://purl.org/dc/elements/1.1/"
   xmlns:cc="http://creativecommons.org/ns#"
   xmlns:rdf="http://www.w3.org/1999/02/22-rdf-syntax-ns#"
   xmlns:svg="http://www.w3.org/2000/svg"
   xmlns="http://www.w3.org/2000/svg"
   version="1.1"
   width="103.25298"
   height="68.262589"
   id="svg3900">
  <defs
     id="defs3902" />
  <metadata
     id="metadata3905">
    <rdf:RDF>
      <cc:Work
         rdf:about="">
        <dc:format>image/svg+xml</dc:format>
        <dc:type
           rdf:resource="http://purl.org/dc/dcmitype/StillImage" />
        <dc:title></dc:title>
      </cc:Work>
    </rdf:RDF>
  </metadata>
  <g
     transform="translate(-599.80209,-618.23089)"
     id="layer1">
    <g
       transform="translate(357.0946,302.37319)"
       id="g3869">
      <path
         d="m 244.24329,321.11889 c -2.84082,9.95751 0.94994,23.20778 2,31 0.73608,5.46224 16.79518,8.46785 25.5,12 10.45163,4.24094 21.30591,7.41411 32,11 8.64499,2.8988 16.88263,8.38824 26,8.5 5.21976,0.064 14.94,-2.0765 15,-4.5 0.0728,-2.94198 1.86121,-15.0552 -0.5,-22 -1.9959,-5.87034 -6.58171,-10.64992 -11,-15 -4.5146,-4.44491 -9.34254,-9.50851 -15.5,-11 -4.58155,-1.10977 -10.90499,1.62132 -15.3381,2 -6.47641,0.55321 -12.13883,-4.68989 -18,-7.5 -5.64925,-2.70851 -8.99671,-7.88625 -15.1619,-9 -4.63895,-0.83804 -9.40797,0.60347 -14.12165,0.6619 -2.85265,0.0354 -5.76962,-0.81664 -8.37835,0.3381 -1.31102,0.58031 -2.10666,2.12129 -2.5,3.5 z"
         id="path3050"
         style="fill:#fdd3c6;fill-opacity:1;stroke:#000000;stroke-width:1px;stroke-linecap:butt;stroke-linejoin:miter;stroke-opacity:1" />
      <path
         d="m 244.2433,321.11889 c -2.84083,9.95751 6.84246,12.64032 12.82648,17.74061 3.46497,2.95327 16.9168,11.02241 24.77011,16.37925 9.31798,6.3559 15.22362,8.9955 25.91771,12.58139 8.64499,2.8988 18.9506,3.40076 28.06798,3.51252 5.21975,0.064 7.62277,-4.4538 8.18784,-6.81127 0.55938,-2.33375 2.59108,-0.4577 0.22987,-7.4025 -1.99591,-5.87034 -6.58172,-10.64992 -11,-15 -4.5146,-4.44491 -9.34254,-9.50851 -15.5,-11 -4.58155,-1.10977 -10.90499,1.62132 -15.33811,2 -6.47641,0.55321 -12.13883,-4.68989 -18,-7.5 -5.64924,-2.70851 -8.99671,-7.88625 -15.16189,-9 -4.63896,-0.83804 -9.40798,0.60347 -14.12166,0.6619 -2.85264,0.0354 -5.76961,-0.81664 -8.37834,0.3381 -1.31102,0.58031 -2.10666,2.12129 -2.5,3.5 z"
         id="path3050-3"
         style="fill:#feece7;fill-opacity:1;stroke:#000000;stroke-width:1px;stroke-linecap:butt;stroke-linejoin:miter;stroke-opacity:1" />
      <g
         id="g3861">
        <path
           d="m 251.8068,324.79868 c 0.88795,2.27848 2.89684,3.99344 4.74418,5.5957 7.02002,6.08869 15.92307,9.60356 23.59929,14.84079 2.7065,1.84656 4.70425,5.14802 7.90698,5.839 2.27004,0.48976 6.32558,-1.33811 6.81216,-1.45975 0.48658,-0.12165 3.80732,-3.36511 3.04114,-5.23077 -0.94166,-2.29295 -6.69051,-1.82468 -7.1771,-1.94633 -0.48658,-0.12164 -7.54204,-3.04115 -8.39356,-3.77102 -0.85152,-0.72988 -12.27246,-8.35877 -12.7728,-8.39357 -1.74902,-0.12164 -10.09661,-7.90697 -10.58319,-8.02862 -0.48658,-0.12165 -5.55183,-2.18766 -7.29875,-0.48658 -0.72685,0.70778 -0.24674,2.09587 0.12165,3.04115 z"
           id="path3052"
           style="fill:#fc6030;fill-opacity:1;stroke:#000000;stroke-width:1px;stroke-linecap:butt;stroke-linejoin:miter;stroke-opacity:1" />
        <path
           d="m 264.45796,320.78437 c -1.0807,0.75823 -1.16403,1.90805 -0.48658,3.04114 2.81651,4.71084 10.82601,2.88052 15.44901,5.839 2.12742,1.36144 3.01841,4.17854 5.10913,5.5957 2.18814,1.48319 4.89089,2.03011 7.42039,2.79786 2.90824,0.88271 6.46087,0.22837 8.88014,2.06798 1.21329,0.92259 0.7099,4.37989 2.18963,4.01431 2.63775,-0.65169 1.95681,-6.14664 0.12164,-8.15027 -2.63619,-2.87818 -8.06136,0.61593 -11.67799,-0.85152 -4.26719,-1.73142 -10.0966,-8.5152 -10.58319,-8.88014 -0.48658,-0.36493 -6.81745,-3.43697 -10.46154,-4.5009 -1.93251,-0.56422 -4.31262,-2.12943 -5.96064,-0.97316 z"
           id="path3054"
           style="fill:#fc6030;fill-opacity:1;stroke:#000000;stroke-width:1px;stroke-linecap:butt;stroke-linejoin:miter;stroke-opacity:1" />
        <path
           d="m 308.25045,335.50351 c -1.30807,1.6099 -1.29131,5.13531 0.48658,6.20393 2.61487,1.57169 5.35509,-3.92407 8.39356,-3.64937 4.56981,0.41315 9.51053,3.49818 11.43471,7.66368 0.89008,1.92687 0.88887,4.95272 -0.72988,6.32558 -1.88868,1.60179 -5.54896,-1.98683 -7.42039,-0.36493 -0.98485,0.85353 -0.10543,2.77065 0.72987,3.77101 3.93887,4.71723 10.67037,2.20715 17.2737,1.70305 5.68712,-0.43416 -8.63685,-14.47585 -9.12343,-14.47585 -0.48658,0 -7.65424,-7.14162 -12.52952,-8.27192 -2.78782,-0.64634 -6.71057,-1.12622 -8.5152,1.09482 z"
           id="path3056"
           style="fill:#fc6030;fill-opacity:1;stroke:#000000;stroke-width:1px;stroke-linecap:butt;stroke-linejoin:miter;stroke-opacity:1" />
        <path
           d="m 299.97853,353.62873 c -2.23938,1.08118 -3.56556,4.38137 -3.04114,6.81216 1.01764,4.71693 4.61251,2.25613 11.4347,5.71735 5.11348,2.59431 17.76029,2.9195 18.24687,2.9195 0.48658,0 8.05438,-0.32974 9.85331,-3.89266 0.81588,-1.61592 -0.97316,-3.89267 -1.45975,-3.77102 -0.48658,0.12164 -7.14431,0.50234 -10.58318,-0.36494 -3.56599,-0.89934 -6.42118,-8.6985 -9.12344,-6.20393 -1.9882,1.83539 3.52202,4.39477 4.01431,7.05545 0.4403,2.37965 1.13072,4.68075 -0.85152,4.86584 -3.78186,0.35313 -10.63825,-1.55179 -12.28622,-5.96064 -0.99684,-2.66687 3.98755,-2.27924 2.79785,-4.86584 -1.29452,-2.81449 -6.212,-3.65819 -9.00179,-2.31127 z"
           id="path3058"
           style="fill:#fc6030;fill-opacity:1;stroke:#000000;stroke-width:1px;stroke-linecap:butt;stroke-linejoin:miter;stroke-opacity:1" />
        <path
           d="m 315.54919,344.5053 c -0.89162,1.42238 1.39295,3.69558 3.04115,4.01431 1.62496,0.31423 4.54008,-0.92379 4.2576,-2.55457 -0.42346,-2.44469 -5.98098,-3.56196 -7.29875,-1.45974 z"
           id="path3060"
           style="fill:#fc6030;fill-opacity:1;stroke:#000000;stroke-width:1px;stroke-linecap:butt;stroke-linejoin:miter;stroke-opacity:1" />
        <path
           d="m 307.27728,345.11352 c -1.59051,0.71556 -3.2853,4.61542 -1.58139,4.98748 3.32943,0.72701 5.96531,2.19293 8.02862,0.36494 0.91255,-0.80847 0.81963,-1.43334 0.12164,-2.43292 -1.37183,-1.96458 -4.38369,-3.9026 -6.56887,-2.9195 z"
           id="path3062"
           style="fill:#fc6030;fill-opacity:1;stroke:#000000;stroke-width:1px;stroke-linecap:butt;stroke-linejoin:miter;stroke-opacity:1" />
      </g>
    </g>
  </g>
</svg>
