<?xml version="1.0" encoding="UTF-8" standalone="no"?>
<!-- Created with Inkscape (http://www.inkscape.org/) -->

<svg
   xmlns:dc="http://purl.org/dc/elements/1.1/"
   xmlns:cc="http://creativecommons.org/ns#"
   xmlns:rdf="http://www.w3.org/1999/02/22-rdf-syntax-ns#"
   xmlns:svg="http://www.w3.org/2000/svg"
   xmlns="http://www.w3.org/2000/svg"
   version="1.1"
   width="79.995613"
   height="95.485306"
   id="svg4047">
  <defs
     id="defs4049" />
  <metadata
     id="metadata4052">
    <rdf:RDF>
      <cc:Work
         rdf:about="">
        <dc:format>image/svg+xml</dc:format>
        <dc:type
           rdf:resource="http://purl.org/dc/dcmitype/StillImage" />
        <dc:title></dc:title>
      </cc:Work>
    </rdf:RDF>
  </metadata>
  <g
     transform="translate(-382.8628,-518.89746)"
     id="layer1">
    <g
       transform="translate(201.41898,146.19494)"
       id="g4020">
      <path
         d="m 238,467.69552 c -4.44018,-0.0286 -8.07732,-3.98099 -11.33333,-7 -9.97383,-9.24785 -24,-33 -24,-33 L 205,420.36218 l -6.66667,-7 8.33334,-4.33333 3.33333,7 -1.33333,-9.33333 5.66666,-1.66667 2.33334,7.33333 1.33333,-13 8,4.66667 2.66667,18.33333 1.33333,-18 9.33333,0 1,10 5.66667,-13 5.33333,3 -10.33333,29 c 0,0 3.90707,12.56932 7,18.33334 1.35579,2.52667 5.5839,4.19264 5,7 -1.18735,5.70878 -9.16917,9.03754 -15,9 z"
         id="path4006"
         style="fill:#8ba806;fill-opacity:1;stroke:#000000;stroke-width:1px;stroke-linecap:butt;stroke-linejoin:miter;stroke-opacity:1" />
      <path
         d="m 203.33333,427.36218 c -3.8195,1.8834 -9.2363,-0.41029 -12.33333,-3.33333 -2.29973,-2.17054 -4.5713,-6.25573 -3,-9 1.86247,-3.25278 7.49482,-3.66115 11,-2.33333 3.49129,1.32256 6.20688,5.29502 6.66667,9 0.25158,2.0272 -0.50122,4.76324 -2.33334,5.66666 z"
         id="path4008"
         style="fill:#2c8305;fill-opacity:1;stroke:#000000;stroke-width:1px;stroke-linecap:butt;stroke-linejoin:miter;stroke-opacity:1" />
      <path
         d="m 201,412.36218 c -4.21355,1.73179 -9.08047,4.63288 -13.33333,3 -3.05074,-1.17133 -5.41749,-4.74164 -5.66667,-8 -0.54939,-7.18413 3.16091,-16.23678 9.66667,-19.33333 2.77489,-1.32077 6.33022,0.47792 9,2 2.11698,1.20693 3.28781,3.59936 5,5.33333 2.81591,2.85173 9.02246,4.34146 8.66666,8.33334 -0.28453,3.19228 -5.30749,3.59495 -8,5.33333 -1.76125,1.13713 -3.39428,2.53637 -5.33333,3.33333 z"
         id="path4010"
         style="fill:#2c8305;fill-opacity:1;stroke:#000000;stroke-width:1px;stroke-linecap:butt;stroke-linejoin:miter;stroke-opacity:1" />
      <path
         d="m 214,404.36218 c 0,0 -11.7137,-8.06082 -12.33333,-14.33333 -0.4891,-4.95115 3.28241,-10.11156 7.33333,-13 4.5071,-3.21372 11.15132,-4.94646 16.33333,-3 3.84998,1.44612 6.59227,5.69688 7.66667,9.66667 0.82102,3.03356 -0.22345,6.39314 -1.33333,9.33333 -1.36046,3.60398 -3.28134,7.31618 -6.33334,9.66667 -2.78376,2.14391 -10,3.33333 -10,3.33333"
         id="path4012"
         style="fill:#2c8305;fill-opacity:1;stroke:#000000;stroke-width:1px;stroke-linecap:butt;stroke-linejoin:miter;stroke-opacity:1" />
      <path
         d="m 229.33333,378.36218 c 1.00312,-2.59984 4.90263,-3.68763 7.66667,-3.33333 7.14323,0.91564 15.24172,6.34959 17,13.33333 0.47376,1.88175 -0.57875,4.50455 -2.33333,5.33334 -5.53389,2.61398 -13.03015,-1.00506 -17.66667,-5 -2.8632,-2.467 -6.02715,-6.80729 -4.66667,-10.33334 z"
         id="path4014"
         style="fill:#2c8305;fill-opacity:1;stroke:#000000;stroke-width:1px;stroke-linecap:butt;stroke-linejoin:miter;stroke-opacity:1" />
      <path
         d="m 250.66667,394.36218 c 0,0 0.0976,9.4846 3.66666,10.66667 2.42826,0.80423 5.70434,-1.8539 6.33334,-4.33333 1.19751,-4.72038 -1.80677,-13.31218 -6.66667,-13 -2.94622,0.18925 -3,8.33333 -3,8.33333"
         id="path4016"
         style="fill:#2c8305;fill-opacity:1;stroke:#000000;stroke-width:1px;stroke-linecap:butt;stroke-linejoin:miter;stroke-opacity:1" />
      <path
         d="m 228,407.36218 c -3.446,-2.86126 -3.22065,-9.13251 -1.66667,-13.33333 1.14616,-3.09837 4.10287,-5.97554 7.33334,-6.66667 6.28777,-1.34522 13.4935,1.76659 18.33333,6 2.69316,2.35571 6.24936,6.45769 4.66667,9.66667 -2.66036,5.39401 -11.70507,2.87158 -17.66667,3.66667 -3.64115,0.48562 -8.17383,3.01327 -11,0.66666 z"
         id="path4018"
         style="fill:#2c8305;fill-opacity:1;stroke:#000000;stroke-width:1px;stroke-linecap:butt;stroke-linejoin:miter;stroke-opacity:1" />
    </g>
  </g>
</svg>
