<svg xmlns="http://www.w3.org/2000/svg" width="79.996" height="95.49"><g transform="translate(-181.44-372.7)" stroke="#000"><path d="m238 467.7c-4.44-.029-8.08-3.981-11.333-7-9.974-9.248-24-33-24-33l2.333-7.333-6.667-7 8.333-4.333 3.333 7-1.333-9.333 5.667-1.667 2.333 7.333 1.333-13 8 4.667 2.667 18.333 1.333-18h9.333l1 10 5.667-13 5.333 3-10.333 29c0 0 3.907 12.569 7 18.333 1.356 2.527 5.584 4.193 5 7-1.187 5.709-9.169 9.04-15 9z" fill="#8ba806"/><g fill="#2c8305"><path d="m203.33 427.36c-3.82 1.883-9.236-.41-12.333-3.333-2.3-2.171-4.571-6.256-3-9 1.862-3.253 7.495-3.661 11-2.333 3.491 1.323 6.207 5.295 6.667 9 .252 2.027-.501 4.763-2.333 5.667z"/><path d="m201 412.36c-4.214 1.732-9.08 4.633-13.333 3-3.051-1.171-5.417-4.742-5.667-8-.549-7.184 3.161-16.237 9.667-19.333 2.775-1.321 6.33.478 9 2 2.117 1.207 3.288 3.599 5 5.333 2.816 2.852 9.02 4.341 8.667 8.333-.285 3.192-5.307 3.595-8 5.333-1.761 1.137-3.394 2.536-5.333 3.333z"/><path d="m214 404.36c0 0-11.714-8.06-12.333-14.333-.489-4.951 3.282-10.112 7.333-13 4.507-3.214 11.151-4.946 16.333-3 3.85 1.446 6.592 5.697 7.667 9.667.821 3.034-.223 6.393-1.333 9.333-1.36 3.604-3.281 7.316-6.333 9.667-2.784 2.144-10 3.333-10 3.333"/><path d="m229.33 378.36c1-2.6 4.903-3.688 7.667-3.333 7.143.916 15.242 6.35 17 13.333.474 1.882-.579 4.505-2.333 5.333-5.534 2.614-13.03-1.01-17.667-5-2.863-2.467-6.03-6.807-4.667-10.333z"/><path d="m250.67 394.36c0 0 .098 9.485 3.667 10.667 2.428.804 5.704-1.854 6.333-4.333 1.198-4.72-1.807-13.312-6.667-13-2.946.189-3 8.333-3 8.333"/><path d="m228 407.36c-3.446-2.861-3.221-9.133-1.667-13.333 1.146-3.098 4.103-5.976 7.333-6.667 6.288-1.345 13.494 1.767 18.333 6 2.693 2.356 6.249 6.458 4.667 9.667-2.66 5.394-11.705 2.872-17.667 3.667-3.641.486-8.174 3.01-11 .667z"/></g></g></svg>
