<svg xmlns="http://www.w3.org/2000/svg" width="65.16" height="114.81"><g transform="translate(-726.66-342.41)" stroke="#000"><g fill="#f8f338"><path d="m727.58 403.51l-.261 20.541c0 0 2.745.54 3.146 1.656.627 1.746-2.152 5.132-2.152 5.132v25.331l27.649-22.682 34.603-31.29.233-18.465c0 0 .098-6.7-.564-6.7-.662 0-5.404.032-5.96-1.987-.561-2.037 3.146-4.305 4.139-4.801.993-.497 1.6.49 2.564-1.296-.922-4.149.251-15.591.251-15.591"/><path d="m734.77 370.57c-.9 2.884-1.814 15.977-1.49 8.94.048-1.049 2.434.606 3.146-.166 2.62-2.841 3.452-10.8-.331-11.589-1.015-.212-1.016 1.825-1.325 2.815z"/></g><path d="m727.15 415.28c0-.828 1.821-35.596 1.821-35.596 0 0 6.126.497 6.788 0 .662-.497 1.081-9.194.254-9.194-.828 0-4.724-.409-4.558-1.071.166-.662.828-26.49.828-26.49 0 0 22.02 1.159 22.682.828.662-.331 11.639-.547 17.219.828 6.737 1.66 18.874 8.775 18.874 8.775 0 0-11.922 15.683-20.04 23.538-1.23 1.19-4.192-3.789-5.619-2.843-2.485 1.648-.331 8.94-.331 8.94z" fill="#f9fb97"/><g fill="#f8f338"><path d="m736.92 388.12c0 0-4.873 6.235-2.98 8.609 1.904 2.387 7.781-.497 9.106-.993 1.324-.497 3.926-1.373 3.808-2.98-.27-3.673-9.603-5.464-9.603-5.464"/><path d="m749.01 381.34c.497 1.159.291 3.086 1.49 3.477 1.953.636 5.639-1.12 5.298-3.146-.412-2.444-5.719-3.411-7.285-1.49-.266.326.331.773.497 1.159z"/><path d="m753.31 360.31c0 0-1.377 12.458 3.146 14.238 4.615 1.816 11.258-7.947 12.252-8.444.993-.497 2.649-5.96 1.987-6.291-.662-.331-9.603-5.629-10.265-5.629-.662 0-7.947 6.126-7.947 6.126"/></g><g fill="#f9fb97"><path d="m765.23 393.09c-1.524.305-4.139 4.967-2.649 5.464 1.49.497 4.773 1.847 6.457.497 1.218-.977 1.324-4.305.662-4.636-.662-.331-3.642-1.49-4.47-1.325z"/><path d="m742.38 416.77c-.958 3.91-7.45 9.768-6.623 10.1.828.331 6.081 3.868 8.94 2.649 3.542-1.511 6.446-6.59 5.298-10.265-.876-2.804-5.342-5.776-7.781-4.139-.461.309.298 1.117.166 1.656z"/></g></g></svg>
