<?xml version="1.0" encoding="UTF-8" standalone="no"?>
<!-- Created with Inkscape (http://www.inkscape.org/) -->

<svg
   xmlns:dc="http://purl.org/dc/elements/1.1/"
   xmlns:cc="http://creativecommons.org/ns#"
   xmlns:rdf="http://www.w3.org/1999/02/22-rdf-syntax-ns#"
   xmlns:svg="http://www.w3.org/2000/svg"
   xmlns="http://www.w3.org/2000/svg"
   version="1.1"
   width="65.15625"
   height="114.8125"
   id="svg4241">
  <defs
     id="defs4243" />
  <metadata
     id="metadata4246">
    <rdf:RDF>
      <cc:Work
         rdf:about="">
        <dc:format>image/svg+xml</dc:format>
        <dc:type
           rdf:resource="http://purl.org/dc/dcmitype/StillImage" />
        <dc:title></dc:title>
      </cc:Work>
    </rdf:RDF>
  </metadata>
  <g
     transform="translate(-367.4675,-458.07796)"
     id="layer1">
    <g
       transform="translate(-359.18875,115.67171)"
       id="g4212">
      <path
         d="m 727.57925,403.51035 -0.26137,20.54057 c 0,0 2.74538,0.54037 3.1457,1.65563 0.62674,1.74608 -2.15232,5.13245 -2.15232,5.13245 l 0,25.33113 27.649,-22.68212 34.60265,-31.29139 0.23287,-18.46542 c 0,0 0.0983,-6.70014 -0.56399,-6.70014 -0.66225,0 -5.40411,0.0323 -5.96027,-1.98676 -0.56116,-2.03717 3.1457,-4.30463 4.13908,-4.80132 0.99337,-0.49669 1.60016,0.48995 2.56353,-1.29601 -0.92173,-4.14898 0.25104,-15.59141 0.25104,-15.59141"
         id="path4210"
         style="fill:#f8f338;fill-opacity:1;stroke:#000000;stroke-width:1px;stroke-linecap:butt;stroke-linejoin:miter;stroke-opacity:1" />
      <path
         d="m 734.76821,370.5741 c -0.90004,2.88406 -1.81373,15.97736 -1.49006,8.9404 0.0483,-1.0489 2.43394,0.60642 3.14569,-0.16556 2.61967,-2.84136 3.45216,-10.80026 -0.33112,-11.58941 -1.01504,-0.21173 -1.01562,1.82477 -1.32451,2.81457 z"
         id="path4204"
         style="fill:#f8f338;fill-opacity:1;stroke:#000000;stroke-width:1px;stroke-linecap:butt;stroke-linejoin:miter;stroke-opacity:1" />
      <path
         d="m 727.15232,415.27609 c 0,-0.82781 1.82119,-35.59603 1.82119,-35.59603 0,0 6.12583,0.49669 6.78808,0 0.66225,-0.49669 1.08132,-9.1939 0.2535,-9.1939 -0.82781,0 -4.7237,-0.40875 -4.55814,-1.071 0.16557,-0.66225 0.82782,-26.49006 0.82782,-26.49006 0,0 22.01987,1.15894 22.68212,0.82781 0.66225,-0.33112 11.6393,-0.54705 17.21854,0.82782 6.73655,1.66007 18.87417,8.77483 18.87417,8.77483 0,0 -11.92178,15.68276 -20.04342,23.53843 -1.23035,1.19005 -4.19234,-3.78915 -5.61883,-2.84307 -2.48526,1.64829 -0.33112,8.9404 -0.33112,8.9404 z"
         id="path4196"
         style="fill:#f9fb97;fill-opacity:1;stroke:#000000;stroke-width:1px;stroke-linecap:butt;stroke-linejoin:miter;stroke-opacity:1" />
      <path
         d="m 736.92053,388.12377 c 0,0 -4.87334,6.23481 -2.98013,8.60927 1.9035,2.38736 7.78145,-0.49669 9.10596,-0.99337 1.3245,-0.49669 3.92611,-1.37266 3.80794,-2.98014 -0.27,-3.6728 -9.60264,-5.46357 -9.60264,-5.46357"
         id="path4198"
         style="fill:#f8f338;fill-opacity:1;stroke:#000000;stroke-width:1px;stroke-linecap:butt;stroke-linejoin:miter;stroke-opacity:1" />
      <path
         d="m 749.00662,381.33569 c 0.49669,1.15894 0.29124,3.08612 1.49007,3.47682 1.95275,0.6364 5.63946,-1.12043 5.29801,-3.14569 -0.41205,-2.44404 -5.71891,-3.41132 -7.28477,-1.49007 -0.26553,0.3258 0.33113,0.77263 0.49669,1.15894 z"
         id="path4200"
         style="fill:#f8f338;fill-opacity:1;stroke:#000000;stroke-width:1px;stroke-linecap:butt;stroke-linejoin:miter;stroke-opacity:1" />
      <path
         d="m 753.31126,360.3092 c 0,0 -1.37719,12.45828 3.14569,14.23841 4.61523,1.81648 11.25828,-7.94702 12.25166,-8.44371 0.99338,-0.49668 2.64901,-5.96026 1.98675,-6.29139 -0.66225,-0.33112 -9.60264,-5.62914 -10.2649,-5.62914 -0.66225,0 -7.94702,6.12583 -7.94702,6.12583"
         id="path4202"
         style="fill:#f8f338;fill-opacity:1;stroke:#000000;stroke-width:1px;stroke-linecap:butt;stroke-linejoin:miter;stroke-opacity:1" />
      <path
         d="m 765.23179,393.09066 c -1.52392,0.30478 -4.13907,4.96689 -2.64901,5.46358 1.49007,0.49668 4.7731,1.84743 6.45696,0.49668 1.2176,-0.97672 1.3245,-4.30463 0.66225,-4.63576 -0.66225,-0.33112 -3.64239,-1.49006 -4.4702,-1.3245 z"
         id="path4206"
         style="fill:#f9fb97;fill-opacity:1;stroke:#000000;stroke-width:1px;stroke-linecap:butt;stroke-linejoin:miter;stroke-opacity:1" />
      <path
         d="m 742.38411,416.76616 c -0.95833,3.90994 -7.45034,9.7682 -6.62252,10.09933 0.82781,0.33112 6.08137,3.86837 8.9404,2.64901 3.54182,-1.51057 6.44598,-6.58951 5.29801,-10.2649 -0.8759,-2.80433 -5.34154,-5.77559 -7.78146,-4.13907 -0.46061,0.30895 0.2976,1.11695 0.16557,1.65563 z"
         id="path4208"
         style="fill:#f9fb97;fill-opacity:1;stroke:#000000;stroke-width:1px;stroke-linecap:butt;stroke-linejoin:miter;stroke-opacity:1" />
    </g>
  </g>
</svg>
