<?xml version="1.0" encoding="UTF-8" standalone="no"?>
<!-- Created with Inkscape (http://www.inkscape.org/) -->

<svg
   xmlns:dc="http://purl.org/dc/elements/1.1/"
   xmlns:cc="http://creativecommons.org/ns#"
   xmlns:rdf="http://www.w3.org/1999/02/22-rdf-syntax-ns#"
   xmlns:svg="http://www.w3.org/2000/svg"
   xmlns="http://www.w3.org/2000/svg"
   version="1.1"
   width="94.930313"
   height="86.073486"
   id="svg4140">
  <defs
     id="defs4142" />
  <metadata
     id="metadata4145">
    <rdf:RDF>
      <cc:Work
         rdf:about="">
        <dc:format>image/svg+xml</dc:format>
        <dc:type
           rdf:resource="http://purl.org/dc/dcmitype/StillImage" />
        <dc:title></dc:title>
      </cc:Work>
    </rdf:RDF>
  </metadata>
  <g
     transform="translate(-252.53714,-257.90821)"
     id="layer1">
    <g
       transform="translate(18.692364,-111.4534)"
       id="g4111">
      <path
         d="m 253.25,408.11218 c 1.5998,-3.75782 -0.25,-12.25 -0.25,-12.25 0,0 -8.81669,7.25264 -12.25,11.75 -2.64738,3.46786 -7.37189,7.28383 -6.25,11.5 1.18344,4.44747 7.15911,6.92712 11.75,7.25 2.90354,0.20421 7.35094,-0.66258 8,-3.5 0.85661,-3.74475 -7.72412,-4.91507 -7.5,-8.75 0.17203,-2.94361 5.345,-3.28699 6.5,-6 z"
         id="path4103"
         style="fill:#f8a83a;fill-opacity:1;stroke:#000000;stroke-width:1px;stroke-linecap:butt;stroke-linejoin:miter;stroke-opacity:1" />
      <path
         d="m 286.25,377.86218 c 1.2951,-3.35769 3.6623,-8.28254 7.25,-8 2.58071,0.20324 3.59981,3.99428 4.25,6.5 0.29377,1.13215 0.75,3.5 -0.25,3.5 -1,0 -4.00576,0.27466 -6,0.5 -1.75659,0.19849 -3.91453,1.90824 -5.25,0.75 -0.81841,-0.7098 -0.38986,-2.23925 0,-3.25 z"
         id="path4107"
         style="fill:#fce0b8;fill-opacity:1;stroke:#000000;stroke-width:1px;stroke-linecap:butt;stroke-linejoin:miter;stroke-opacity:1" />
      <path
         d="m 261.75,397.61218 c -3.0896,-2.16575 -2.7157,-7.77324 -1.25,-11.25 2.42184,-5.7448 13.25,-11 14.75,-11.5 1.5,-0.5 8.83533,-0.80305 11,2.25 1.07019,1.5094 -0.0566,3.78455 -0.75,5.5 -1.74274,4.31137 -6.75,10.5 -8.25,11.25 -1.5,0.75 -11.14719,6.80123 -15.5,3.75 z"
         id="path4105"
         style="fill:#f8a83a;fill-opacity:1;stroke:#000000;stroke-width:1px;stroke-linecap:butt;stroke-linejoin:miter;stroke-opacity:1" />
      <path
         d="m 294.5,429.36218 c -6.21853,5.06658 -18.5,13 -20.25,13 -1.75,0 -16.35148,0.73402 -22.75,-3.5 -3.43284,-2.27157 -6.29759,-6.38862 -6.5,-10.5 -0.47463,-9.64097 6.82212,-18.38201 12.75,-26 6.24481,-8.02528 13.61246,-16.50645 23.25,-19.75 7.19805,-2.42253 16.93012,-3.62951 22.75,1.25 4.19769,3.51943 3.41861,10.53217 3.75,16 0.37022,6.10855 0.61582,12.71747 -2,18.25 -2.24179,4.74145 -6.934,7.93721 -11,11.25 z"
         id="path4095"
         style="fill:#f8a83a;fill-opacity:1;stroke:#000000;stroke-width:1px;stroke-linecap:butt;stroke-linejoin:miter;stroke-opacity:1" />
      <path
         d="m 265.25,400.61218 c -2.15473,2.95267 -6.31815,6.82897 -4.5,10 2.3345,4.07159 9.47464,2.74455 14,1.5 5.22276,-1.43635 8.764,-6.37412 13,-9.75 5.54896,-4.42225 17.65749,-6.79542 16.25,-13.75 -0.83129,-4.10749 -7.816,-3.51191 -12,-3.75 -3.98139,-0.22656 -8.17848,0.47601 -11.75,2.25 -6.02457,2.99242 -11.03466,8.06621 -15,13.5 z"
         id="path4097"
         style="fill:#f9bc67;fill-opacity:1;stroke:none" />
      <path
         d="m 298.25,419.36218 c -1.1247,3.5058 -2.60926,7.68853 -1,11 1.60637,3.30553 5.62059,6.57819 9.25,6 5.50089,-0.87633 9.75,-12 10.5,-13 0.75,-1 2.70154,-8.52314 1,-12.25 -0.64379,-1.41008 -2.22018,-2.50012 -3.75,-2.75 -4.05753,-0.66275 -8.53965,1.18164 -11.75,3.75 -2.18741,1.74998 -3.39427,4.58261 -4.25,7.25 z"
         id="path4099"
         style="fill:#f8a83a;fill-opacity:1;stroke:#000000;stroke-width:1px;stroke-linecap:butt;stroke-linejoin:miter;stroke-opacity:1" />
      <path
         d="m 283.25,434.86218 c -4.91912,-0.72421 -9.5,-11.5 -9.5,-11.5 0,0 -1.23012,21.82288 5.5,29 2.05998,2.1968 5.85766,3.08895 8.75,2.25 5.49214,-1.59305 11.25,-11.5 11.75,-12.5 0.5,-1 3.18865,-7.25658 1.25,-10 -2.01872,-2.85673 -6.81229,-2.89674 -10.25,-2.25 -2.95282,0.55552 -4.52742,5.43763 -7.5,5 z"
         id="path4101"
         style="fill:#f8a83a;fill-opacity:1;stroke:#000000;stroke-width:1px;stroke-linecap:butt;stroke-linejoin:miter;stroke-opacity:1" />
      <path
         d="m 316.5,410.11218 c 0,0 1.23743,-4.25801 2.75,-5.75 1.69889,-1.67578 4.37298,-4.08178 6.5,-3 1.13624,0.57788 0.46399,2.50774 0.75,3.75 0.44442,1.93031 2.53556,4.06144 1.5,5.75 -1.42709,2.32697 -5.31752,2.25567 -8,1.75 -0.88579,-0.16698 -2.25,-1.5 -2.25,-1.5"
         id="path4109"
         style="fill:#fde9cd;fill-opacity:1;stroke:#000000;stroke-width:1px;stroke-linecap:butt;stroke-linejoin:miter;stroke-opacity:1" />
    </g>
  </g>
</svg>
