<svg xmlns="http://www.w3.org/2000/svg" width="94.93" height="86.7"><g transform="translate(-233.84-369.36)"><g stroke="#000"><path d="m253.25 408.11c1.6-3.758-.25-12.25-.25-12.25 0 0-8.817 7.253-12.25 11.75-2.647 3.468-7.372 7.284-6.25 11.5 1.183 4.447 7.159 6.927 11.75 7.25 2.904.204 7.351-.663 8-3.5.857-3.745-7.724-4.915-7.5-8.75.172-2.944 5.345-3.287 6.5-6z" fill="#f8a83a"/><path d="m286.25 377.86c1.295-3.358 3.662-8.283 7.25-8 2.581.203 3.6 3.994 4.25 6.5.294 1.132.75 3.5-.25 3.5-1 0-4.01.275-6 .5-1.757.198-3.915 1.908-5.25.75-.818-.71-.39-2.239 0-3.25z" fill="#fce0b8"/><g fill="#f8a83a"><path d="m261.75 397.61c-3.09-2.166-2.716-7.773-1.25-11.25 2.422-5.745 13.25-11 14.75-11.5 1.5-.5 8.835-.803 11 2.25 1.07 1.509-.057 3.785-.75 5.5-1.743 4.311-6.75 10.5-8.25 11.25-1.5.75-11.147 6.801-15.5 3.75z"/><path d="m294.5 429.36c-6.219 5.067-18.5 13-20.25 13-1.75 0-16.351.734-22.75-3.5-3.433-2.272-6.298-6.389-6.5-10.5-.475-9.641 6.822-18.382 12.75-26 6.245-8.03 13.612-16.506 23.25-19.75 7.198-2.423 16.93-3.63 22.75 1.25 4.198 3.519 3.419 10.532 3.75 16 .37 6.109.616 12.717-2 18.25-2.242 4.741-6.934 7.937-11 11.25z"/></g></g><path d="m265.25 400.61c-2.155 2.953-6.318 6.829-4.5 10 2.334 4.072 9.475 2.745 14 1.5 5.223-1.436 8.764-6.374 13-9.75 5.549-4.422 17.657-6.795 16.25-13.75-.831-4.107-7.816-3.512-12-3.75-3.981-.227-8.178.476-11.75 2.25-6.02 2.992-11.03 8.07-15 13.5" fill="#f9bc67"/><g stroke="#000"><g fill="#f8a83a"><path d="m298.25 419.36c-1.125 3.506-2.609 7.689-1 11 1.606 3.306 5.621 6.578 9.25 6 5.501-.876 9.75-12 10.5-13 .75-1 2.702-8.523 1-12.25-.644-1.41-2.22-2.5-3.75-2.75-4.058-.663-8.54 1.182-11.75 3.75-2.187 1.75-3.394 4.583-4.25 7.25z"/><path d="m283.25 434.86c-4.919-.724-9.5-11.5-9.5-11.5 0 0-1.23 21.823 5.5 29 2.06 2.197 5.858 3.089 8.75 2.25 5.492-1.593 11.25-11.5 11.75-12.5.5-1 3.189-7.257 1.25-10-2.02-2.857-6.812-2.897-10.25-2.25-2.953.556-4.527 5.438-7.5 5z"/></g><path d="m316.5 410.11c0 0 1.237-4.258 2.75-5.75 1.699-1.676 4.373-4.082 6.5-3 1.136.578.464 2.508.75 3.75.444 1.93 2.536 4.061 1.5 5.75-1.427 2.327-5.318 2.256-8 1.75-.886-.167-2.25-1.5-2.25-1.5" fill="#fde9cd"/></g></g></svg>
