<?xml version="1.0" encoding="UTF-8" standalone="no"?>
<!-- Created with Inkscape (http://www.inkscape.org/) -->

<svg
   xmlns:dc="http://purl.org/dc/elements/1.1/"
   xmlns:cc="http://creativecommons.org/ns#"
   xmlns:rdf="http://www.w3.org/1999/02/22-rdf-syntax-ns#"
   xmlns:svg="http://www.w3.org/2000/svg"
   xmlns="http://www.w3.org/2000/svg"
   version="1.1"
   width="71.721313"
   height="70"
   id="svg2">
  <metadata
     id="metadata8">
    <rdf:RDF>
      <cc:Work
         rdf:about="">
        <dc:format>image/svg+xml</dc:format>
        <dc:type
           rdf:resource="http://purl.org/dc/dcmitype/StillImage" />
        <dc:title></dc:title>
      </cc:Work>
    </rdf:RDF>
  </metadata>
  <defs
     id="defs6" />
  <path
     d="m 16.886556,13.589042 c 2.801911,-2.391815 5.283319,-5.4771905 8.73052,-6.7765308 4.7814,-1.8022346 10.285867,-1.9115957 15.300952,-0.9324309 2.507239,0.4895231 4.802041,1.8697816 6.912416,3.3092944 4.415871,3.0121193 8.77216,6.4839473 11.725327,10.9394603 3.154341,4.759027 5.742377,10.378716 5.882974,16.086469 0.14992,6.086185 -2.474488,12.113515 -5.420876,17.441078 -0.968465,1.751148 -2.321039,3.338425 -3.908675,4.556561 -1.826042,1.401057 -5.173438,3.041219 -6.226005,2.985526 -10.899633,-0.576711 -17.205387,3.535354 -18.148148,3.535354 -0.942761,0 -6.599327,-1.178451 -7.306397,-1.414142 C 23.721573,63.083991 13.982439,55.57321 10.75861,50.121028 7.8582672,45.215929 6.3743422,39.32036 6.2804962,33.622712 6.2073762,29.183265 7.1195412,24.50211 9.3444692,20.659749 11.071305,17.677574 14.265578,15.826407 16.886556,13.589042 z"
     id="path2983"
     style="fill:#eda35a;fill-opacity:1;stroke:#000000;stroke-width:1px;stroke-linecap:butt;stroke-linejoin:miter;stroke-opacity:1" />
  <path
     d="m 16.886556,13.589042 c 2.966017,3.077238 -4.688062,18.820396 -3.302458,23.298302 1.08887,3.51894 7.286944,12.241549 9.397319,13.681062 4.415871,3.01212 1.163477,3.180762 6.107286,5.213382 5.531205,2.274124 9.123121,0.164998 14.742192,1.177052 3.749772,0.675374 6.423787,-1.353945 12.278299,1.254103 2.102428,0.936582 -5.173438,3.041219 -6.226005,2.985526 -10.899633,-0.576711 -17.205387,3.535354 -18.148148,3.535354 -0.942761,0 -6.599327,-1.178451 -7.306397,-1.414142 C 23.721573,63.083991 13.982439,55.57321 10.75861,50.121028 7.8582672,45.215929 6.3743422,39.32036 6.2804962,33.622712 6.2073762,29.183266 7.1195412,24.502111 9.3444692,20.65975 11.071305,17.677575 15.437835,15.585998 16.886556,13.589042 z"
     id="path2983-5"
     style="fill:#bb6e22;fill-opacity:1;stroke:none" />
  <path
     d="m 24.849027,17.600965 c -1.944706,0.864314 -2.227126,2.196013 -1.728628,3.349216 0.416118,0.962628 2.123032,1.39918 3.025099,0.864314 0.984468,-0.583724 1.230669,-2.307649 0.756275,-3.349216 -0.220397,-0.483899 -1.40451,-0.756275 -1.40451,-0.756275"
     id="path3007"
     style="fill:#96581b;fill-opacity:1;stroke:#000000;stroke-width:1px;stroke-linecap:butt;stroke-linejoin:miter;stroke-opacity:1" />
  <path
     d="m 31.331382,11.874885 c 0,0 1.338762,2.389596 2.484903,2.376863 1.018541,-0.01132 1.997623,-1.155334 2.160785,-2.160785 0.180587,-1.11283 -0.470979,-2.5936663 -1.51255,-3.0250988 -1.052145,-0.4358126 -2.534108,0.1876465 -3.241177,1.0803928 -0.246968,0.311823 -0.10804,1.188431 -0.10804,1.188431"
     id="path3009"
     style="fill:#96581b;fill-opacity:1;stroke:#000000;stroke-width:1px;stroke-linecap:butt;stroke-linejoin:miter;stroke-opacity:1" />
  <path
     d="m 44.080013,15.548219 c 0.927738,-0.208016 2.111801,0.368388 2.592942,1.188432 0.457069,0.779015 0.40646,2.046594 -0.216078,2.700981 -0.575748,0.605202 -1.715134,0.64848 -2.484903,0.324118 -0.829678,-0.349605 -1.645971,-1.260816 -1.620589,-2.160785 0.02522,-0.894191 0.855754,-1.857031 1.728628,-2.052746 z"
     id="path3011"
     style="fill:#96581b;fill-opacity:1;stroke:#000000;stroke-width:1px;stroke-linecap:butt;stroke-linejoin:miter;stroke-opacity:1" />
  <path
     d="m 54.235702,24.515477 c 0.559785,-0.344272 1.492844,-0.153064 1.944707,0.324117 0.448457,0.473585 0.54234,1.37995 0.216078,1.944707 -0.314615,0.544596 -1.120414,0.916409 -1.728628,0.756275 -0.522394,-0.137538 -0.880797,-0.76409 -0.972353,-1.296471 -0.102317,-0.594955 0.02597,-1.412377 0.540196,-1.728628 z"
     id="path3013"
     style="fill:#96581b;fill-opacity:1;stroke:#000000;stroke-width:1px;stroke-linecap:butt;stroke-linejoin:miter;stroke-opacity:1" />
  <path
     d="m 41.487071,29.485282 c 0.601322,0.149354 1.201041,0.904816 1.080393,1.512549 -0.132312,0.666487 -1.052871,1.009235 -1.728628,1.080393 -0.419205,0.04414 -0.961163,-0.07715 -1.188432,-0.432157 -0.23381,-0.365225 -0.13508,-0.937376 0.108039,-1.296471 0.361169,-0.533459 1.103403,-1.019605 1.728628,-0.864314 z"
     id="path3015"
     style="fill:#96581b;fill-opacity:1;stroke:#000000;stroke-width:1px;stroke-linecap:butt;stroke-linejoin:miter;stroke-opacity:1" />
  <path
     d="m 29.278636,34.239009 c 0.628121,-0.03211 1.446176,-0.06088 1.836667,0.432157 0.245954,0.310542 0.157124,0.824781 0,1.188432 -0.333463,0.771775 -1.296471,1.40451 -1.836667,1.728628 -0.540196,0.324117 -1.584727,1.165557 -2.268824,0.756274 -0.90945,-0.544108 -1.079068,-2.220576 -0.540196,-3.133138 0.503819,-0.853201 1.819462,-0.921766 2.80902,-0.972353 z"
     id="path3017"
     style="fill:#96581b;fill-opacity:1;stroke:#000000;stroke-width:1px;stroke-linecap:butt;stroke-linejoin:miter;stroke-opacity:1" />
  <path
     d="m 39.650404,46.555483 c 1.224184,-0.181827 2.748701,-1.362839 3.673334,-0.540196 0.91519,0.814242 0.223744,2.494147 -0.108039,3.673334 -0.15728,0.558988 -0.384664,1.185226 -0.864314,1.51255 -1.022263,0.697615 -2.436436,0.582297 -3.673334,0.540196 -0.847157,-0.02883 -2.05446,0.190027 -2.484903,-0.540196 -0.76372,-1.295608 0.159976,-3.336559 1.296471,-4.32157 0.550372,-0.477012 1.440369,-0.217115 2.160785,-0.324118 z"
     id="path3019"
     style="fill:#96581b;fill-opacity:1;stroke:#000000;stroke-width:1px;stroke-linecap:butt;stroke-linejoin:miter;stroke-opacity:1" />
  <path
     d="m 56.828644,37.156069 c -1.44762,0.388202 -2.953763,1.27821 -3.673334,2.592942 -0.380777,0.69572 -0.540196,2.268824 -0.108039,2.376863 0.432157,0.108039 1.742856,1.014788 2.700981,1.296471 0.835674,0.245683 1.844381,0.769503 2.592942,0.324118 0.764388,-0.454803 0.945955,-1.595837 0.972353,-2.484903 0.04158,-1.400195 -0.201901,-3.123273 -1.296471,-3.997452 -0.310817,-0.248234 -0.804229,-0.211069 -1.188432,-0.108039 z"
     id="path3021"
     style="fill:#96581b;fill-opacity:1;stroke:#000000;stroke-width:1px;stroke-linecap:butt;stroke-linejoin:miter;stroke-opacity:1" />
  <path
     d="m 52.399035,53.902152 c 0,0 -2.291617,1.674178 -2.052745,2.809021 0.162855,0.773695 1.620588,1.29647 2.052745,1.188431 0.432157,-0.108039 1.683751,-0.252579 2.160785,-0.864314 0.826841,-1.060316 1.491542,-3.047253 0.540196,-3.997452 -0.565758,-0.565076 -2.376863,0.324118 -2.376863,0.324118"
     id="path3023"
     style="fill:#96581b;fill-opacity:1;stroke:#000000;stroke-width:1px;stroke-linecap:butt;stroke-linejoin:miter;stroke-opacity:1" />
  <path
     d="m 21.067653,52.065485 c 0,0 -0.105794,1.056992 0.216079,1.40451 1.507735,1.62786 5.005165,3.168177 6.482355,1.51255 0.712852,-0.798961 -0.456431,-2.154945 -1.080393,-3.025099 -0.642394,-0.89586 -1.494396,-1.960917 -2.592942,-2.052746 -0.819157,-0.06847 -1.634473,0.557003 -2.160785,1.188432 -0.218749,0.262438 -0.324117,0.972353 -0.324117,0.972353"
     id="path3025"
     style="fill:#96581b;fill-opacity:1;stroke:#000000;stroke-width:1px;stroke-linecap:butt;stroke-linejoin:miter;stroke-opacity:1" />
  <path
     d="m 11.5602,34.455087 c 1.280036,0.117523 2.812849,0.08887 3.781373,-0.756274 0.746576,-0.651468 1.224482,-1.850785 0.972353,-2.809021 -0.415515,-1.579196 -2.04197,-3.313048 -3.673334,-3.241177 -0.992502,0.04373 -1.611465,1.270704 -2.052746,2.160785 -0.599599,1.209415 -1.3128257,2.822495 -0.6482352,3.997452 0.2864422,0.506412 1.0412172,0.595042 1.6205892,0.648235 z"
     id="path3027"
     style="fill:#96581b;fill-opacity:1;stroke:#000000;stroke-width:1px;stroke-linecap:butt;stroke-linejoin:miter;stroke-opacity:1" />
</svg>
