<svg xmlns="http://www.w3.org/2000/svg" width="71.72" height="70"><path d="m16.887 13.589c2.802-2.392 5.283-5.477 8.731-6.777 4.781-1.802 10.286-1.912 15.301-.932 2.507.49 4.802 1.87 6.912 3.309 4.416 3.01 8.772 6.484 11.725 10.939 3.154 4.759 5.742 10.379 5.883 16.09.15 6.086-2.474 12.11-5.421 17.441-.968 1.751-2.321 3.338-3.909 4.557-1.826 1.401-5.173 3.041-6.226 2.986-10.9-.577-17.205 3.535-18.15 3.535-.943 0-6.599-1.178-7.306-1.414-.707-.236-10.446-7.746-13.67-13.199-2.9-4.905-4.384-10.801-4.478-16.498-.073-4.439.839-9.121 3.064-12.963 1.727-2.982 4.921-4.833 7.542-7.07z" fill="#eda35a" stroke="#000"/><path d="m16.887 13.589c2.966 3.077-4.688 18.82-3.302 23.298 1.089 3.519 7.287 12.242 9.397 13.681 4.416 3.01 1.163 3.181 6.107 5.213 5.531 2.274 9.123.165 14.742 1.177 3.75.675 6.424-1.354 12.278 1.254 2.102.937-5.173 3.041-6.226 2.986-10.9-.577-17.205 3.535-18.15 3.535-.943 0-6.599-1.178-7.306-1.414-.707-.236-10.446-7.746-13.67-13.199-2.9-4.905-4.384-10.801-4.478-16.498-.073-4.439.839-9.121 3.064-12.963 1.727-2.982 6.093-5.074 7.542-7.07" fill="#bb6e22"/><g fill="#96581b" stroke="#000"><path d="m24.849 17.601c-1.945.864-2.227 2.196-1.729 3.349.416.963 2.123 1.399 3.03.864.984-.584 1.231-2.308.756-3.349-.22-.484-1.405-.756-1.405-.756"/><path d="m31.33 11.875c0 0 1.339 2.39 2.485 2.377 1.019-.011 1.998-1.155 2.161-2.161.181-1.113-.471-2.594-1.513-3.03-1.052-.436-2.534.188-3.241 1.08-.247.312-.108 1.188-.108 1.188"/><path d="m44.08 15.548c.928-.208 2.112.368 2.593 1.188.457.779.406 2.047-.216 2.701-.576.605-1.715.648-2.485.324-.83-.35-1.646-1.261-1.621-2.161.025-.894.856-1.857 1.729-2.053z"/><path d="m54.24 24.515c.56-.344 1.493-.153 1.945.324.448.474.542 1.38.216 1.945-.315.545-1.12.916-1.729.756-.522-.138-.881-.764-.972-1.296-.102-.595.026-1.412.54-1.729z"/><path d="m41.487 29.485c.601.149 1.201.905 1.08 1.513-.132.666-1.053 1.01-1.729 1.08-.419.044-.961-.077-1.188-.432-.234-.365-.135-.937.108-1.296.361-.533 1.103-1.02 1.729-.864z"/><path d="m29.28 34.24c.628-.032 1.446-.061 1.837.432.246.311.157.825 0 1.188-.333.772-1.296 1.405-1.837 1.729-.54.324-1.585 1.166-2.269.756-.909-.544-1.079-2.221-.54-3.133.504-.853 1.819-.922 2.809-.972z"/><path d="m39.65 46.555c1.224-.182 2.749-1.363 3.673-.54.915.814.224 2.494-.108 3.673-.157.559-.385 1.185-.864 1.513-1.022.698-2.436.582-3.673.54-.847-.029-2.054.19-2.485-.54-.764-1.296.16-3.337 1.296-4.322.55-.477 1.44-.217 2.161-.324z"/><path d="m56.829 37.16c-1.448.388-2.954 1.278-3.673 2.593-.381.696-.54 2.269-.108 2.377.432.108 1.743 1.015 2.701 1.296.836.246 1.844.77 2.593.324.764-.455.946-1.596.972-2.485.042-1.4-.202-3.123-1.296-3.997-.311-.248-.804-.211-1.188-.108z"/><path d="m52.4 53.902c0 0-2.292 1.674-2.053 2.809.163.774 1.621 1.296 2.053 1.188.432-.108 1.684-.253 2.161-.864.827-1.06 1.492-3.047.54-3.997-.566-.565-2.377.324-2.377.324"/><path d="m21.07 52.07c0 0-.106 1.057.216 1.405 1.508 1.628 5.01 3.168 6.482 1.513.713-.799-.456-2.155-1.08-3.03-.642-.896-1.494-1.961-2.593-2.053-.819-.068-1.634.557-2.161 1.188-.219.262-.324.972-.324.972"/><path d="m11.56 34.455c1.28.118 2.813.089 3.781-.756.747-.651 1.224-1.851.972-2.809-.416-1.579-2.042-3.313-3.673-3.241-.993.044-1.611 1.271-2.053 2.161-.6 1.209-1.313 2.822-.648 3.997.286.506 1.041.595 1.621.648z"/></g></svg>
