<svg xmlns="http://www.w3.org/2000/svg" width="94.72" height="48"><g transform="translate(-2.639-11)" stroke-width="1.2"><g stroke="#000"><path d="m3.591 35.1c-.514-3.261-.81-4.692 1.655-6.887 2.095-1.865 9.03-3.227 11.797-3.892 1.543-.371 18.862-.63 23.488-.729 2.833-.061 22.701 1.053 25.861 1.078 23.356.185 17.325 8.993 17.338 12.94.015 4.548.519 6.715-2.504 8.278-1.515.783-26.679.711-33.31-.443-1.114-.194-24.76-1.975-25.821-2.366-2.01-.741-17.587-2.191-18.5-7.978z" fill="#ffb208" stroke-linecap="round"/><path d="m83.83 41.15c0 0 1.168 2.733 1.426 2.297.218-.368 1.53-.462 3.723-.871.583-.109.373-1.64.95-1.505 2.263.529 5.386.871 5.782.238.396-.634 1.164-2.228 1.03-3.406-.163-1.422-.94-2.941-2.139-3.723-1.245-.812-2.937.19-4.119-.713-.518-.396-.473-1.244-1.03-1.584-.679-.415-2.059.317-2.376.238-.317-.079-2.9-1.606-2.851-.634.181 3.658-.317 10.138-.317 10.138" fill="#a0823f"/></g><g fill="none" stroke="#dd9800"><path d="m12.147 32.874c.504-.907.907-1.914 2.116-2.821.504.168 1.01.336 1.511.504.403.302.806.604 1.209.907.638-.101 1.276-.201 1.914-.302.672.134 1.343.269 2.01.403.537-.034 1.075-.067 1.612-.101.437.067.873.134 1.31.201.47.235.94.47 1.41.705.47-.168.94-.336 1.41-.504.567-.739 1.757.285 2.216.302.604 0 2.116-.403 2.116-.403 1.041-.034 1.276.034 2.317 0 0 0 .705.604 1.612.604.907 0 2.821.101 2.821.101 0 0 1.612.403 2.519.604.907.201 2.72-.403 2.72-.403 0 0 2.216.101 2.72.101.504 0 1.511-.604 1.511-.604.604.235 1.209.47 1.813.705.437-.034.873-.067 1.31-.101 0 0 1.511.504 1.914.403.403-.101 3.224-.201 3.224-.201 1.041.134 2.082.269 3.123.403 1.142-.067 2.284-.134 3.425-.201 1.209 0 2.418 0 3.627 0 0 0 1.813-.907 2.216-.604.403.302 2.418.806 3.123.907.705.101 2.317-.201 2.317-.201 0 0 2.821.604 3.425.604.604 0 1.914-.504 2.418-.403.504.101 3.929-.201 3.929-.201.235.134.47.269.705.403"/><path d="m14.06 29.952c0-.772-.329-1.618 0-2.317.278-.59.967-1.01 1.612-1.108.405-.062.626.555 1.01.705.576.226 1.222.218 1.813.403.488.153.899.587 1.41.604.531.018.982-.552 1.511-.504.331.03.373.705.705.705.496 0 .823-.802 1.31-.705.559.112.652 1.09 1.209 1.209.561.12 1.051-.482 1.612-.604.526-.115 1.087-.222 1.612-.101.399.092.598.723 1.01.705.512-.022.797-.806 1.31-.806.3 0 .103.792.403.806.617.029 1.097-.656 1.713-.705.316-.025.496.571.806.504.592-.129.908-.953 1.511-1.01.356-.032.362.406.705.504.457.13.939.042 1.41.101.149.019.051.403.201.403.489 0 .941-.54 1.41-.403.479.14.512 1.044 1.01 1.108.508.066.799-.855 1.31-.806.428.041.385.92.806 1.01.551.115 1.051-.545 1.612-.504.437.032.671.684 1.108.705.391.019.616-.604 1.01-.604.701 0 1.315.566 2.01.604.553.031 1.067-.504 1.612-.403.469.087.631.886 1.108.907.484.021.725-.806 1.209-.806.38 0 .427.838.806.806.631-.053.979-.986 1.612-1.01.559-.019.865.783 1.41.907.293.067.513-.471.806-.403.281.065.215.705.504.705.556 0 .956-.687 1.511-.705.574-.018 1.038.604 1.612.604.262 0 .243-.631.504-.604.568.057.944.738 1.511.806.373.045.633-.479 1.01-.504.215-.014.289.414.504.403.53-.027.981-.54 1.511-.504.524.036.886.674 1.41.705.691.041 1.329-.595 2.01-.504.448.06.557.946 1.01.907.57-.05.749-.996 1.31-1.108.584-.117 1.118.504 1.713.504.595 0 1.125-.408 1.713-.504.664-.108 1.347-.178 2.01-.101.241.028.366.445.604.403.431-.076.672-.663 1.108-.705.682-.066 1.345.258 2.01.403.573.124 1.215.092 1.713.403.371.232.314.912.705 1.108.451.225 1.01 0 1.511 0"/><path d="m11.995 32.831c0 0 1.154 1.575 1.98 1.505.54-.046.567-1.198 1.109-1.188.524.01.547.983 1.03 1.188.462.197 1.047-.285 1.505-.079.308.138.321.663.634.792.442.183.962-.276 1.426-.158.405.102.614.671 1.03.713.4.04.71-.526 1.109-.475.43.054.598.756 1.03.792.506.043.841-.757 1.346-.713.3.026.419.489.713.554.581.129 1.166-.546 1.743-.396.344.089.44.665.792.713.468.063.804-.724 1.267-.634.588.114.59 1.346 1.188 1.346.599 0 .591-1.312 1.188-1.346.709-.041.877 1.359 1.584 1.426.861.081 1.357-1.434 2.218-1.346.502.051.605 1 1.109 1.03.49.028.698-.909 1.188-.871.372.028.426.72.792.792.337.067.61-.437.95-.396.75.091 1.07 1.418 1.822 1.346.465-.044.488-.968.95-1.03.247-.033.385.376.634.396.543.044.994-.822 1.505-.634.166.061.075.404.238.475.528.232 1.136-.707 1.663-.475.27.119.129.667.396.792.418.196.889-.37 1.346-.317.293.034.497.382.792.396.735.035 1.385-1.086 2.059-.792.261.114.064.661.317.792.506.262 1.105-.512 1.663-.396.258.054.379.404.634.475.511.143 1.073-.301 1.584-.158.254.071.373.431.634.475.519.088.987-.568 1.505-.475.296.053.415.511.713.554.505.074.924-.647 1.426-.554.386.072.489.703.871.792.561.131 1.096-.371 1.663-.475.599-.111 1.257-.389 1.822-.158.225.092.239.494.475.554.575.146 1.07-.632 1.663-.634.451-.001.817.51 1.267.475.483-.037.783-.701 1.267-.713.236-.006.399.287.634.317.617.077 1.239-.613 1.822-.396.371.138.334.835.713.95.535.163 1.036-.442 1.584-.554.778-.159 1.585-.09 2.376-.158.741-.064 1.822-.396 2.218-.238.396.158.59.488.95.554.474.087.961-.364 1.426-.238.597.162.808 1.165 1.426 1.188.454.017.663-.707 1.109-.792.321-.061.95.238.95.238"/><path d="m11.362 34.653l.871 2.218 1.505-.396 2.059 1.109h2.455l2.851.792 1.98.475h2.139l2.139.634 2.059-.079 2.376.317 2.455-.079 1.426.396 2.455.158 1.822.079 1.98.079 2.059.158 2.376-.238 1.98.396 2.376-.158 2.139.396 2.139-.079 2.376.079 2.139.238 1.03.158 1.584-.396 1.743.079 2.455.317c0 0 .158-.554.634-.475.475.079 1.98.238 1.98.238h1.822l1.743.396c0 0 1.267-.238 1.584-.158.317.079 1.743-.079 1.743-.079l1.98-.158 3.089.158h1.346"/><path d="m12.312 36.871c0 0-.023 2.536.871 3.168.605.428 1.477-.193 2.218-.158.481.023.95.158 1.426.238.792.132 1.649.056 2.376.396.441.206.713.871 1.109.95.396.079.579-.197.871-.158.609.081 1.061.673 1.663.792.467.092.95-.158 1.426-.079.475.079 1.692.138 2.535.238.742.088 1.478.218 2.218.317.844.113 1.687.24 2.535.317.948.085 1.9.132 2.851.158.475.013 1.109 0 1.426 0 .317 0 1.471.354 2.218.475.708.115 1.422.213 2.139.238.634.022 1.267-.08 1.901-.079.581.001 1.165.013 1.743.079.72.083 1.414.376 2.139.396.825.023 1.632-.264 2.455-.317.606-.039 1.248-.198 1.822 0 .444.154.64.842 1.109.871.615.039.969-.917 1.584-.95.377-.02.656.419 1.03.475.395.06.789-.132 1.188-.158.501-.033 1 .007 1.505 0 .951-.013 1.915-.246 2.851-.079.42.075.771.388 1.188.475.776.163 1.584.053 2.376.079.792.026 1.584.079 2.376.079.792 0 1.612.132 2.376-.079.262-.073.443-.362.713-.396.623-.079 1.203.368 1.822.475.601.104 1.219.066 1.822.158.722.111 2.139.475 2.139.475 0 0 .396-.792.713-.713.317.079 1.361.355 2.059.396.714.041 1.431-.058 2.139-.158.508-.072 1.012-.177 1.505-.317.378-.107 1.109-.396 1.109-.396"/><path d="m16.906 26.416c0 0 1.298-.027 1.901-.238.671-.234 1.111-1.095 1.822-1.109.815-.016 1.325 1.239 2.139 1.188.49-.031.706-.779 1.188-.871.723-.139 1.418.708 2.139.554.331-.071.465-.548.792-.634.932-.243 1.889.437 2.851.475.927.037 1.868-.029 2.772-.238.358-.083.668-.329 1.03-.396.986-.183 2.01-.062 3.01 0 .85.053 1.695.176 2.535.317.878.148 1.728.462 2.614.554.683.072 1.375-.057 2.059 0 .64.053 1.265.226 1.901.317.658.094 1.319.165 1.98.238.527.058 1.054.141 1.584.158.792.026 1.585-.124 2.376-.079.719.041 1.663.317 2.139.317.475 0 1.265.153 1.901.158.794.007 1.582-.15 2.376-.158.581-.006 1.161.058 1.743.079.95.035 1.902.025 2.851.079.609.035 1.212.162 1.822.158.796-.005 1.58-.242 2.376-.238.478.003 1.03.079 1.426.158.396.079 1.372.076 2.059.079.872.003 1.743-.114 2.614-.079 1.194.048 2.371.33 3.564.396.764.042 1.536-.084 2.297 0 .726.08 1.576.009 2.139.475.31.257.261.769.475 1.109.15.238.378.416.554.634.083.103.238.317.238.317"/><path d="m11.52 35.05c0 0-1.999 1.01-2.772.475-.777-.534.321-2.423-.554-2.772-.809-.323-1.276 1.628-2.139 1.505-.502-.071-.757-.719-.95-1.188-.283-.687-.704-1.639-.238-2.218.467-.579 1.673.269 2.218-.238.649-.603-.241-2.093.475-2.614.797-.579 2.648-.548 2.931.396.231.771-1.718.786-1.822 1.584-.103.792.871 2.059 1.346 1.98.475-.079 1.029-.836 1.267-1.426.238-.588-.185-1.324.079-1.901.241-.526.744-.941 1.267-1.188.554-.262 1.362-.642 1.822-.238.04.035 0 .158 0 .158"/><path d="m12.233 36.95c0 0-1.89 1.124-2.851.871-.704-.185-.79-1.725-1.505-1.584-.861.17-1.686 1.976-.95 2.455.031.02.079-.079.079-.079"/></g></g></svg>
