<?xml version="1.0" encoding="UTF-8" standalone="no"?>
<!-- Created with Inkscape (http://www.inkscape.org/) -->

<svg
   xmlns:dc="http://purl.org/dc/elements/1.1/"
   xmlns:cc="http://creativecommons.org/ns#"
   xmlns:rdf="http://www.w3.org/1999/02/22-rdf-syntax-ns#"
   xmlns:svg="http://www.w3.org/2000/svg"
   xmlns="http://www.w3.org/2000/svg"
   version="1.1"
   width="94.722107"
   height="48"
   id="svg2">
  <metadata
     id="metadata8">
    <rdf:RDF>
      <cc:Work
         rdf:about="">
        <dc:format>image/svg+xml</dc:format>
        <dc:type
           rdf:resource="http://purl.org/dc/dcmitype/StillImage" />
        <dc:title></dc:title>
      </cc:Work>
    </rdf:RDF>
  </metadata>
  <defs
     id="defs6" />
  <g
     transform="translate(-2.6389456,-11)"
     id="g4654">
    <path
       d="m 3.591338,35.102347 c -0.5143474,-3.260549 -0.8101734,-4.691856 1.655308,-6.886651 2.0950519,-1.865032 9.028739,-3.227293 11.796649,-3.891928 1.543373,-0.370598 18.862177,-0.629708 23.487772,-0.729055 2.833179,-0.06085 22.7007,1.052532 25.861104,1.077506 23.356176,0.184564 17.324733,8.993438 17.337791,12.939589 0.01505,4.547537 0.518763,6.715083 -2.503862,8.277987 C 79.711124,46.67314 54.547135,46.600786 47.912393,45.44651 46.798372,45.252698 23.152189,43.471751 22.091178,43.080776 20.081488,42.340219 4.5042834,40.889656 3.591338,35.102347 z"
       id="path2987"
       style="fill:#ffb208;fill-opacity:1;stroke:#000000;stroke-width:1.20000005;stroke-linecap:round;stroke-linejoin:miter;stroke-miterlimit:4;stroke-opacity:1;stroke-dasharray:none" />
    <g
       id="g4643">
      <path
         d="m 83.834859,41.147948 c 0,0 1.167522,2.733493 1.425702,2.296966 0.217543,-0.367819 1.529556,-0.462113 3.72267,-0.871263 0.583244,-0.108811 0.372768,-1.640098 0.950467,-1.504909 2.262562,0.529469 5.385985,0.871263 5.782014,0.237618 0.396029,-0.633646 1.164496,-2.227504 1.029673,-3.405846 -0.162679,-1.421794 -0.93999,-2.940744 -2.138554,-3.722668 -1.245378,-0.812465 -2.936985,0.189729 -4.11869,-0.712851 -0.518212,-0.395808 -0.473445,-1.243798 -1.029674,-1.584114 -0.679001,-0.415433 -2.059352,0.316823 -2.376174,0.237617 -0.316822,-0.07921 -2.899592,-1.606105 -2.851401,-0.633646 0.181286,3.658304 -0.316827,10.138331 -0.316827,10.138331 l 0,0"
         id="path3833"
         style="fill:#a0823f;fill-opacity:1;stroke:#000000;stroke-width:1.20000005;stroke-linecap:butt;stroke-linejoin:miter;stroke-miterlimit:4;stroke-opacity:1;stroke-dasharray:none" />
      <path
         d="m 12.146979,32.873539 c 0.50373,-0.906715 0.906714,-1.914174 2.115666,-2.820888 0.50373,0.16791 1.00746,0.33582 1.51119,0.503729 0.402984,0.302239 0.805968,0.604476 1.208952,0.906715 0.638059,-0.100746 1.276117,-0.201493 1.914175,-0.302239 0.67164,0.134329 1.34328,0.268656 2.01492,0.402984 0.537312,-0.03358 1.074624,-0.06716 1.611936,-0.100745 0.436566,0.06716 0.873132,0.134327 1.309698,0.201491 0.470148,0.235074 0.940296,0.470148 1.410444,0.705223 0.470148,-0.16791 0.940296,-0.33582 1.410444,-0.50373 0.567234,-0.739481 1.756554,0.284575 2.216412,0.302238 0.604476,0 2.115667,-0.402984 2.115667,-0.402984 1.041042,-0.03358 1.276116,0.03358 2.317158,-10e-7 0,0 0.705222,0.604477 1.611936,0.604477 0.906714,0 2.820888,0.100746 2.820888,0.100746 0,0 1.611936,0.402984 2.51865,0.604476 0.906715,0.201492 2.720143,-0.402984 2.720143,-0.402984 0,0 2.216412,0.100746 2.720142,0.100746 0.50373,0 1.51119,-0.604476 1.51119,-0.604476 0.604476,0.235074 1.208952,0.470147 1.813428,0.705222 0.436566,-0.03358 0.873132,-0.06717 1.309698,-0.100746 0,0 1.51119,0.50373 1.914174,0.402984 0.402984,-0.100746 3.223872,-0.201493 3.223872,-0.201493 1.041043,0.134329 2.082084,0.268656 3.123127,0.402984 1.141788,-0.06716 2.283576,-0.134327 3.425364,-0.201491 1.208952,0 2.417904,0 3.626856,0 0,0 1.813428,-0.906714 2.216412,-0.604477 0.402985,0.302239 2.417905,0.805968 3.123127,0.906715 0.705222,0.100746 2.317158,-0.201492 2.317158,-0.201492 0,0 2.820888,0.604476 3.425364,0.604476 0.604476,0 1.914174,-0.503731 2.417904,-0.402984 0.50373,0.100746 3.929095,-0.201492 3.929095,-0.201492 0.235073,0.134328 0.470149,0.268655 0.705222,0.402984"
         id="path3819"
         style="fill:none;stroke:#dd9800;stroke-width:1.20000005;stroke-linecap:butt;stroke-linejoin:miter;stroke-miterlimit:4;stroke-opacity:1;stroke-dasharray:none" />
      <path
         d="m 14.061153,29.951904 c 0,-0.772386 -0.32888,-1.618289 0,-2.317158 0.277639,-0.589982 0.967474,-1.009058 1.611936,-1.108206 0.405154,-0.06233 0.625926,0.555333 1.00746,0.705222 0.576342,0.22642 1.222394,0.218286 1.813429,0.402984 0.488222,0.152569 0.899242,0.586848 1.410444,0.604476 0.530663,0.0183 0.982392,-0.551802 1.51119,-0.50373 0.331079,0.0301 0.372777,0.705222 0.705222,0.705222 0.495832,0 0.823494,-0.802463 1.309698,-0.705222 0.558838,0.111768 0.651697,1.08954 1.208952,1.208952 0.561111,0.120238 1.051343,-0.481846 1.611936,-0.604476 0.525924,-0.115045 1.087363,-0.221801 1.611936,-0.100746 0.399423,0.09217 0.597927,0.723028 1.00746,0.705222 0.512123,-0.02227 0.797092,-0.805968 1.309699,-0.805968 0.300366,0 0.102957,0.791682 0.402984,0.805968 0.616698,0.02937 1.09725,-0.655987 1.712682,-0.705222 0.315803,-0.02526 0.496387,0.571031 0.805968,0.50373 0.59159,-0.128606 0.908268,-0.952649 1.51119,-1.00746 0.355515,-0.03232 0.361976,0.40566 0.705222,0.50373 0.456648,0.130471 0.93919,0.04184 1.410444,0.100746 0.149024,0.01863 0.05131,0.402984 0.201492,0.402984 0.488961,0 0.941041,-0.539893 1.410444,-0.402984 0.479263,0.139785 0.512421,1.043636 1.00746,1.108206 0.508301,0.0663 0.7994,-0.854568 1.309698,-0.805968 0.428123,0.04078 0.384949,0.919748 0.805968,1.00746 0.551105,0.114814 1.050537,-0.545315 1.611936,-0.50373 0.43666,0.03234 0.670846,0.684396 1.108207,0.705222 0.391187,0.01863 0.61583,-0.604476 1.00746,-0.604476 0.701212,0 1.314787,0.56558 2.01492,0.604476 0.552996,0.03072 1.067347,-0.503834 1.611936,-0.402984 0.469311,0.08691 0.631367,0.885982 1.108206,0.906714 0.483869,0.02104 0.724626,-0.805968 1.208952,-0.805968 0.379937,0 0.427344,0.83752 0.805968,0.805968 0.631436,-0.05262 0.978664,-0.986351 1.611937,-1.00746 0.558605,-0.01862 0.865426,0.782847 1.410444,0.906714 0.292897,0.06657 0.513293,-0.470524 0.805968,-0.402984 0.281485,0.06496 0.214846,0.705222 0.50373,0.705222 0.555881,0 0.955597,-0.6873 1.511189,-0.705222 0.573552,-0.0185 1.038087,0.604477 1.611937,0.604477 0.262284,0 0.242747,-0.630575 0.50373,-0.604477 0.568061,0.05681 0.944363,0.737949 1.51119,0.805968 0.372784,0.04473 0.632833,-0.478754 1.00746,-0.50373 0.214553,-0.0143 0.288969,0.413722 0.50373,0.402984 0.530316,-0.02651 0.98147,-0.540262 1.51119,-0.503729 0.524396,0.03617 0.88571,0.674355 1.410444,0.705221 0.691116,0.04066 1.328683,-0.595228 2.01492,-0.50373 0.447837,0.05971 0.557359,0.945853 1.00746,0.906714 0.569731,-0.04954 0.748923,-0.99605 1.309698,-1.108205 0.583519,-0.116704 1.117608,0.503729 1.712683,0.503729 0.595074,0 1.12528,-0.408476 1.712682,-0.503729 0.663808,-0.107644 1.346873,-0.177829 2.01492,-0.100747 0.240567,0.02776 0.365998,0.445069 0.604476,0.402984 0.431193,-0.07609 0.672387,-0.663045 1.108206,-0.705222 0.681756,-0.06598 1.345449,0.258234 2.01492,0.402985 0.573238,0.123943 1.215342,0.09215 1.712681,0.402984 0.371301,0.232063 0.313595,0.912391 0.705226,1.108205 0.45055,0.225274 1.007459,0 1.511188,0"
         id="path3821"
         style="fill:none;stroke:#dd9800;stroke-width:1.20000005;stroke-linecap:butt;stroke-linejoin:miter;stroke-miterlimit:4;stroke-opacity:1;stroke-dasharray:none" />
      <path
         d="m 11.995285,32.83135 c 0,0 1.154099,1.57529 1.980142,1.504908 0.539767,-0.04599 0.56725,-1.198063 1.10888,-1.188086 0.523974,0.0097 0.547403,0.983012 1.029674,1.188086 0.462273,0.19657 1.046593,-0.284832 1.504909,-0.07921 0.308484,0.138404 0.321273,0.662668 0.633645,0.792057 0.441762,0.182984 0.962108,-0.275525 1.425703,-0.158411 0.404736,0.102244 0.614323,0.67104 1.029674,0.712851 0.40012,0.04028 0.709896,-0.525532 1.10888,-0.475234 0.429623,0.05416 0.598192,0.755554 1.029674,0.792057 0.506043,0.04281 0.840571,-0.757015 1.346497,-0.712851 0.299888,0.02618 0.418999,0.489104 0.712852,0.55444 0.581455,0.129282 1.166083,-0.546089 1.742525,-0.396029 0.343745,0.08948 0.440068,0.665192 0.792057,0.712851 0.468021,0.06337 0.803686,-0.723809 1.267291,-0.633645 0.587564,0.11427 0.589513,1.346497 1.188086,1.346497 0.598573,0 0.590503,-1.312098 1.188086,-1.346497 0.709228,-0.04083 0.87682,1.35932 1.584114,1.425702 0.861054,0.08081 1.35736,-1.434008 2.217759,-1.346497 0.501819,0.05104 0.605316,1.000529 1.10888,1.029674 0.490284,0.02838 0.698412,-0.908709 1.188086,-0.871262 0.372292,0.02847 0.425776,0.719597 0.792057,0.792057 0.3367,0.06661 0.609747,-0.437409 0.950468,-0.396029 0.749605,0.09104 1.069983,1.4177 1.821732,1.346497 0.465016,-0.04404 0.48752,-0.967553 0.950468,-1.029674 0.246863,-0.03312 0.385368,0.376115 0.633646,0.396029 0.542547,0.04352 0.994428,-0.822485 1.504908,-0.633646 0.166109,0.06145 0.0755,0.403919 0.237617,0.475234 0.527814,0.232186 1.135506,-0.70742 1.66332,-0.475234 0.270195,0.118859 0.128714,0.666854 0.396029,0.792057 0.417557,0.195574 0.888521,-0.370317 1.346496,-0.316823 0.293189,0.03425 0.497219,0.381796 0.792058,0.396029 0.734616,0.03546 1.385289,-1.086274 2.059348,-0.792057 0.260613,0.113753 0.06437,0.661182 0.316823,0.792057 0.505986,0.262312 1.105301,-0.511982 1.66332,-0.396029 0.258497,0.05371 0.379327,0.404325 0.633645,0.475235 0.511174,0.142526 1.072941,-0.300939 1.584114,-0.158412 0.254319,0.07091 0.37338,0.430877 0.633646,0.475234 0.518576,0.08838 0.987127,-0.568161 1.504908,-0.475234 0.296294,0.05318 0.414986,0.510921 0.712852,0.55444 0.504548,0.07372 0.924354,-0.647464 1.425702,-0.55444 0.385906,0.0716 0.489085,0.70267 0.871263,0.792057 0.561474,0.131322 1.096272,-0.370572 1.66332,-0.475234 0.59941,-0.110635 1.257439,-0.388861 1.821731,-0.158411 0.225346,0.09203 0.239334,0.494431 0.475235,0.554439 0.574996,0.146267 1.070012,-0.6321 1.663319,-0.633645 0.451155,-0.0012 0.817465,0.509853 1.267291,0.475234 0.483246,-0.03719 0.782761,-0.70104 1.267292,-0.712851 0.236075,-0.0058 0.399336,0.28743 0.633645,0.316823 0.616595,0.07735 1.239403,-0.612973 1.821732,-0.396029 0.371111,0.138256 0.333966,0.83521 0.712851,0.950468 0.535229,0.16282 1.036,-0.442406 1.584114,-0.554439 0.777735,-0.158969 1.585335,-0.08971 2.376171,-0.158412 0.740695,-0.06434 1.821732,-0.396029 2.21776,-0.237617 0.396028,0.158411 0.589704,0.488246 0.950468,0.55444 0.473879,0.08695 0.960705,-0.363707 1.425701,-0.237617 0.597055,0.161899 0.807515,1.165051 1.425703,1.188086 0.453918,0.01691 0.662617,-0.707326 1.10888,-0.792058 0.32084,-0.06092 0.950471,0.237617 0.950471,0.237617"
         id="path3823"
         style="fill:none;stroke:#dd9800;stroke-width:1.20000005;stroke-linecap:butt;stroke-linejoin:miter;stroke-miterlimit:4;stroke-opacity:1;stroke-dasharray:none" />
      <path
         d="m 11.361639,34.653081 0.871263,2.217759 1.504908,-0.396028 2.059349,1.10888 2.455376,0 2.851406,0.792057 1.980142,0.475234 2.138554,0 2.138554,0.633646 2.059349,-0.07921 2.376171,0.316823 2.455377,-0.07921 1.425703,0.396029 2.455376,0.158411 1.821732,0.07921 1.980142,0.07921 2.059348,0.158411 2.376172,-0.237617 1.980142,0.396028 2.376171,-0.158411 2.138554,0.396028 2.138555,-0.07921 2.376171,0.07921 2.138554,0.237617 1.029674,0.158412 1.584114,-0.396029 1.742525,0.07921 2.455377,0.316823 c 0,0 0.158412,-0.55444 0.633646,-0.475234 0.475234,0.07921 1.980143,0.237617 1.980143,0.237617 l 1.821731,0 1.742525,0.396028 c 0,0 1.267292,-0.237617 1.584114,-0.158411 0.316823,0.07921 1.742526,-0.07921 1.742526,-0.07921 l 1.980143,-0.158411 3.089023,0.158411 1.346496,0"
         id="path3825"
         style="fill:none;stroke:#dd9800;stroke-width:1.20000005;stroke-linecap:butt;stroke-linejoin:miter;stroke-miterlimit:4;stroke-opacity:1;stroke-dasharray:none" />
      <path
         d="m 12.312108,36.87084 c 0,0 -0.02298,2.535795 0.871262,3.168229 0.605101,0.427945 1.477439,-0.193173 2.21776,-0.158412 0.481259,0.0226 0.950468,0.158411 1.425703,0.237617 0.792057,0.13201 1.64861,0.05627 2.376171,0.396029 0.441101,0.205987 0.712851,0.871263 1.10888,0.950468 0.396028,0.07921 0.578659,-0.197345 0.871263,-0.158411 0.608727,0.081 1.060801,0.673392 1.663319,0.792057 0.466996,0.09198 0.950469,-0.158412 1.425703,-0.07921 0.475234,0.07921 1.691887,0.137983 2.534583,0.237617 0.741593,0.08768 1.477608,0.217704 2.217759,0.316823 0.843902,0.113014 1.686587,0.240359 2.534583,0.316823 0.948087,0.08549 1.899838,0.131999 2.851405,0.158411 0.475052,0.01319 1.10888,0 1.425703,0 0.316823,0 1.471487,0.354132 2.21776,0.475235 0.707976,0.114889 1.421743,0.212872 2.138554,0.237617 0.633818,0.02188 1.266742,-0.0804 1.900937,-0.07921 0.58144,0.0011 1.164875,0.01291 1.742525,0.07921 0.720244,0.08266 1.413855,0.376171 2.138554,0.396028 0.824935,0.0226 1.631831,-0.26391 2.455377,-0.316822 0.605994,-0.03894 1.247843,-0.198487 1.821731,0 0.444252,0.15365 0.639733,0.841773 1.10888,0.871262 0.61458,0.03863 0.969219,-0.917228 1.584114,-0.950468 0.377467,-0.02041 0.655897,0.418771 1.029674,0.475234 0.395052,0.05968 0.78943,-0.131951 1.188086,-0.158411 0.500535,-0.03322 1.003321,0.007 1.504908,0 0.950744,-0.0132 1.915321,-0.246035 2.851406,-0.07921 0.419919,0.07484 0.770648,0.387606 1.188085,0.475234 0.775593,0.162811 1.584114,0.0528 2.376171,0.07921 0.792057,0.0264 1.583675,0.07921 2.376172,0.07921 0.792497,0 1.61243,0.132338 2.376171,-0.07921 0.261961,-0.07256 0.44318,-0.36188 0.712851,-0.396029 0.622594,-0.07884 1.203314,0.368468 1.821731,0.475235 0.60065,0.103699 1.219289,0.06569 1.821732,0.158411 0.721742,0.111077 2.138553,0.475234 2.138553,0.475234 0,0 0.396029,-0.792057 0.712852,-0.712851 0.316823,0.07921 1.361497,0.35549 2.059348,0.396028 0.713602,0.04145 1.430815,-0.05816 2.138554,-0.158411 0.507567,-0.0719 1.011574,-0.177491 1.504908,-0.316823 0.377717,-0.106678 1.10888,-0.396028 1.10888,-0.396028"
         id="path3827"
         style="fill:none;stroke:#dd9800;stroke-width:1.20000005;stroke-linecap:butt;stroke-linejoin:miter;stroke-miterlimit:4;stroke-opacity:1;stroke-dasharray:none" />
      <path
         d="m 16.906039,26.415687 c 0,0 1.297978,-0.02733 1.900936,-0.237617 0.671241,-0.234103 1.110979,-1.094773 1.821732,-1.10888 0.815312,-0.01618 1.32469,1.239284 2.138554,1.188086 0.490134,-0.03083 0.705777,-0.778737 1.188085,-0.871263 0.723231,-0.138744 1.418396,0.708338 2.138554,0.55444 0.330644,-0.07066 0.464864,-0.548426 0.792057,-0.633646 0.93247,-0.242868 1.888591,0.436874 2.851405,0.475235 0.92672,0.03692 1.868401,-0.02949 2.7722,-0.237618 0.358357,-0.08252 0.668118,-0.328895 1.029674,-0.396028 0.986413,-0.183154 2.008484,-0.06234 3.009817,0 0.849791,0.05291 1.694948,0.175554 2.534583,0.316823 0.878304,0.147775 1.727999,0.461526 2.613788,0.55444 0.682704,0.07161 1.375238,-0.05662 2.059349,0 0.640197,0.05298 1.265042,0.225726 1.900936,0.316823 0.658065,0.09427 1.319345,0.164936 1.980143,0.237617 0.527491,0.05802 1.053735,0.14081 1.584114,0.158411 0.792061,0.02628 1.584956,-0.124258 2.376171,-0.07921 0.719467,0.04097 1.66332,0.316823 2.138554,0.316823 0.475234,0 1.265117,0.153143 1.900937,0.158412 0.793788,0.0066 1.582401,-0.150019 2.376172,-0.158412 0.581408,-0.0061 1.161473,0.05793 1.742525,0.07921 0.950199,0.03479 1.902128,0.0248 2.851405,0.07921 0.608537,0.03488 1.212209,0.162352 1.821731,0.158411 0.795991,-0.0051 1.580176,-0.241991 2.376172,-0.237617 0.478151,0.0026 1.029674,0.07921 1.425702,0.158412 0.396029,0.07921 1.372397,0.07641 2.059349,0.07921 0.871655,0.0035 1.742829,-0.114221 2.613788,-0.07921 1.194432,0.04802 2.370689,0.329922 3.564256,0.396028 0.764484,0.04234 1.535882,-0.08355 2.296966,0 0.725881,0.07968 1.576423,0.0091 2.138555,0.475234 0.309565,0.256687 0.260985,0.768562 0.475232,1.10888 0.149522,0.23751 0.377712,0.41562 0.554442,0.633646 0.08313,0.10255 0.237616,0.316822 0.237616,0.316822"
         id="path3831"
         style="fill:none;stroke:#dd9800;stroke-width:1.20000005;stroke-linecap:butt;stroke-linejoin:miter;stroke-miterlimit:4;stroke-opacity:1;stroke-dasharray:none" />
      <path
         d="m 11.520051,35.049109 c 0,0 -1.9993696,1.006013 -2.7722,0.475234 C 7.9710474,34.990835 9.0685195,33.101771 8.1934108,32.752144 7.3839598,32.428748 6.9178169,34.379916 6.0548567,34.257052 5.5527562,34.185566 5.2975526,33.537905 5.1043884,33.068966 4.8212167,32.38152 4.4000472,31.429944 4.8667714,30.851207 5.3334957,30.272469 6.5399439,31.119745 7.0845309,30.61359 7.7331757,30.010719 6.8433391,28.520307 7.5597652,27.999802 c 0.7974927,-0.579403 2.6480628,-0.54836 2.9306108,0.396028 0.230659,0.770951 -1.7182595,0.786077 -1.8217308,1.584114 -0.1026327,0.791568 0.8712629,2.059348 1.3464968,1.980143 0.475234,-0.07921 1.029001,-0.836201 1.267292,-1.425703 0.237673,-0.587976 -0.184967,-1.324381 0.0792,-1.900937 0.241197,-0.526412 0.743757,-0.940703 1.267291,-1.188086 0.553686,-0.26163 1.361556,-0.641667 1.821732,-0.237616 0.03968,0.03484 0,0.158411 0,0.158411"
         id="path3835"
         style="fill:none;stroke:#dd9800;stroke-width:1.20000005;stroke-linecap:butt;stroke-linejoin:miter;stroke-miterlimit:4;stroke-opacity:1;stroke-dasharray:none" />
      <path
         d="m 12.232902,36.950046 c 0,0 -1.89026,1.124114 -2.8514055,0.871263 -0.704363,-0.185299 -0.7904132,-1.725393 -1.5049085,-1.584114 -0.8609699,0.170242 -1.685845,1.976343 -0.9504683,2.455376 0.031285,0.02038 0.079206,-0.07921 0.079206,-0.07921"
         id="path3837"
         style="fill:none;stroke:#dd9800;stroke-width:1.20000005;stroke-linecap:butt;stroke-linejoin:miter;stroke-miterlimit:4;stroke-opacity:1;stroke-dasharray:none" />
    </g>
  </g>
</svg>
