<svg xmlns="http://www.w3.org/2000/svg" width="61.805" height="70"><g stroke="#000"><path d="m.876 36.816c-1.113-7.642 1.876-16.633 7.644-21.768 4.901-4.363 11.546-5.854 18.02-7.409 3.611-.867 12.11-.19 15.737.605 6.476 1.42 10.03 4.437 14.541 10.299 2.485 3.233 3.763 8.784 4.265 12.83 1.31 10.558-2.173 26.449-12.693 32.33-3.483 1.947-5.761 4-14.771 5.327-2.617.384-11.437-.227-13.741-1.528-14.651-8.275-17.05-17.278-19-30.685z" fill="#eba319" stroke-linecap="round" stroke-width="1.236"/><path d="m39.704 15.356l2.075 3.182-2.352 1.937 3.735.138 4.565 2.49-1.66-3.458 5.395-.83c-7.458.439-2.306-3.551-5.188-4.01-2.283 4.15-6.571.553-6.571.553z" fill="#9a6a0d"/></g></svg>
