<svg xmlns="http://www.w3.org/2000/svg" width="61.805" height="70"><defs><radialGradient cx="32" cy="38.32" r="25.51" id="0" gradientUnits="userSpaceOnUse" gradientTransform="matrix(1 0 0 1.09007 0-3.452)"><stop stop-color="#d1d29c"/><stop offset="1" stop-color="#a09049"/></radialGradient></defs><path d="m7.24 47.19c-1.203-7.628 6.354-19.933 12.12-25.07 4.901-4.363 7.688-7.079 14.163-8.634 3.611-.867 7.483-2.972 11.11-2.177 6.476 1.42 7.678 2.551 10.299 9.591 1.422 3.821 2.903 6.768 1.201 10.474-8.193 17.838-12.313 22.473-15.285 24.787-3.148 2.451-8.717 9.131-13.592 9.333-3.588.149-8.43-.613-10.912-1.528-4.702-1.732-6.969-3.24-9.104-16.78z" fill="url(#0)" stroke="#000" stroke-linecap="round" stroke-width="1.236"/><g fill="#7a6d37"><path d="m51.14 15.08c1.178 2.121 1.414 10.842 1.414 10.842-.707 1.65 0 6.364-.707 8.01-1.178 2.985-3.064 2.435-4.242 5.421-1.728 2.278-2.75 8.092-4.478 10.37-2.671 1.336-5.342 2.671-8.01 4.01 0 0-1.65 5.421-1.886 6.128-.236.707-6.599 3.064-6.599 3.064-3.771-.471-7.542-.943-11.313-1.414-.393.157-.786.314-1.178.471 1.1.786 2.2 1.571 3.3 2.357 3.928.314 7.558 1.325 11.785.943 4.321-3.3 8.343-6.599 12.664-9.899 4.824-5.709 7.558-12.314 11.486-18.52.681-2.572 2.456-5.442 3.635-8.113-1.178-4.01-2.158-7.715-3.336-11.722-.943-.55-1.587-1.398-2.53-1.948"/><path d="m37.71 17.441c1.181-.861 3.927 1.185 3.535 2.593-.232.836-1.866.711-2.593.236-.832-.544-1.746-2.243-.943-2.828"/><path d="m27.34 45.49c.212.971 1.977 1.455 2.828.943 1.228-.739 1.97-3.565.707-4.242-1.42-.762-3.879 1.725-3.535 3.3"/><path d="m15.32 51.616c-.607.691.089 2.252.943 2.593 1.142.455 3.45-.429 3.3-1.65-.177-1.438-3.287-2.032-4.242-.943"/></g></svg>
