<?xml version="1.0" encoding="UTF-8" standalone="no"?>
<!-- Created with Inkscape (http://www.inkscape.org/) -->

<svg
   xmlns:dc="http://purl.org/dc/elements/1.1/"
   xmlns:cc="http://creativecommons.org/ns#"
   xmlns:rdf="http://www.w3.org/1999/02/22-rdf-syntax-ns#"
   xmlns:svg="http://www.w3.org/2000/svg"
   xmlns="http://www.w3.org/2000/svg"
   xmlns:xlink="http://www.w3.org/1999/xlink"
   version="1.1"
   width="61.804596"
   height="70"
   id="svg2">
  <metadata
     id="metadata8">
    <rdf:RDF>
      <cc:Work
         rdf:about="">
        <dc:format>image/svg+xml</dc:format>
        <dc:type
           rdf:resource="http://purl.org/dc/dcmitype/StillImage" />
        <dc:title></dc:title>
      </cc:Work>
    </rdf:RDF>
  </metadata>
  <defs
     id="defs6">
    <linearGradient
       id="linearGradient3838">
      <stop
         id="stop3840"
         style="stop-color:#d1d29c;stop-opacity:1"
         offset="0" />
      <stop
         id="stop3842"
         style="stop-color:#a09049;stop-opacity:1"
         offset="1" />
    </linearGradient>
    <radialGradient
       cx="32.004715"
       cy="38.321983"
       r="25.510496"
       fx="32.004715"
       fy="38.321983"
       id="radialGradient3844"
       xlink:href="#linearGradient3838"
       gradientUnits="userSpaceOnUse"
       gradientTransform="matrix(1,0,0,1.090071,0,-3.4517012)" />
  </defs>
  <g
     id="g3854">
    <path
       d="M 7.2400657,47.185914 C 6.0367745,39.558023 13.593854,27.253323 19.361731,22.118712 c 4.901268,-4.36315 7.687937,-7.078708 14.163325,-8.633591 3.610643,-0.866994 7.48298,-2.972299 11.11008,-2.176967 6.475754,1.419971 7.678094,2.551004 10.298736,9.591477 1.422457,3.821495 2.902517,6.768035 1.200625,10.47354 -8.192922,17.838338 -12.312992,22.472909 -15.285273,24.78681 -3.148398,2.451008 -8.717482,9.131032 -13.59231,9.333328 C 23.668871,65.642207 18.826608,64.880194 16.344425,63.965527 11.642856,62.233032 9.3758469,60.725035 7.2400657,47.185914 z"
       id="path2987"
       style="fill:url(#radialGradient3844);fill-opacity:1;stroke:#000000;stroke-width:1.23647749;stroke-linecap:round;stroke-linejoin:miter;stroke-miterlimit:4;stroke-opacity:1;stroke-dasharray:none" />
    <path
       d="m 51.144781,15.084175 c 1.178451,2.121212 1.414142,10.841751 1.414142,10.841751 -0.707071,1.649832 0,6.363636 -0.707071,8.013468 -1.178451,2.98541 -3.063973,2.435466 -4.242425,5.420875 -1.728395,2.278339 -2.749719,8.092032 -4.478114,10.370371 -2.671156,1.335578 -5.342312,2.671156 -8.013468,4.006734 0,0 -1.649832,5.420875 -1.885522,6.127946 -0.23569,0.707071 -6.599326,3.063973 -6.599326,3.063973 -3.771044,-0.47138 -7.542088,-0.942761 -11.313132,-1.414141 -0.392817,0.157127 -0.785634,0.314253 -1.178451,0.47138 1.099888,0.785634 2.199775,1.571268 3.299663,2.356902 3.928171,0.314254 7.557862,1.324957 11.784512,0.942761 4.320988,-3.299663 8.343496,-6.599327 12.664484,-9.89899 4.823607,-5.709045 7.557863,-12.313526 11.486034,-18.520035 0.680987,-2.571663 2.456396,-5.441805 3.634847,-8.112961 -1.178451,-4.006734 -2.157918,-7.714989 -3.336369,-11.721723 -0.942761,-0.549944 -1.587043,-1.398367 -2.529804,-1.948311 z"
       id="path3846"
       style="fill:#7a6d37;fill-opacity:1;stroke:none" />
    <path
       d="m 37.710438,17.441077 c 1.180909,-0.860836 3.926616,1.184581 3.535353,2.592593 -0.232333,0.836081 -1.866359,0.710658 -2.592592,0.23569 -0.83168,-0.543932 -1.745803,-2.242897 -0.942761,-2.828283 z"
       id="path3848"
       style="fill:#7a6d37;fill-opacity:1;stroke:none" />
    <path
       d="m 27.340067,45.488215 c 0.211617,0.970964 1.976926,1.455347 2.828283,0.942761 1.228213,-0.739484 1.970329,-3.564542 0.707071,-4.242424 -1.420401,-0.762207 -3.87862,1.724649 -3.535354,3.299663 z"
       id="path3850"
       style="fill:#7a6d37;fill-opacity:1;stroke:none" />
    <path
       d="m 15.319865,51.616162 c -0.606584,0.691121 0.08852,2.252201 0.942761,2.592592 1.14236,0.455199 3.449914,-0.429333 3.299664,-1.649831 -0.176999,-1.437784 -3.286837,-2.031524 -4.242425,-0.942761 z"
       id="path3852"
       style="fill:#7a6d37;fill-opacity:1;stroke:none" />
  </g>
</svg>
