<?xml version="1.0" encoding="UTF-8" standalone="no"?>
<!-- Created with Inkscape (http://www.inkscape.org/) -->

<svg
   xmlns:dc="http://purl.org/dc/elements/1.1/"
   xmlns:cc="http://creativecommons.org/ns#"
   xmlns:rdf="http://www.w3.org/1999/02/22-rdf-syntax-ns#"
   xmlns:svg="http://www.w3.org/2000/svg"
   xmlns="http://www.w3.org/2000/svg"
   version="1.1"
   width="105"
   height="79.034157"
   id="svg2">
  <defs
     id="defs4" />
  <metadata
     id="metadata7">
    <rdf:RDF>
      <cc:Work
         rdf:about="">
        <dc:format>image/svg+xml</dc:format>
        <dc:type
           rdf:resource="http://purl.org/dc/dcmitype/StillImage" />
        <dc:title></dc:title>
      </cc:Work>
    </rdf:RDF>
  </metadata>
  <g
     transform="matrix(0.51048536,0,0,0.51048536,-100.77824,-324.91375)"
     id="layer1">
    <g
       id="g4019">
      <path
         d="m 252.67368,680.47549 c -5.6,3.97562 -14.341,10.85861 -14.2829,17.72608 0.057,6.7341 6.78202,12.7895 12.94021,15.51496 13.1791,5.83273 33.79614,9.09447 43.19772,-1.82892 9.50365,-11.04199 9.18962,-19.31931 -3.14804,-27.06703 -11.54786,-7.25177 -27.58807,-12.2388 -38.70699,-4.34509 z"
         id="path2985"
         style="fill:#421c09;fill-opacity:1;stroke:#000000;stroke-width:1px;stroke-linecap:butt;stroke-linejoin:miter;stroke-opacity:1" />
      <path
         d="M 382.85714,752.36218 z"
         id="path2989"
         style="fill:none;stroke:#000000;stroke-width:1px;stroke-linecap:butt;stroke-linejoin:miter;stroke-opacity:1" />
      <path
         d="m 379.31535,736.28056 c -3.47385,-1.62301 -8.98701,-3.99648 -9.87758,-2.34909 -0.87329,1.6154 1.84596,6.12044 4.71416,9.58032 6.1382,7.40443 16.52699,17.60404 22.92893,19.32605 6.47146,1.74069 7.41673,-0.3565 1.97723,-7.82805 -5.09131,-6.99326 -12.84535,-15.50671 -19.74274,-18.72923 z"
         id="path2985-0"
         style="fill:#f7e9a3;fill-opacity:1;stroke:#000000;stroke-width:1;stroke-linecap:butt;stroke-linejoin:miter;stroke-miterlimit:4;stroke-opacity:1;stroke-dasharray:none" />
      <path
         d="m 325.74112,744.01746 c -3.41607,1.74133 -8.67799,4.62933 -7.92655,6.34466 0.73684,1.68202 5.96158,2.30803 10.45371,2.17386 9.61357,-0.28715 24.0452,-2.20733 29.33994,-6.1968 5.35223,-4.0328 4.27972,-6.06786 -4.95712,-6.37297 -8.64555,-0.28557 -20.1273,0.59381 -26.90998,4.05125 z"
         id="path2985-0-8"
         style="fill:#f7e9a3;fill-opacity:1;stroke:#000000;stroke-width:1;stroke-linecap:butt;stroke-linejoin:miter;stroke-miterlimit:4;stroke-opacity:1;stroke-dasharray:none" />
      <path
         d="m 245.235,725.61619 c -3.66794,-1.11716 -9.46061,-2.68984 -10.11008,-0.93336 -0.63687,1.72235 2.69022,5.79914 6.01746,8.82019 7.1206,6.46532 18.84333,15.09877 25.42407,15.90122 6.65221,0.81115 7.29244,-1.39834 0.85411,-8.02859 -6.02619,-6.20581 -14.90281,-13.54131 -22.18556,-15.75946 z"
         id="path2985-0-5"
         style="fill:#f7e9a3;fill-opacity:1;stroke:#000000;stroke-width:1;stroke-linecap:butt;stroke-linejoin:miter;stroke-miterlimit:4;stroke-opacity:1;stroke-dasharray:none" />
      <path
         d="m 361.19912,755.05513 c -3.82548,0.2597 -9.79885,0.84895 -9.7815,2.72157 0.017,1.83625 4.576,4.46403 8.75985,6.10497 8.95381,3.51177 22.97989,7.41407 29.41605,5.82475 6.50606,-1.60658 6.31903,-3.89935 -2.05571,-7.8078 -7.83864,-3.65825 -18.74311,-7.35912 -26.33869,-6.84349 z"
         id="path2985-0-3"
         style="fill:#f7e9a3;fill-opacity:1;stroke:#000000;stroke-width:1;stroke-linecap:butt;stroke-linejoin:miter;stroke-miterlimit:4;stroke-opacity:1;stroke-dasharray:none" />
      <path
         d="m 311.8586,771.77988 c -3.30911,1.93688 -8.39433,5.12576 -7.54448,6.79452 0.83333,1.63637 6.08562,1.95772 10.56237,1.56275 9.58064,-0.84528 23.8763,-3.60081 28.93028,-7.8912 5.10885,-4.33699 3.9199,-6.30629 -5.31906,-6.07415 -8.64754,0.21728 -20.05879,1.76235 -26.62911,5.60808 z"
         id="path2985-0-38"
         style="fill:#f7e9a3;fill-opacity:1;stroke:#000000;stroke-width:1;stroke-linecap:butt;stroke-linejoin:miter;stroke-miterlimit:4;stroke-opacity:1;stroke-dasharray:none" />
      <path
         d="m 231.66805,755.75184 c -3.82319,0.29162 -9.79143,0.93069 -9.75846,2.8031 0.0323,1.83605 4.6131,4.42569 8.81049,6.03167 8.9828,3.43692 23.04096,7.22204 29.46364,5.57908 6.49242,-1.66082 6.28626,-3.95194 -2.1208,-7.79038 -7.86889,-3.59271 -18.80386,-7.20246 -26.39487,-6.62347 z"
         id="path2985-0-37"
         style="fill:#f7e9a3;fill-opacity:1;stroke:#000000;stroke-width:1;stroke-linecap:butt;stroke-linejoin:miter;stroke-miterlimit:4;stroke-opacity:1;stroke-dasharray:none" />
      <path
         d="m 256.66995,772.40526 c -3.21689,2.08649 -8.15063,5.50505 -7.2252,7.13312 0.90744,1.59645 6.16894,1.67678 10.62288,1.07707 9.53184,-1.28342 23.68622,-4.69116 28.53827,-9.20864 4.90474,-4.56655 3.6268,-6.4793 -5.59181,-5.82403 -8.6285,0.61334 -19.95696,2.6797 -26.34414,6.82248 z"
         id="path2985-0-9"
         style="fill:#f7e9a3;fill-opacity:1;stroke:#000000;stroke-width:1;stroke-linecap:butt;stroke-linejoin:miter;stroke-miterlimit:4;stroke-opacity:1;stroke-dasharray:none" />
      <path
         d="m 273.13386,754.2848 c -2.58834,2.82883 -6.50311,7.37888 -5.19778,8.72169 1.27996,1.31675 6.39237,0.0705 10.55209,-1.63064 8.90218,-3.64065 21.74361,-10.50043 25.3028,-16.09349 3.59782,-5.65381 1.87969,-7.18344 -6.87741,-4.22955 -8.19652,2.76481 -18.64049,7.6153 -23.7797,13.23199 z"
         id="path2985-0-378"
         style="fill:#f7e9a3;fill-opacity:1;stroke:#000000;stroke-width:1;stroke-linecap:butt;stroke-linejoin:miter;stroke-miterlimit:4;stroke-opacity:1;stroke-dasharray:none" />
      <path
         d="m 298.69276,754.7351 c -3.8182,0.35084 -9.77582,1.08235 -9.71383,2.95403 0.0608,1.83533 4.68115,4.35365 8.90293,5.89437 9.035,3.29727 23.15015,6.86401 29.54658,5.12168 6.4659,-1.76126 6.22425,-4.04891 -2.2413,-7.75656 -7.92364,-3.47031 -18.91325,-6.91012 -26.49438,-6.21352 z"
         id="path2985-0-7"
         style="fill:#f7e9a3;fill-opacity:1;stroke:#000000;stroke-width:1;stroke-linecap:butt;stroke-linejoin:miter;stroke-miterlimit:4;stroke-opacity:1;stroke-dasharray:none" />
      <path
         d="m 340.01659,776.08664 c -3.64704,1.18359 -9.29702,3.20993 -8.82411,5.02194 0.46371,1.77682 5.52544,3.2151 9.98296,3.78764 9.53949,1.22528 24.09363,1.59396 29.9489,-1.51505 5.91885,-3.14278 5.17904,-5.32095 -3.89543,-7.07201 -8.49358,-1.63896 -19.97105,-2.57256 -27.21232,-0.22252 z"
         id="path2985-0-4"
         style="fill:#f7e9a3;fill-opacity:1;stroke:#000000;stroke-width:1;stroke-linecap:butt;stroke-linejoin:miter;stroke-miterlimit:4;stroke-opacity:1;stroke-dasharray:none" />
      <path
         d="m 289.17146,726.36107 c -3.77626,0.66459 -9.65324,1.88502 -9.43707,3.74521 0.21195,1.82405 5.0243,3.95268 9.35879,5.13991 9.27619,2.54078 23.63743,4.93108 29.86836,2.66708 6.29858,-2.2886 5.86906,-4.54852 -2.87347,-7.54526 -8.18289,-2.80489 -19.41878,-5.3265 -26.91661,-4.00694 z"
         id="path2985-0-1"
         style="fill:#f7e9a3;fill-opacity:1;stroke:#000000;stroke-width:1;stroke-linecap:butt;stroke-linejoin:miter;stroke-miterlimit:4;stroke-opacity:1;stroke-dasharray:none" />
      <path
         d="m 326.46481,676.53036 c -5.76838,3.72709 -14.80183,10.2215 -15.04391,17.08496 -0.23738,6.73015 6.21661,13.07366 12.24982,16.06564 12.91161,6.40311 33.36641,10.56273 43.23637,0.0607 9.97713,-10.61612 10.02513,-18.89925 -1.96215,-27.17875 -11.21991,-7.7495 -27.02686,-13.43275 -38.48013,-6.0325 z"
         id="path2985-6"
         style="fill:#421c09;fill-opacity:1;stroke:#000000;stroke-width:1px;stroke-linecap:butt;stroke-linejoin:miter;stroke-opacity:1" />
      <path
         d="m 279.71816,643.02861 c -5.88897,3.5335 -15.13308,9.72437 -15.60293,16.576 -0.46074,6.71857 5.77906,13.27288 11.7096,16.46355 12.69187,6.82831 32.99726,11.66485 43.21051,1.49629 10.32413,-10.27897 10.64716,-18.55594 -1.05859,-27.22891 -10.9564,-8.11779 -26.56592,-14.32278 -38.25859,-7.30693 z"
         id="path2985-3"
         style="fill:#421c09;fill-opacity:1;stroke:#000000;stroke-width:1px;stroke-linecap:butt;stroke-linejoin:miter;stroke-opacity:1" />
      <path
         d="m 343.39039,642.31738 c -5.21894,4.4641 -13.30411,12.10678 -12.62738,18.94108 0.66358,6.70157 7.90696,12.12629 14.28571,14.28571 13.6511,4.62135 34.47819,6.01189 42.85714,-5.71428 8.46992,-11.8535 7.41125,-20.06884 -5.5744,-26.67322 -12.15438,-6.18161 -28.57874,-9.70287 -38.94107,-0.83929 z"
         id="path2985-7"
         style="fill:#421c09;fill-opacity:1;stroke:#000000;stroke-width:1px;stroke-linecap:butt;stroke-linejoin:miter;stroke-opacity:1" />
      <path
         d="m 204.60936,673.07969 c -2.56685,6.36999 -6.20765,16.88308 -2.45065,22.63205 3.68402,5.63731 12.61409,7.10292 19.26904,6.07181 14.24219,-2.20667 33.35666,-10.59346 35.37185,-24.86402 2.03706,-14.42552 -2.6966,-21.22295 -17.26455,-21.08246 -13.6354,0.1315 -29.82914,4.59485 -34.92569,17.24262 z"
         id="path2985-7-6"
         style="fill:#421c09;fill-opacity:1;stroke:#000000;stroke-width:1px;stroke-linecap:butt;stroke-linejoin:miter;stroke-opacity:1" />
      <path
         d="m 328.99896,719.11095 c -3.47385,-1.62301 -8.98701,-3.99648 -9.87758,-2.34909 -0.87329,1.6154 1.84596,6.12044 4.71416,9.58032 6.1382,7.40443 16.52699,17.60404 22.92893,19.32605 6.47146,1.74069 7.41673,-0.3565 1.97723,-7.82805 -5.09131,-6.99326 -12.84535,-15.50671 -19.74274,-18.72923 z"
         id="path2985-0-89"
         style="fill:#f7e9a3;fill-opacity:1;stroke:#000000;stroke-width:1;stroke-linecap:butt;stroke-linejoin:miter;stroke-miterlimit:4;stroke-opacity:1;stroke-dasharray:none" />
      <path
         d="m 210.68901,780.19488 c -3.41607,1.74133 -8.67799,4.62933 -7.92655,6.34466 0.73684,1.68202 5.96158,2.30803 10.45371,2.17386 9.61357,-0.28715 24.0452,-2.20733 29.33994,-6.1968 5.35223,-4.0328 4.27972,-6.06786 -4.95712,-6.37297 -8.64555,-0.28557 -20.1273,0.59381 -26.90998,4.05125 z"
         id="path2985-0-8-3"
         style="fill:#f7e9a3;fill-opacity:1;stroke:#000000;stroke-width:1;stroke-linecap:butt;stroke-linejoin:miter;stroke-miterlimit:4;stroke-opacity:1;stroke-dasharray:none" />
      <path
         d="m 208.10552,640.11444 c -3.66794,-1.11716 -9.46061,-2.68984 -10.11008,-0.93336 -0.63687,1.72235 2.69022,5.79914 6.01746,8.82019 7.1206,6.46532 18.84333,15.09877 25.42407,15.90122 6.65221,0.81115 7.29244,-1.39834 0.85411,-8.02859 -6.02619,-6.20581 -14.90281,-13.54131 -22.18556,-15.75946 z"
         id="path2985-0-5-1"
         style="fill:#f7e9a3;fill-opacity:1;stroke:#000000;stroke-width:1;stroke-linecap:butt;stroke-linejoin:miter;stroke-miterlimit:4;stroke-opacity:1;stroke-dasharray:none" />
      <path
         d="m 211.98094,730.09326 c -3.82548,0.2597 -9.79885,0.84895 -9.7815,2.72157 0.017,1.83625 4.576,4.46403 8.75985,6.10497 8.95381,3.51177 22.97989,7.41407 29.41605,5.82475 6.50606,-1.60658 6.31903,-3.89935 -2.05571,-7.8078 -7.83864,-3.65825 -18.74311,-7.35912 -26.33869,-6.84349 z"
         id="path2985-0-3-4"
         style="fill:#f7e9a3;fill-opacity:1;stroke:#000000;stroke-width:1;stroke-linecap:butt;stroke-linejoin:miter;stroke-miterlimit:4;stroke-opacity:1;stroke-dasharray:none" />
      <path
         d="m 211.79161,714.45015 c -3.3091,1.93688 -8.39432,5.12576 -7.54447,6.79452 0.83333,1.63637 6.08562,1.95772 10.56236,1.56275 9.58064,-0.84528 23.8763,-3.60081 28.93028,-7.8912 5.10885,-4.33699 3.9199,-6.30629 -5.31906,-6.07415 -8.64754,0.21728 -20.05879,1.76235 -26.62911,5.60808 z"
         id="path2985-0-38-8"
         style="fill:#f7e9a3;fill-opacity:1;stroke:#000000;stroke-width:1;stroke-linecap:butt;stroke-linejoin:miter;stroke-miterlimit:4;stroke-opacity:1;stroke-dasharray:none" />
      <path
         d="m 244.28917,640.87925 c -3.82319,0.29162 -9.79143,0.93069 -9.75846,2.8031 0.0323,1.83605 4.6131,4.42569 8.81049,6.03167 8.9828,3.43692 23.04096,7.22204 29.46364,5.57908 6.49242,-1.66082 6.28626,-3.95194 -2.1208,-7.79038 -7.86889,-3.59271 -18.80386,-7.20246 -26.39487,-6.62347 z"
         id="path2985-0-37-9"
         style="fill:#f7e9a3;fill-opacity:1;stroke:#000000;stroke-width:1;stroke-linecap:butt;stroke-linejoin:miter;stroke-miterlimit:4;stroke-opacity:1;stroke-dasharray:none" />
      <path
         d="m 363.99702,697.69279 c -3.21689,2.08649 -8.15063,5.50505 -7.2252,7.13312 0.90744,1.59645 6.16894,1.67678 10.62288,1.07707 9.53184,-1.28342 23.68622,-4.69116 28.53827,-9.20864 4.90474,-4.56655 3.6268,-6.4793 -5.59181,-5.82403 -8.6285,0.61334 -19.95696,2.6797 -26.34414,6.82248 z"
         id="path2985-0-9-6"
         style="fill:#f7e9a3;fill-opacity:1;stroke:#000000;stroke-width:1;stroke-linecap:butt;stroke-linejoin:miter;stroke-miterlimit:4;stroke-opacity:1;stroke-dasharray:none" />
      <path
         d="m 205.43473,762.8896 c -2.58834,2.82883 -6.50311,7.37888 -5.19778,8.72169 1.27996,1.31675 6.39237,0.0705 10.55209,-1.63064 8.90218,-3.64065 21.74361,-10.50043 25.3028,-16.09349 3.59782,-5.65381 1.87969,-7.18344 -6.87741,-4.22955 -8.19652,2.76481 -18.64049,7.6153 -23.7797,13.23199 z"
         id="path2985-0-378-7"
         style="fill:#f7e9a3;fill-opacity:1;stroke:#000000;stroke-width:1;stroke-linecap:butt;stroke-linejoin:miter;stroke-miterlimit:4;stroke-opacity:1;stroke-dasharray:none" />
      <path
         d="m 351.474,710.59228 c -3.8182,0.35084 -9.77582,1.08235 -9.71383,2.95403 0.0608,1.83533 4.68115,4.35365 8.90293,5.89437 9.035,3.29727 23.15014,6.86401 29.54657,5.12168 6.4659,-1.76126 6.22425,-4.04891 -2.2413,-7.75656 -7.92364,-3.47031 -18.91324,-6.91012 -26.49437,-6.21352 z"
         id="path2985-0-7-7"
         style="fill:#f7e9a3;fill-opacity:1;stroke:#000000;stroke-width:1;stroke-linecap:butt;stroke-linejoin:miter;stroke-miterlimit:4;stroke-opacity:1;stroke-dasharray:none" />
      <path
         d="m 274.11567,781.09501 c -3.64704,1.18359 -9.29702,3.20993 -8.82411,5.02194 0.46371,1.77682 5.52544,3.2151 9.98296,3.78764 9.53949,1.22528 24.09363,1.59396 29.9489,-1.51505 5.91885,-3.14278 5.17904,-5.32095 -3.89543,-7.07201 -8.49358,-1.63896 -19.97105,-2.57256 -27.21232,-0.22252 z"
         id="path2985-0-4-3"
         style="fill:#f7e9a3;fill-opacity:1;stroke:#000000;stroke-width:1;stroke-linecap:butt;stroke-linejoin:miter;stroke-miterlimit:4;stroke-opacity:1;stroke-dasharray:none" />
      <path
         d="m 280.214,706.19444 c -3.77626,0.66459 -9.65324,1.88502 -9.43707,3.74521 0.21195,1.82405 5.0243,3.95268 9.35879,5.13991 9.27619,2.54078 23.63743,4.93108 29.86836,2.66708 6.29858,-2.2886 5.86906,-4.54852 -2.87347,-7.54526 -8.18289,-2.80489 -19.41878,-5.3265 -26.91661,-4.00694 z"
         id="path2985-0-1-7"
         style="fill:#f7e9a3;fill-opacity:1;stroke:#000000;stroke-width:1;stroke-linecap:butt;stroke-linejoin:miter;stroke-miterlimit:4;stroke-opacity:1;stroke-dasharray:none" />
    </g>
  </g>
</svg>
