<svg xmlns="http://www.w3.org/2000/svg" width="105" height="79.03"><g transform="matrix(.51049 0 0 .51049-100.78-324.91)" stroke="#000"><path d="m252.67 680.48c-5.6 3.976-14.341 10.859-14.283 17.726.057 6.734 6.782 12.789 12.94 15.515 13.179 5.833 33.796 9.09 43.2-1.829 9.504-11.04 9.19-19.319-3.148-27.07-11.548-7.252-27.588-12.239-38.707-4.345z" fill="#421c09"/><g fill="#f7e9a3"><path d="m379.32 736.28c-3.474-1.623-8.987-3.996-9.878-2.349-.873 1.615 1.846 6.12 4.714 9.58 6.138 7.404 16.527 17.604 22.929 19.326 6.471 1.741 7.417-.356 1.977-7.828-5.091-6.993-12.845-15.507-19.743-18.729z"/><path d="m325.74 744.02c-3.416 1.741-8.678 4.629-7.927 6.345.737 1.682 5.962 2.308 10.454 2.174 9.614-.287 24.05-2.207 29.34-6.197 5.352-4.03 4.28-6.068-4.957-6.373-8.646-.286-20.13.594-26.91 4.051z"/><path d="m245.24 725.62c-3.668-1.117-9.461-2.69-10.11-.933-.637 1.722 2.69 5.799 6.02 8.82 7.121 6.465 18.843 15.1 25.424 15.901 6.652.811 7.292-1.398.854-8.03-6.03-6.206-14.903-13.541-22.19-15.759z"/><path d="m361.2 755.06c-3.825.26-9.799.849-9.781 2.722.017 1.836 4.576 4.464 8.76 6.105 8.954 3.512 22.98 7.414 29.416 5.825 6.506-1.607 6.319-3.899-2.056-7.808-7.839-3.658-18.743-7.359-26.339-6.843z"/><path d="m311.86 771.78c-3.309 1.937-8.394 5.126-7.544 6.795.833 1.636 6.086 1.958 10.562 1.563 9.581-.845 23.876-3.601 28.93-7.891 5.109-4.337 3.92-6.306-5.319-6.074-8.648.217-20.06 1.762-26.629 5.608z"/><path d="m231.67 755.75c-3.823.292-9.791.931-9.758 2.803.032 1.836 4.613 4.426 8.81 6.03 8.983 3.437 23.04 7.222 29.464 5.579 6.492-1.661 6.286-3.952-2.121-7.79-7.869-3.593-18.804-7.202-26.395-6.623z"/><path d="m256.67 772.41c-3.217 2.086-8.151 5.505-7.225 7.133.907 1.596 6.169 1.677 10.623 1.077 9.532-1.283 23.686-4.691 28.538-9.209 4.905-4.567 3.627-6.479-5.592-5.824-8.628.613-19.957 2.68-26.344 6.822z"/><path d="m273.13 754.28c-2.588 2.829-6.503 7.379-5.198 8.722 1.28 1.317 6.392.071 10.552-1.631 8.902-3.641 21.744-10.5 25.303-16.09 3.598-5.654 1.88-7.183-6.877-4.23-8.197 2.765-18.64 7.615-23.78 13.232z"/><path d="m298.69 754.74c-3.818.351-9.776 1.082-9.714 2.954.061 1.835 4.681 4.354 8.903 5.894 9.04 3.297 23.15 6.864 29.547 5.122 6.466-1.761 6.224-4.049-2.241-7.757-7.924-3.47-18.913-6.91-26.494-6.214z"/><path d="m340.02 776.09c-3.647 1.184-9.297 3.21-8.824 5.02.464 1.777 5.525 3.215 9.983 3.788 9.539 1.225 24.09 1.594 29.949-1.515 5.919-3.143 5.179-5.321-3.895-7.07-8.494-1.639-19.971-2.573-27.21-.223z"/><path d="m289.17 726.36c-3.776.665-9.653 1.885-9.437 3.745.212 1.824 5.02 3.953 9.359 5.14 9.276 2.541 23.637 4.931 29.868 2.667 6.299-2.289 5.869-4.549-2.873-7.545-8.183-2.805-19.419-5.327-26.917-4.01z"/></g><g fill="#421c09"><path d="m326.46 676.53c-5.768 3.727-14.802 10.221-15.04 17.08-.237 6.73 6.217 13.07 12.25 16.07 12.912 6.403 33.366 10.563 43.24.061 9.977-10.616 10.03-18.899-1.962-27.18-11.22-7.75-27.03-13.433-38.48-6.03z"/><path d="m279.72 643.03c-5.889 3.534-15.13 9.724-15.603 16.576-.461 6.719 5.779 13.273 11.71 16.464 12.692 6.828 32.997 11.665 43.21 1.496 10.324-10.279 10.647-18.556-1.059-27.23-10.956-8.118-26.566-14.323-38.26-7.307z"/><path d="m343.39 642.32c-5.219 4.464-13.304 12.11-12.627 18.941.664 6.702 7.907 12.13 14.286 14.286 13.651 4.621 34.478 6.01 42.857-5.714 8.47-11.854 7.411-20.07-5.574-26.673-12.154-6.182-28.579-9.703-38.941-.839z"/><path d="m204.61 673.08c-2.567 6.37-6.208 16.883-2.451 22.632 3.684 5.637 12.614 7.103 19.269 6.072 14.242-2.207 33.36-10.593 35.37-24.864 2.037-14.426-2.697-21.22-17.265-21.08-13.635.131-29.829 4.595-34.926 17.243z"/></g><g fill="#f7e9a3"><path d="m329 719.11c-3.474-1.623-8.987-3.996-9.878-2.349-.873 1.615 1.846 6.12 4.714 9.58 6.138 7.404 16.527 17.604 22.929 19.326 6.471 1.741 7.417-.356 1.977-7.828-5.091-6.993-12.845-15.507-19.743-18.729z"/><path d="m210.69 780.19c-3.416 1.741-8.678 4.629-7.927 6.345.737 1.682 5.962 2.308 10.454 2.174 9.614-.287 24.05-2.207 29.34-6.197 5.352-4.03 4.28-6.068-4.957-6.373-8.646-.286-20.13.594-26.91 4.051z"/><path d="m208.11 640.11c-3.668-1.117-9.461-2.69-10.11-.933-.637 1.722 2.69 5.799 6.02 8.82 7.121 6.465 18.843 15.1 25.424 15.901 6.652.811 7.292-1.398.854-8.03-6.03-6.206-14.903-13.541-22.19-15.759z"/><path d="m211.98 730.09c-3.825.26-9.799.849-9.781 2.722.017 1.836 4.576 4.464 8.76 6.105 8.954 3.512 22.98 7.414 29.416 5.825 6.506-1.607 6.319-3.899-2.056-7.808-7.839-3.658-18.743-7.359-26.339-6.843z"/><path d="m211.79 714.45c-3.309 1.937-8.394 5.126-7.544 6.795.833 1.636 6.086 1.958 10.562 1.563 9.581-.845 23.876-3.601 28.93-7.891 5.109-4.337 3.92-6.306-5.319-6.074-8.648.217-20.06 1.762-26.629 5.608z"/><path d="m244.29 640.88c-3.823.292-9.791.931-9.758 2.803.032 1.836 4.613 4.426 8.81 6.03 8.983 3.437 23.04 7.222 29.464 5.579 6.492-1.661 6.286-3.952-2.121-7.79-7.869-3.593-18.804-7.202-26.395-6.623z"/><path d="m364 697.69c-3.217 2.086-8.151 5.505-7.225 7.133.907 1.596 6.169 1.677 10.623 1.077 9.532-1.283 23.686-4.691 28.538-9.209 4.905-4.567 3.627-6.479-5.592-5.824-8.628.613-19.957 2.68-26.344 6.822z"/><path d="m205.43 762.89c-2.588 2.829-6.503 7.379-5.198 8.722 1.28 1.317 6.392.071 10.552-1.631 8.902-3.641 21.744-10.5 25.303-16.09 3.598-5.654 1.88-7.183-6.877-4.23-8.197 2.765-18.64 7.615-23.78 13.232z"/><path d="m351.47 710.59c-3.818.351-9.776 1.082-9.714 2.954.061 1.835 4.681 4.354 8.903 5.894 9.04 3.297 23.15 6.864 29.547 5.122 6.466-1.761 6.224-4.049-2.241-7.757-7.924-3.47-18.913-6.91-26.494-6.214z"/><path d="m274.12 781.1c-3.647 1.184-9.297 3.21-8.824 5.02.464 1.777 5.525 3.215 9.983 3.788 9.539 1.225 24.09 1.594 29.949-1.515 5.919-3.143 5.179-5.321-3.895-7.07-8.494-1.639-19.971-2.573-27.21-.223z"/><path d="m280.21 706.19c-3.776.665-9.653 1.885-9.437 3.745.212 1.824 5.02 3.953 9.359 5.14 9.276 2.541 23.637 4.931 29.868 2.667 6.299-2.289 5.869-4.549-2.873-7.545-8.183-2.805-19.419-5.327-26.917-4.01z"/></g></g></svg>
