<?xml version="1.0" encoding="UTF-8" standalone="no"?>
<!-- Created with Inkscape (http://www.inkscape.org/) -->

<svg
   xmlns:dc="http://purl.org/dc/elements/1.1/"
   xmlns:cc="http://creativecommons.org/ns#"
   xmlns:rdf="http://www.w3.org/1999/02/22-rdf-syntax-ns#"
   xmlns:svg="http://www.w3.org/2000/svg"
   xmlns="http://www.w3.org/2000/svg"
   xmlns:xlink="http://www.w3.org/1999/xlink"
   version="1.1"
   width="99.693695"
   height="60.733585"
   id="svg2">
  <metadata
     id="metadata8">
    <rdf:RDF>
      <cc:Work
         rdf:about="">
        <dc:format>image/svg+xml</dc:format>
        <dc:type
           rdf:resource="http://purl.org/dc/dcmitype/StillImage" />
        <dc:title></dc:title>
      </cc:Work>
    </rdf:RDF>
  </metadata>
  <defs
     id="defs6">
    <linearGradient
       id="linearGradient3757">
      <stop
         id="stop3759"
         style="stop-color:#d5a4b6;stop-opacity:1"
         offset="0" />
      <stop
         id="stop3761"
         style="stop-color:#7e3a53;stop-opacity:1"
         offset="1" />
    </linearGradient>
    <radialGradient
       cx="30.902298"
       cy="38.69492"
       r="30.902298"
       fx="30.902298"
       fy="38.69492"
       id="radialGradient3763"
       xlink:href="#linearGradient3757"
       gradientUnits="userSpaceOnUse"
       gradientTransform="matrix(1,0,0,1.013034,23.917336,-5.473099)" />
  </defs>
  <path
     d="M 0.75336105,46.695279 C 1.326992,38.994397 23.178243,44.380817 29.844723,40.483295 38.517035,35.413075 47.903031,24.212668 54.142729,20.536573 57.342054,18.651702 70.130325,8.634206 73.737658,7.753546 79.506341,6.345234 92.964573,0.6412499 97.470737,0.611016 101.2549,2.1300108 97.144642,3.7091043 97.02153,7.784892 96.681264,19.049848 71.247242,46.030559 68.773294,47.891568 63.142266,52.12747 52.554483,58.275436 45.046304,60.053179 42.472132,60.662676 13.419916,55.830767 10.800482,55.461424 1.856489,54.200309 0.06086005,55.991976 0.75336105,46.695279 z"
     id="path2987"
     style="fill:url(#radialGradient3763);fill-opacity:1;stroke:#000000;stroke-width:1.23647749;stroke-linecap:round;stroke-linejoin:miter;stroke-miterlimit:4;stroke-opacity:1;stroke-dasharray:none" />
  <path
     d="m -16.969697,53.855217 a 2.9461279,5.0673399 0 1 1 -5.892256,0 2.9461279,5.0673399 0 1 1 5.892256,0 z"
     transform="matrix(0.88062404,0,0,1,21.188169,-4.96875)"
     id="path3811"
     style="fill:#856e76;fill-opacity:1;stroke:#442d35;stroke-width:1.20000005;stroke-linecap:round;stroke-linejoin:round;stroke-miterlimit:4;stroke-opacity:1;stroke-dasharray:none" />
</svg>
