<svg xmlns="http://www.w3.org/2000/svg" width="99.69" height="60.734"><defs><radialGradient cx="30.902" cy="38.695" r="30.902" id="0" gradientUnits="userSpaceOnUse" gradientTransform="matrix(1 0 0 1.01303 23.917-5.473)"><stop stop-color="#d5a4b6"/><stop offset="1" stop-color="#7e3a53"/></radialGradient></defs><g stroke-linecap="round"><path d="m.753 46.695c.574-7.701 22.425-2.314 29.09-6.212 8.672-5.07 18.06-16.271 24.298-19.947 3.199-1.885 15.988-11.902 19.595-12.783 5.769-1.408 19.227-7.112 23.733-7.143 3.784 1.519-.326 3.098-.449 7.174-.34 11.265-25.774 38.25-28.25 40.11-5.631 4.236-16.219 10.384-23.727 12.162-2.574.609-31.626-4.222-34.25-4.592-8.944-1.261-10.74.531-10.05-8.766z" fill="url(#0)" stroke="#000" stroke-width="1.236"/><path d="m-16.969697 53.855217a2.946128 5.06734 0 1 1 -5.892256 0 2.946128 5.06734 0 1 1 5.892256 0z" transform="matrix(.88062 0 0 1 21.19-4.969)" fill="#856e76" stroke="#442d35" stroke-linejoin="round" stroke-width="1.2"/></g></svg>
