<svg xmlns="http://www.w3.org/2000/svg" width="150" height="110"><g transform="translate(.445-22.05)"><path d="m1.481 86.3c.865-3.483 7.2-2.174 9.63-4.815 1.801-1.957 1.449-5.221 2.963-7.407 2.189-3.161 6.967-4.26 8.519-7.778.598-1.355.2-2.977 0-4.444-.311-2.285-3-4.669-1.852-6.667 3.44-5.966 13.3-3.589 20-5.185 5.653-1.347 11.244-3.243 17.04-3.704 8.875-.705 17.764 1.412 26.667 1.481 3.089.024 6.175-.542 9.259-.37 7.357.41 14.612 1.963 21.852 3.333 6.592 1.247 13.478 1.767 19.63 4.444 3.01 1.312 5.107 4.308 8.148 5.556 1.277.524 3.335-.425 4.074.741 1.026 1.619-.978 3.706-1.481 5.556-.606 2.225-.816 4.606-1.852 6.667-.632 1.258-2.036 2.041-2.593 3.333-1.285 2.983-1.136 6.4-1.481 9.63-.434 4.058-1.111 10.741-.741 12.222.37 1.481 2.855 4.634 1.481 6.296-1.889 2.286-7.407-.37-8.889-.37-1.481 0-11.81 2.096-17.778 2.593-5.784.481-15.556 0-17.407.37-1.852.37-14.993.207-22.22-1.481-3.773-.881-6.878-4.141-10.741-4.444-3.164-.249-2.593 1.852-9.259 2.222-6.667.37-19.872-3.702-29.63-6.296-6.641-1.766-14.08-2.245-19.63-6.296-1.716-1.252-4.216-3.124-3.704-5.185z" fill="#92c46c" stroke="#000"/><path d="m2.593 87.41c1.251-2.307 4.522-2.583 7.04-3.333 12.783-3.811 25.2 4.408 38.519 3.704 4.575-.242 8.757-3.118 13.333-3.333 5.738-.27 11.32 2.029 17.04 2.593 8.117.8 16.364 0 24.444 1.111 8.663 1.191 17.698 2.089 25.556 5.926 2.997 1.463 5.503 3.857 7.778 6.296 1.028 1.102 3.243 2.344 2.593 3.704-2.349 4.912-10.875.611-16.296 1.111-5.322.491-10.59 1.543-15.926 1.852-7.765.45-15.646 1.181-23.333 0-6.908-1.062-13.02-6.02-20-6.296-1.646-.064-3.172.991-4.815 1.111-7.659.561-15.408-.474-22.963-1.852-8.341-1.521-16.347-4.523-24.444-7.04-2.983-.926-5.02-1.417-6.667-4.074-.459-.743-2.268-.714-1.852-1.481" fill="#68bd28"/><g fill="none" stroke="#000"><g stroke-linecap="round" stroke-width="3"><path d="m63.704 102.59l-.741-12.963 5.185-18.15 5.556-9.63 5.926-6.667 8.889-7.04"/><path d="m21.481 67.778c0 0 19.259-6.296 20.741-6.296 1.481 0 22.963-1.111 24.815-.37 1.852.741 26.667 2.222 26.667 2.222l21.11 5.556c0 0 16.296 6.296 17.778 7.04 1.481.741 8.519 4.444 8.519 4.444"/></g><path d="m20.37 85.19l27.407-10 37.778-6.667 6.296-8.148-2.963-2.593-24.815-5.185-28.519-1.852"/><path d="m135.19 55.56l-23.333 1.481-10.741-1.111-14.07.37h-.741"/><path d="m77.04 72.22l20 7.407 21.852 7.778 15.926 10.741"/><path d="m17.778 91.48l15.185 4.444 15.185 1.481h.37"/><path d="m71.852 99.63l19.259 5.185 17.04-.741"/><path d="m80.74 98.15l29.63 4.074 2.222.37-.37 1.111"/></g></g></svg>
