<?xml version="1.0" encoding="UTF-8" standalone="no"?>
<!-- Created with Inkscape (http://www.inkscape.org/) -->

<svg
   xmlns:dc="http://purl.org/dc/elements/1.1/"
   xmlns:cc="http://creativecommons.org/ns#"
   xmlns:rdf="http://www.w3.org/1999/02/22-rdf-syntax-ns#"
   xmlns:svg="http://www.w3.org/2000/svg"
   xmlns="http://www.w3.org/2000/svg"
   version="1.1"
   width="150"
   height="110"
   id="svg2">
  <metadata
     id="metadata8">
    <rdf:RDF>
      <cc:Work
         rdf:about="">
        <dc:format>image/svg+xml</dc:format>
        <dc:type
           rdf:resource="http://purl.org/dc/dcmitype/StillImage" />
        <dc:title></dc:title>
      </cc:Work>
    </rdf:RDF>
  </metadata>
  <defs
     id="defs6" />
  <g
     transform="translate(0.44525575,-22.047184)"
     id="g3775">
    <path
       d="m 1.4814815,86.296296 c 0.8650754,-3.482927 7.1996521,-2.173917 9.6296295,-4.814815 1.800665,-1.956962 1.448979,-5.221099 2.962963,-7.407407 2.189012,-3.161101 6.966792,-4.259756 8.518519,-7.777778 0.597875,-1.355482 0.200088,-2.976537 0,-4.444444 -0.311496,-2.285231 -3.004013,-4.668709 -1.851852,-6.666667 3.440488,-5.966141 13.300409,-3.589165 20,-5.185185 5.653447,-1.346801 11.243637,-3.243432 17.037037,-3.703704 8.874632,-0.705068 17.764339,1.4124 26.666666,1.481482 3.088795,0.02397 6.175162,-0.542328 9.25926,-0.370371 7.356786,0.410185 14.612126,1.963363 21.851856,3.333334 6.59185,1.247372 13.47827,1.766919 19.62963,4.444444 3.01413,1.311972 5.10662,4.308394 8.14814,5.555556 1.2771,0.523668 3.33485,-0.424912 4.07408,0.74074 1.02644,1.618534 -0.97808,3.706283 -1.48148,5.555556 -0.60578,2.225386 -0.81558,4.60622 -1.85186,6.666667 -0.63246,1.257535 -2.03557,2.040609 -2.59259,3.333333 -1.28514,2.982548 -1.13597,6.400421 -1.48148,9.62963 -0.43423,4.058385 -1.11111,10.74074 -0.74074,12.222222 0.37037,1.481481 2.85503,4.634361 1.48148,6.296301 -1.88922,2.28588 -7.40741,-0.37038 -8.88889,-0.37038 -1.48148,0 -11.80981,2.09586 -17.77778,2.5926 -5.78378,0.48141 -15.555551,0 -17.407403,0.37037 -1.851852,0.37037 -14.992947,0.20705 -22.222223,-1.48148 -3.773104,-0.88128 -6.877985,-4.141 -10.74074,-4.44445 -3.164315,-0.24859 -2.592593,1.85185 -9.25926,2.22222 -6.666666,0.37037 -19.871623,-3.70164 -29.629629,-6.296292 C 18.174002,96.011987 10.735708,95.532421 5.1851852,91.481481 3.4694946,90.229318 0.96947976,88.357694 1.4814815,86.296296 z"
       id="path2987"
       style="fill:#92c46c;fill-opacity:1;stroke:#000000;stroke-width:1px;stroke-linecap:butt;stroke-linejoin:miter;stroke-opacity:1" />
    <path
       d="m 2.5925926,87.407407 c 1.2512878,-2.307265 4.5217396,-2.583351 7.037037,-3.333333 12.7829174,-3.811459 25.1980954,4.408341 38.5185184,3.703704 4.574832,-0.242004 8.75716,-3.118179 13.333333,-3.333334 5.738052,-0.269782 11.320333,2.02929 17.037038,2.592593 8.117248,0.799844 16.363906,6.2e-5 24.444441,1.111111 8.66304,1.191141 17.69756,2.0894 25.55556,5.925926 2.99744,1.463449 5.50287,3.856799 7.77778,6.296296 1.02777,1.10213 3.24264,2.34413 2.59259,3.7037 -2.34862,4.91212 -10.87457,0.61136 -16.2963,1.11112 -5.32185,0.49056 -10.59046,1.54269 -15.92592,1.85185 -7.764755,0.44992 -15.645819,1.18149 -23.333337,0 -6.908115,-1.0617 -13.016116,-6.02311 -20,-6.2963 -1.64586,-0.0644 -3.172102,0.99071 -4.814814,1.11111 C 50.859892,102.41319 43.11013,101.37771 35.555556,100 27.214068,98.478783 19.208898,95.477 11.111111,92.962963 8.1283163,92.036925 6.0864274,91.545673 4.4444444,88.888889 3.9854961,88.146295 2.1764204,88.174792 2.5925926,87.407407 z"
       id="path3005"
       style="fill:#68bd28;fill-opacity:1;stroke:none" />
    <path
       d="m 63.703704,102.59259 -0.740741,-12.96296 5.185185,-18.148149 5.555556,-9.629629 5.925926,-6.666667 8.888889,-7.037037"
       id="path2989"
       style="fill:none;stroke:#000000;stroke-width:3;stroke-linecap:round;stroke-linejoin:miter;stroke-miterlimit:4;stroke-opacity:1;stroke-dasharray:none" />
    <path
       d="m 21.481481,67.777778 c 0,0 19.25926,-6.296297 20.740741,-6.296297 1.481482,0 22.962963,-1.111111 24.814815,-0.37037 1.851852,0.740741 26.666667,2.222222 26.666667,2.222222 l 21.111106,5.555556 c 0,0 16.2963,6.296296 17.77778,7.037037 1.48148,0.740741 8.51852,4.444444 8.51852,4.444444"
       id="path2991"
       style="fill:none;stroke:#000000;stroke-width:3;stroke-linecap:round;stroke-linejoin:miter;stroke-miterlimit:4;stroke-opacity:1;stroke-dasharray:none" />
    <path
       d="m 20.37037,85.185185 27.407408,-10 37.777778,-6.666666 6.296296,-8.148149 -2.962963,-2.592592 -24.814815,-5.185185 -28.518518,-1.851852"
       id="path2993"
       style="fill:none;stroke:#000000;stroke-width:1px;stroke-linecap:butt;stroke-linejoin:miter;stroke-opacity:1" />
    <path
       d="m 135.18519,55.555556 -23.33334,1.481481 -10.74074,-1.111111 -14.074073,0.37037 -0.740741,0"
       id="path2995"
       style="fill:none;stroke:#000000;stroke-width:1px;stroke-linecap:butt;stroke-linejoin:miter;stroke-opacity:1" />
    <path
       d="m 77.037037,72.222222 20,7.407408 21.851853,7.777777 15.92592,10.740741"
       id="path2997"
       style="fill:none;stroke:#000000;stroke-width:1px;stroke-linecap:butt;stroke-linejoin:miter;stroke-opacity:1" />
    <path
       d="m 17.777778,91.481481 15.185185,4.444445 15.185185,1.481481 0.370371,0"
       id="path2999"
       style="fill:none;stroke:#000000;stroke-width:1px;stroke-linecap:butt;stroke-linejoin:miter;stroke-opacity:1" />
    <path
       d="m 71.851852,99.62963 19.259259,5.18518 17.037039,-0.74074"
       id="path3001"
       style="fill:none;stroke:#000000;stroke-width:1px;stroke-linecap:butt;stroke-linejoin:miter;stroke-opacity:1" />
    <path
       d="m 80.740741,98.148148 29.629629,4.074072 2.22222,0.37037 -0.37037,1.11111"
       id="path3003"
       style="fill:none;stroke:#000000;stroke-width:1px;stroke-linecap:butt;stroke-linejoin:miter;stroke-opacity:1" />
  </g>
</svg>
