<?xml version="1.0" encoding="UTF-8" standalone="no"?>
<!-- Created with Inkscape (http://www.inkscape.org/) -->

<svg
   xmlns:dc="http://purl.org/dc/elements/1.1/"
   xmlns:cc="http://creativecommons.org/ns#"
   xmlns:rdf="http://www.w3.org/1999/02/22-rdf-syntax-ns#"
   xmlns:svg="http://www.w3.org/2000/svg"
   xmlns="http://www.w3.org/2000/svg"
   xmlns:xlink="http://www.w3.org/1999/xlink"
   version="1.1"
   width="63.144791"
   height="65.173615"
   id="svg2">
  <metadata
     id="metadata8">
    <rdf:RDF>
      <cc:Work
         rdf:about="">
        <dc:format>image/svg+xml</dc:format>
        <dc:type
           rdf:resource="http://purl.org/dc/dcmitype/StillImage" />
        <dc:title></dc:title>
      </cc:Work>
    </rdf:RDF>
  </metadata>
  <defs
     id="defs6">
    <linearGradient
       id="linearGradient3814">
      <stop
         id="stop3816"
         style="stop-color:#eb3a19;stop-opacity:1"
         offset="0" />
      <stop
         id="stop3818"
         style="stop-color:#c02c11;stop-opacity:1"
         offset="1" />
    </linearGradient>
    <radialGradient
       cx="30.996721"
       cy="38.187958"
       r="30.968437"
       fx="30.996721"
       fy="38.187958"
       id="radialGradient3824"
       xlink:href="#linearGradient3814"
       gradientUnits="userSpaceOnUse"
       gradientTransform="matrix(0,1,-1.0195023,0,70.505105,3.2084557)" />
  </defs>
  <path
     d="m 32.944805,4.0848851 c 7.6416,-1.1129306 16.63293,1.8756738 21.76754,7.6435509 4.36315,4.901268 5.85414,11.546084 7.40903,18.021472 0.86699,3.610643 0.19013,12.109682 -0.60521,15.736782 -1.41997,6.475754 -4.43652,10.034996 -10.29854,14.54116 -3.23287,2.485117 -8.78381,3.762668 -12.83045,4.264598 C 27.829295,65.602014 11.938302,62.119305 6.0582809,51.599768 4.1115219,48.116956 2.0534199,45.838429 0.73168692,36.829006 0.34770992,34.211678 0.95855392,25.391595 2.2594689,23.088235 10.534462,8.436781 19.537005,6.037611 32.944805,4.0848851 z"
     id="path2987"
     style="fill:url(#radialGradient3824);fill-opacity:1;stroke:#000000;stroke-width:1.23647749;stroke-linecap:round;stroke-linejoin:miter;stroke-miterlimit:4;stroke-opacity:1;stroke-dasharray:none" />
  <path
     d="m 42.676045,2.2479306 c 6.79056,8.0617174 -3.22459,5.2533664 -3.22459,5.2533664 -0.14601,-0.06059 5.80033,1.795038 7.63688,3.089106 2.33519,1.645419 5.88207,6.232642 5.88207,6.232642 -4.12166,-6.72549 2.4715,-2.236819 4.46462,-2.34954 l -6.08014,-3.470702 5.80858,-3.881809 c -9.19601,3.642545 -7.67871,1.949263 -6.11953,-6.620994 -2.62794,9.083596 -3.78142,8.64648 -8.36789,1.7479306 z"
     id="path4305"
     style="fill:#719a0d;fill-opacity:1;stroke:#000000;stroke-width:1px;stroke-linecap:butt;stroke-linejoin:miter;stroke-opacity:1" />
</svg>
