<svg xmlns="http://www.w3.org/2000/svg" width="63.14" height="65.17"><defs><radialGradient cx="30.997" cy="38.19" r="30.968" id="0" gradientUnits="userSpaceOnUse" gradientTransform="matrix(0 1-1.0195 0 70.51 3.208)"><stop stop-color="#eb3a19"/><stop offset="1" stop-color="#c02c11"/></radialGradient></defs><g stroke="#000"><path d="m32.945 4.085c7.642-1.113 16.633 1.876 21.768 7.644 4.363 4.901 5.854 11.546 7.409 18.02.867 3.611.19 12.11-.605 15.737-1.42 6.476-4.437 10.03-10.299 14.541-3.233 2.485-8.784 3.763-12.83 4.265-10.558 1.31-26.449-2.173-32.33-12.693-1.947-3.483-4-5.761-5.327-14.771-.384-2.617.227-11.437 1.528-13.741 8.275-14.651 17.278-17.05 30.685-19z" fill="url(#0)" stroke-linecap="round" stroke-width="1.236"/><path d="m42.676 2.248c6.791 8.06-3.225 5.253-3.225 5.253-.146-.061 5.8 1.795 7.637 3.089 2.335 1.645 5.882 6.233 5.882 6.233-4.122-6.725 2.471-2.237 4.465-2.35l-6.08-3.471 5.809-3.882c-9.196 3.643-7.679 1.949-6.12-6.621-2.628 9.08-3.781 8.646-8.368 1.748z" fill="#719a0d"/></g></svg>
