<svg xmlns="http://www.w3.org/2000/svg" width="51.31" height="58.01"><g transform="translate(-174.21-613.25)" stroke="#000"><g fill="#f2feff"><path d="m225 622.36c-.366 4.161-5.912 4.08-7.243 8.04-2.329 6.93 2.989 7.442 3.311 18.497.236 8.114.271 14.87-4.995 19.243-3.855 3.202-9.566 2.68-14.571 2.435-5.6-.275-8.934.146-12.243-3.175-5.882-5.903-5.728-9.06-4.401-24.785.265-3.134 4.355-7.117 4.141-10.254-.177-2.597-3.945-3.182-3.927-5.785.043-6.146 5.108-9.474 10.819-11.746 5.917-2.354 12.5-.225 18.785.819 4.556.757 10.696 2.46 10.322 6.712z"/><path d="m186.29 623.33c-4.063-2.391-10.11 4.471-11.288 9.03-1.217 4.698 1.539 9.817 4 14 .956 1.625 2.753 3.646 4.537 3.034 2.542-.872 2.01-4.01 1.322-6.605-.428-1.611-2.434-1.727-2.785-3.356-.648-3-2.041-9.275.927-10.07 3.466-.933 5.38-4.803 3.288-6.03z"/></g><path d="m187.71 639.58c0 0-3.742 15.05-.356 22.576 2.033 4.519 6.327 5.979 11.209 6.825 2.956.512 13.639-.14 16.191-1.717 5.706-3.527 4.599-20.898 4.599-20.898" fill="#e6fdff"/><path d="m188 638.36c2.344-4.528 9.91-2.693 15-3 4.338-.262 8.143-1.413 11.605 1.215 3.107 2.359 5.881 7.106 4.537 10.249-1.724 4.03-7.757 2.493-12.141 2.537-5.04.051-10.962 1.023-15-2-2.628-1.967-5.509-6.084-4-9z" fill="#c9fbff"/><path d="m194.6 617.12c-1.946.741-2.828 1.315-4.615 2.469-1.212.782-1.171 2.853 0 3.542 2.23 1.312 6.932 2.445 10.948 3.01 4.536.632 13.09.215 13.739 0 .644-.215 6.551-.565 7.728-2.791.495-.937.495-2.219-.215-3.01-2.539-2.815-11.377-3.542-12.02-3.649-.644-.107-7.557-2.134-11.27-.859-.578.199-3.722 1.07-4.293 1.288z" fill="#f2feff"/></g></svg>
