<?xml version="1.0" encoding="UTF-8" standalone="no"?>
<!-- Created with Inkscape (http://www.inkscape.org/) -->

<svg
   xmlns:dc="http://purl.org/dc/elements/1.1/"
   xmlns:cc="http://creativecommons.org/ns#"
   xmlns:rdf="http://www.w3.org/1999/02/22-rdf-syntax-ns#"
   xmlns:svg="http://www.w3.org/2000/svg"
   xmlns="http://www.w3.org/2000/svg"
   version="1.1"
   width="51.306255"
   height="58.010433"
   id="svg4371">
  <defs
     id="defs4373" />
  <metadata
     id="metadata4376">
    <rdf:RDF>
      <cc:Work
         rdf:about="">
        <dc:format>image/svg+xml</dc:format>
        <dc:type
           rdf:resource="http://purl.org/dc/dcmitype/StillImage" />
        <dc:title></dc:title>
      </cc:Work>
    </rdf:RDF>
  </metadata>
  <g
     transform="translate(-349.35234,-503.35097)"
     id="layer1">
    <g
       transform="translate(175.14054,-109.90343)"
       id="g4348">
      <path
         d="m 225,622.36218 c -0.36581,4.1606 -5.91243,4.08041 -7.24329,8.03936 -2.32946,6.92951 2.98928,7.44237 3.31127,18.49731 0.23632,8.11376 0.27123,14.87004 -4.99463,19.24329 -3.85502,3.20156 -9.56561,2.68048 -14.57067,2.43471 -5.59995,-0.27499 -8.9335,0.14595 -12.24329,-3.17531 -5.88235,-5.90275 -5.72823,-9.06466 -4.40071,-24.78533 0.2646,-3.13351 4.35521,-7.11665 4.14132,-10.25403 -0.17708,-2.59739 -3.94473,-3.18198 -3.92665,-5.78533 0.0427,-6.14621 5.10833,-9.4739 10.81932,-11.74598 5.91723,-2.35414 12.49996,-0.22548 18.78533,0.81932 4.55612,0.75736 10.69588,2.45965 10.322,6.71199 z"
         id="path4338"
         style="fill:#f2feff;fill-opacity:1;stroke:#000000;stroke-width:1px;stroke-linecap:butt;stroke-linejoin:miter;stroke-opacity:1" />
      <path
         d="m 186.28801,623.32819 c -4.06289,-2.39063 -10.10553,4.47066 -11.28801,9.03399 -1.21743,4.69823 1.5387,9.81699 4,14 0.95625,1.62516 2.75311,3.64594 4.53667,3.03399 2.54196,-0.87217 2.01178,-4.00726 1.32201,-6.60465 -0.42778,-1.61083 -2.43396,-1.72678 -2.78533,-3.35599 -0.6479,-3.00411 -2.04094,-9.27471 0.92665,-10.07335 3.46589,-0.93274 5.37951,-4.80334 3.28801,-6.03399 z"
         id="path4340"
         style="fill:#f2feff;fill-opacity:1;stroke:#000000;stroke-width:1px;stroke-linecap:butt;stroke-linejoin:miter;stroke-opacity:1" />
      <path
         d="m 187.71199,639.57685 c 0,0 -3.74164,15.05129 -0.356,22.57603 2.03325,4.519 6.32666,5.97894 11.20931,6.82468 2.95598,0.51202 13.63946,-0.14016 16.19141,-1.71735 5.70634,-3.52671 4.59928,-20.89803 4.59928,-20.89803"
         id="path4344"
         style="fill:#e6fdff;fill-opacity:1;stroke:#000000;stroke-width:1px;stroke-linecap:butt;stroke-linejoin:miter;stroke-opacity:1" />
      <path
         d="m 188,638.36218 c 2.34371,-4.52847 9.91025,-2.69266 15,-3 4.33823,-0.26196 8.14318,-1.41347 11.60465,1.21467 3.10739,2.35931 5.8808,7.10631 4.53667,10.24866 -1.72425,4.03103 -7.75723,2.49261 -12.14132,2.53667 -5.04399,0.0507 -10.96176,1.02276 -15,-2 -2.62821,-1.9673 -5.50897,-6.08439 -4,-9 z"
         id="path4342"
         style="fill:#c9fbff;fill-opacity:1;stroke:#000000;stroke-width:1px;stroke-linecap:butt;stroke-linejoin:miter;stroke-opacity:1" />
      <path
         d="m 194.5975,617.12067 c -1.94553,0.74116 -2.82766,1.31529 -4.61539,2.4687 -1.21192,0.78192 -1.17062,2.85344 0,3.54204 2.2302,1.31189 6.93249,2.44545 10.94812,3.00537 4.53572,0.63245 13.09482,0.21466 13.73882,0 0.64401,-0.21467 6.55064,-0.56469 7.72809,-2.79071 0.49541,-0.93658 0.49504,-2.21864 -0.21467,-3.00536 -2.53912,-2.81456 -11.37746,-3.54203 -12.02147,-3.64937 -0.644,-0.10733 -7.55743,-2.13407 -11.27012,-0.85868 -0.57821,0.19863 -3.72206,1.07036 -4.29338,1.28801 z"
         id="path4346"
         style="fill:#f2feff;fill-opacity:1;stroke:#000000;stroke-width:1px;stroke-linecap:butt;stroke-linejoin:miter;stroke-opacity:1" />
    </g>
  </g>
</svg>
