<?xml version="1.0" encoding="UTF-8" standalone="no"?>
<!-- Created with Inkscape (http://www.inkscape.org/) -->

<svg
   xmlns:dc="http://purl.org/dc/elements/1.1/"
   xmlns:cc="http://creativecommons.org/ns#"
   xmlns:rdf="http://www.w3.org/1999/02/22-rdf-syntax-ns#"
   xmlns:svg="http://www.w3.org/2000/svg"
   xmlns="http://www.w3.org/2000/svg"
   version="1.1"
   width="152"
   height="42"
   id="svg2">
  <metadata
     id="metadata12">
    <rdf:RDF>
      <cc:Work
         rdf:about="">
        <dc:format>image/svg+xml</dc:format>
        <dc:type
           rdf:resource="http://purl.org/dc/dcmitype/StillImage" />
        <dc:title></dc:title>
      </cc:Work>
    </rdf:RDF>
  </metadata>
  <defs
     id="defs10" />
  <path
     d="m 17,1 134,0 0,40 -134,0 0,-16 0,-2 -12,0 0,6 -4,0 0,-16 4,0 0,6 12,0 0,-2 z"
     id="path6"
     style="fill:#ff48ff;fill-opacity:1;stroke:#b52882;stroke-width:2;stroke-linecap:round;stroke-opacity:1" />
  <path
     d="m 121.88588,14.716677 q 1.79487,-1.794871 3.58974,0.897437 l 0,10.76923 q 0.89744,1.794872 1.79488,0 l 0,-21.5384611 q 1.79487,-1.7948718 3.58974,0 l 0,16.1538461 q 0.89743,1.794872 1.79487,0 l 0,-16.1538461 q 1.79487,-1.7948718 3.58974,0 l 0,16.1538461 q 0.89744,1.794872 1.79488,0 l 0,-16.1538461 q 1.79487,-1.7948718 3.58974,0 l 0,16.1538461 q 0.89744,1.794872 1.79487,0 l 0,-11.666667 q 1.79487,-1.7948714 3.58975,0 l 0,22.435898 q 0,6.282051 -5.38462,7.179487 l -14.35897,0 q -5.38462,0 -5.38462,-7.179487"
     id="path4"
     style="fill:#ffffff;fill-opacity:1;stroke:none" />
</svg>
