<?xml version="1.0" encoding="UTF-8" standalone="no"?>
<!-- Created with Inkscape (http://www.inkscape.org/) -->

<svg
   xmlns:dc="http://purl.org/dc/elements/1.1/"
   xmlns:cc="http://creativecommons.org/ns#"
   xmlns:rdf="http://www.w3.org/1999/02/22-rdf-syntax-ns#"
   xmlns:svg="http://www.w3.org/2000/svg"
   xmlns="http://www.w3.org/2000/svg"
   version="1.0"
   width="55"
   height="55"
   id="svg2">
  <metadata
     id="metadata10">
    <rdf:RDF>
      <cc:Work
         rdf:about="">
        <dc:format>image/svg+xml</dc:format>
        <dc:type
           rdf:resource="http://purl.org/dc/dcmitype/StillImage" />
        <dc:title></dc:title>
      </cc:Work>
    </rdf:RDF>
  </metadata>
  <defs
     id="defs8" />
  <rect
     width="42.345783"
     height="42.345783"
     x="6.3271084"
     y="6.3271084"
     id="rect3016"
     style="fill:#282828;fill-opacity:1;stroke:#282828;stroke-width:2.6542182;stroke-linecap:round;stroke-linejoin:miter;stroke-miterlimit:4;stroke-opacity:1;stroke-dasharray:none" />
  <g
     transform="matrix(0.64,0,0,0.63959066,9.90448,9.9400384)"
     id="g3">
    <polygon
       points="26.891,12.363 17.238,16.369 14.659,4.975 20.555,2.531 "
       id="polygon5"
       style="fill:#ffffff" />
    <polygon
       points="42.646,26.88 38.649,17.228 50.04,14.654 52.477,20.55 "
       id="polygon7"
       style="fill:#ffffff" />
    <polygon
       points="28.117,42.645 37.775,38.645 40.349,50.029 34.453,52.471 "
       id="polygon9"
       style="fill:#ffffff" />
    <polygon
       points="37.824,16.315 28.171,12.309 34.394,2.439 40.295,4.882 "
       id="polygon11"
       style="fill:#ffffff" />
    <polygon
       points="38.628,37.791 42.623,28.139 52.493,34.365 50.055,40.258 "
       id="polygon13"
       style="fill:#ffffff" />
    <polygon
       points="16.385,37.76 12.391,28.105 2.515,34.34 4.953,40.234 "
       id="polygon15"
       style="fill:#ffffff" />
    <polygon
       points="12.319,26.875 16.32,17.216 4.936,14.643 2.493,20.539 "
       id="polygon17"
       style="fill:#ffffff" />
    <polygon
       points="26.939,42.623 17.287,38.629 14.719,50.018 20.609,52.461 "
       id="polygon19"
       style="fill:#ffffff" />
    <path
       d="m 39.925,22.352 c 2.845,6.863 -0.412,14.728 -7.274,17.574 -6.867,2.85 -14.734,-0.418 -17.578,-7.281 -2.84,-6.862 0.418,-14.733 7.279,-17.572 6.862,-2.845 14.734,0.417 17.573,7.279 z"
       id="path21"
       style="fill:none;stroke:#ffffff;stroke-width:11.69439983" />
  </g>
</svg>
