<?xml version="1.0" encoding="UTF-8" standalone="no"?>
<!-- Created with Inkscape (http://www.inkscape.org/) -->

<svg
   xmlns:dc="http://purl.org/dc/elements/1.1/"
   xmlns:cc="http://creativecommons.org/ns#"
   xmlns:rdf="http://www.w3.org/1999/02/22-rdf-syntax-ns#"
   xmlns:svg="http://www.w3.org/2000/svg"
   xmlns="http://www.w3.org/2000/svg"
   version="1.0"
   width="55"
   height="55"
   id="svg2">
  <metadata
     id="metadata4006">
    <rdf:RDF>
      <cc:Work
         rdf:about="">
        <dc:format>image/svg+xml</dc:format>
        <dc:type
           rdf:resource="http://purl.org/dc/dcmitype/StillImage" />
        <dc:title></dc:title>
      </cc:Work>
    </rdf:RDF>
  </metadata>
  <defs
     id="defs5" />
  <rect
     width="45"
     height="45"
     x="5"
     y="5"
     id="rect2990"
     style="fill:#282828;fill-opacity:1;stroke:none" />
  <path
     d="m 14.85,27.1 -0.45,13.15 4.35,-2.4 c 0,0 6.349418,4.294879 10.2,4.05 4.946317,-0.314563 11.65,-7.5 11.65,-7.5 l -2.25,-2.3 c 0,0 -5.615371,6.15399 -9.4,6.65 -2.286298,0.29964 -7.05,-2.5 -7.05,-2.5 L 26,34.1 14.85,27.1 z"
     id="path3590"
     style="fill:none;stroke:#ffffff;stroke-width:2.29999995;stroke-linecap:butt;stroke-linejoin:miter;stroke-miterlimit:4;stroke-opacity:1;stroke-dasharray:none" />
  <path
     d="m 40.15,28.955044 0.45,-13.150001 -4.35,2.4 c 0,0 -6.349418,-4.294879 -10.2,-4.05 -4.946317,0.314563 -11.65,7.5 -11.65,7.5 l 2.25,2.3 c 0,0 5.615371,-6.15399 9.4,-6.65 2.286298,-0.29964 7.05,2.5 7.05,2.5 l -4.1,2.15 11.15,7.000001 z"
     id="path3590-4"
     style="fill:none;stroke:#ffffff;stroke-width:2.29999995;stroke-linecap:butt;stroke-linejoin:miter;stroke-miterlimit:4;stroke-opacity:1;stroke-dasharray:none" />
</svg>
