<?xml version="1.0" encoding="UTF-8" standalone="no"?>
<!-- Created with Inkscape (http://www.inkscape.org/) -->

<svg
   xmlns:dc="http://purl.org/dc/elements/1.1/"
   xmlns:cc="http://creativecommons.org/ns#"
   xmlns:rdf="http://www.w3.org/1999/02/22-rdf-syntax-ns#"
   xmlns:svg="http://www.w3.org/2000/svg"
   xmlns="http://www.w3.org/2000/svg"
   version="1.1"
   width="84"
   height="49"
   id="svg2">
  <g
     transform="scale(2,2)"
     id="g4"
     style="stroke-width:1;stroke-miterlimit:4;stroke-dasharray:none">
    <path
       d="m 8.5,8.5 0,-4 c 0,-2.0943951 1.905605,-4 4,-4 l 4,0 10,0 7,0 4,0 c 2.094395,0 3.492035,1.9681383 4,4 l 0,4 -4,0 0,-3 -4,0 0,10 4,0 0,-3 4,0 0,4 -33,0 0,-4 0,-1 -6,0 0,3 -2,0 0,-8 2,0 0,3 6,0 z"
       id="path4"
       style="fill:#ff00ff;fill-opacity:1;stroke:#c700d3;stroke-width:1;stroke-linecap:round;stroke-miterlimit:4;stroke-opacity:1;stroke-dasharray:none" />
  </g>
  <rect
     width="64"
     height="2"
     x="18"
     y="32"
     id="rect2984-3"
     style="fill:#ff00ff;fill-opacity:1;fill-rule:nonzero;stroke:none" />
  <g
     transform="translate(8.8936172,-5.031915)"
     id="g3037">
    <path
       d="m 7.106383,39.031914 0,17.000001 68,0 0,-17.000001 z"
       id="path6-3"
       style="fill:#ff00ff;fill-opacity:1;stroke:none" />
    <rect
       width="2"
       height="17"
       x="7.1063828"
       y="39.031914"
       id="rect3115"
       style="fill:#c700d3;fill-opacity:1;fill-rule:nonzero;stroke:none" />
    <rect
       width="2"
       height="17"
       x="73.106384"
       y="39.031914"
       id="rect3115-8"
       style="fill:#c700d3;fill-opacity:1;fill-rule:nonzero;stroke:none" />
  </g>
  <text
     x="47.816406"
     y="49.957447"
     id="text2985"
     xml:space="preserve"
     style="font-size:16px;font-style:normal;font-weight:normal;text-align:end;line-height:125%;letter-spacing:0px;word-spacing:0px;text-anchor:end;fill:#000000;fill-opacity:1;stroke:none;font-family:Sans"><tspan
       x="47.816406"
       y="47.957447"
       id="tspan2987"
       style="font-size:24px">–</tspan></text>
</svg>
