<?xml version="1.0" encoding="UTF-8" standalone="no"?>
<!-- Created with Inkscape (http://www.inkscape.org/) -->

<svg
   xmlns:dc="http://purl.org/dc/elements/1.1/"
   xmlns:cc="http://creativecommons.org/ns#"
   xmlns:rdf="http://www.w3.org/1999/02/22-rdf-syntax-ns#"
   xmlns:svg="http://www.w3.org/2000/svg"
   xmlns="http://www.w3.org/2000/svg"
   version="1.0"
   width="55"
   height="55"
   id="svg2">
  <metadata
     id="metadata13">
    <rdf:RDF>
      <cc:Work
         rdf:about="">
        <dc:format>image/svg+xml</dc:format>
        <dc:type
           rdf:resource="http://purl.org/dc/dcmitype/StillImage" />
        <dc:title></dc:title>
      </cc:Work>
    </rdf:RDF>
  </metadata>
  <defs
     id="defs5" />
  <rect
     width="45"
     height="45"
     x="5"
     y="5"
     id="rect2990"
     style="fill:#282828;fill-opacity:1;stroke:none" />
  <path
     d="m 11.152285,41.709935 c 1.43401,0.788706 5.23977,1.402428 7.528553,1.290609 1.626167,-0.07945 3.914929,-0.479849 5.234137,-1.43401 2.238123,-1.618798 3.032695,-5.829627 5.090736,-7.671954 1.225701,-1.097229 3.231844,-2.444635 4.875634,-2.509518 2.003851,-0.07909 4.468168,1.514349 6.166244,2.581219 1.290216,0.810619 3.800127,3.369923 3.800127,3.369923"
     id="path2471"
     style="fill:none;stroke:#ffffff;stroke-width:2.5;stroke-linecap:round;stroke-miterlimit:4;stroke-opacity:1" />
  <path
     d="m 35.566307,13.352385 2.437818,-2.366117 1.200984,0.84248 1.416085,1.200984 0.985882,1.272684 0.914181,1.487786 -2.366117,2.509519 -0.896257,-1.505711 -2.186866,-2.366117 -1.50571,-1.075508 z"
     id="path3255"
     style="fill:none;stroke:#ffffff;stroke-width:1px;stroke-opacity:1" />
  <path
     d="m 32.877538,16.112854 2.294417,-2.079315 1.200984,0.84248 1.416085,1.200984 0.985882,1.272684 0.914181,1.487786 -2.079315,1.864214 -0.967957,-1.147208 -2.330267,-2.222716 -1.43401,-1.218909 z"
     id="path3253"
     style="fill:none;stroke:#ffffff;stroke-width:1px;stroke-opacity:1" />
  <path
     d="m 13.423248,38.807621 0.891754,-3.80169 18.820708,-18.21056 -0.469344,-0.680549 2.252852,-2.135517 5.115854,5.115853 -2.229385,2.135517 -0.774419,-0.539747 -19.05538,18.022823 -3.70782,0.657082 -0.84482,-0.563212 z"
     id="path2822"
     style="fill:none;stroke:#ffffff;stroke-width:2.5;stroke-linecap:round;stroke-linejoin:miter;stroke-miterlimit:4;stroke-opacity:1" />
  <path
     d="m 33.482432,17.358584 3.660886,3.473148"
     id="path3596"
     style="fill:none;stroke:#ffffff;stroke-width:2.5;stroke-linecap:butt;stroke-linejoin:miter;stroke-miterlimit:4;stroke-opacity:1" />
  <path
     d="m 10.935723,41.905293 2.769132,-2.816066"
     id="path3598"
     style="fill:none;stroke:#ffffff;stroke-width:2.5;stroke-linecap:round;stroke-linejoin:miter;stroke-miterlimit:4;stroke-opacity:1" />
  <path
     d="m 14.690478,35.287537 c 0,0 1.594197,0.393866 2.158983,0.93869 0.574138,0.553844 1.032558,2.158984 1.032558,2.158984"
     id="path3600"
     style="fill:none;stroke:#ffffff;stroke-width:2.5;stroke-linecap:butt;stroke-linejoin:miter;stroke-miterlimit:4;stroke-opacity:1" />
</svg>
