<?xml version="1.0" encoding="UTF-8" standalone="no"?>
<!-- Created with Inkscape (http://www.inkscape.org/) -->

<svg
   xmlns:dc="http://purl.org/dc/elements/1.1/"
   xmlns:cc="http://creativecommons.org/ns#"
   xmlns:rdf="http://www.w3.org/1999/02/22-rdf-syntax-ns#"
   xmlns:svg="http://www.w3.org/2000/svg"
   xmlns="http://www.w3.org/2000/svg"
   version="1.1"
   width="84"
   height="49"
   id="svg2">
  <metadata
     id="metadata16">
    <rdf:RDF>
      <cc:Work
         rdf:about="">
        <dc:format>image/svg+xml</dc:format>
        <dc:type
           rdf:resource="http://purl.org/dc/dcmitype/StillImage" />
        <dc:title></dc:title>
      </cc:Work>
    </rdf:RDF>
  </metadata>
  <defs
     id="defs14" />
  <g
     transform="scale(2,2)"
     id="g4"
     style="stroke-width:1;stroke-miterlimit:4;stroke-dasharray:none">
    <path
       d="m 8.5,8.5 0,-4 c 0,-2.0943951 1.905605,-4 4,-4 l 4,0 10,0 7,0 4,0 c 2.094395,0 3.492035,1.9681383 4,4 l 0,4 -4,0 0,-3 -4,0 0,10 4,0 0,-3 4,0 0,11.5 -33,0 0,-11.5 0,-1 -6,0 0,3 -2,0 0,-8 2,0 0,3 6,0 z"
       id="path4"
       style="fill:#ff00ff;fill-opacity:1;stroke:#c700d3;stroke-width:1;stroke-linecap:round;stroke-miterlimit:4;stroke-opacity:1;stroke-dasharray:none" />
  </g>
  <rect
     width="64"
     height="2"
     x="18"
     y="47"
     id="rect2984-3"
     style="fill:#ff00ff;fill-opacity:1;fill-rule:nonzero;stroke:none" />
  <text
     x="-11.820312"
     y="49.957447"
     id="text2985"
     xml:space="preserve"
     style="font-size:16px;font-style:normal;font-weight:normal;text-align:center;line-height:125%;letter-spacing:0px;word-spacing:0px;text-anchor:middle;fill:#000000;fill-opacity:1;stroke:none;font-family:Sans"><tspan
       x="49.816406"
       y="47.957447"
       id="tspan2987"
       style="font-size:16px;text-align:center;text-anchor:middle">random</tspan></text>
  <text
     x="63.550781"
     y="25"
     id="text2993"
     xml:space="preserve"
     style="font-size:16px;font-style:normal;font-weight:normal;text-align:end;line-height:125%;letter-spacing:0px;word-spacing:0px;text-anchor:end;fill:#000000;fill-opacity:1;stroke:none;font-family:Sans"><tspan
       x="63.550781"
       y="25"
       id="tspan2995"
       style="font-size:12px">min</tspan></text>
</svg>
