<?xml version="1.0" encoding="UTF-8" standalone="no"?>
<!-- Created with Inkscape (http://www.inkscape.org/) -->

<svg
   xmlns:dc="http://purl.org/dc/elements/1.1/"
   xmlns:cc="http://creativecommons.org/ns#"
   xmlns:rdf="http://www.w3.org/1999/02/22-rdf-syntax-ns#"
   xmlns:svg="http://www.w3.org/2000/svg"
   xmlns="http://www.w3.org/2000/svg"
   version="1.1"
   width="55"
   height="55"
   viewBox="0 0 55 55"
   id="svg2"
   xml:space="preserve"><metadata
   id="metadata15"><rdf:RDF><cc:Work
       rdf:about=""><dc:format>image/svg+xml</dc:format><dc:type
         rdf:resource="http://purl.org/dc/dcmitype/StillImage" /><dc:title></dc:title></cc:Work></rdf:RDF></metadata><defs
   id="defs13" />
<rect
   width="42.763924"
   height="42.763924"
   x="6.1180382"
   y="6.1180382"
   id="rect2986"
   style="fill:#282828;fill-opacity:1;stroke:#282828;stroke-width:2.23607516;stroke-linecap:round;stroke-linejoin:miter;stroke-miterlimit:4;stroke-opacity:1;stroke-dasharray:none" /><g
   transform="matrix(0.87078705,0,0,0.87078705,3.2821055,2.9298726)"
   id="network-wired_1_"
   style="display:block">
	<g
   id="network-wired">
		<line
   id="line3076"
   y2="23.993"
   y1="32.438999"
   x2="16.966999"
   x1="16.966999"
   style="fill:none;stroke:#ffffff;stroke-width:3.5;stroke-linecap:round" />
		<line
   id="line3078"
   y2="28.215"
   y1="28.215"
   x2="34.938"
   x1="29.636999"
   style="fill:none;stroke:#ffffff;stroke-width:3.5;stroke-linecap:round" />
		
			<rect
   width="9.7939997"
   height="7.599"
   x="42.157001"
   y="24.312"
   id="rect3080"
   style="fill:#ffffff;stroke:#ffffff;stroke-width:2.25;stroke-linecap:round" />
		<path
   d="m 16.967,23.993 c 0,-2.334 -1.892,-4.224 -4.224,-4.224 -2.332,0 -4.223,1.889 -4.223,4.224"
   id="path3082"
   style="fill:none;stroke:#ffffff;stroke-width:3.5;stroke-linecap:round;stroke-linejoin:round" />
		<path
   d="m 25.413,32.439 c 0,2.334 -1.891,4.224 -4.224,4.224 -2.332,0 -4.223,-1.89 -4.223,-4.224"
   id="path3084"
   style="fill:none;stroke:#ffffff;stroke-width:3.5;stroke-linecap:round;stroke-linejoin:round" />
		<path
   d="m 25.413,32.439 c 0,-2.332 1.893,-4.226 4.224,-4.226"
   id="path3086"
   style="fill:none;stroke:#ffffff;stroke-width:3.5;stroke-linecap:round;stroke-linejoin:round" />
		<path
   d="m 8.52,23.993 c 0,2.332 -1.892,4.222 -4.223,4.222"
   id="path3088"
   style="fill:none;stroke:#ffffff;stroke-width:3.5;stroke-linecap:round;stroke-linejoin:round" />
		
			<rect
   width="14.477"
   height="11.35"
   x="31.945"
   y="22.438"
   id="rect3090"
   style="fill:#ffffff;stroke:#ffffff;stroke-width:3.5;stroke-linecap:round;stroke-linejoin:round" />
	</g>
</g></svg>