<?xml version="1.0" encoding="UTF-8" standalone="no"?>
<!-- Created with Inkscape (http://www.inkscape.org/) -->

<svg
   xmlns:dc="http://purl.org/dc/elements/1.1/"
   xmlns:cc="http://creativecommons.org/ns#"
   xmlns:rdf="http://www.w3.org/1999/02/22-rdf-syntax-ns#"
   xmlns:svg="http://www.w3.org/2000/svg"
   xmlns="http://www.w3.org/2000/svg"
   version="1.1"
   width="84"
   height="42"
   id="svg2">
  <g
     transform="matrix(2,0,0,2,-20,0)"
     id="g4">
    <path
       d="m 12.5,9.5 6,0 0,-9 c 15.333333,0 9.666667,0 25,0 l 4,0 c 2.094395,0 4,1.9056049 4,4 l 0,4 -4,0 0,-3 -4,0 0,10 4,0 0,-3 4,0 0,4 c 0,2.094395 -1.905605,4 -4,4 l -4,0 c -15.333333,0 -9.666667,0 -25,0 l 0,-9 -6,0 0,3 -2,0 0,-8 2,0 z"
       id="path6"
     style="fill:#ff00ff;fill-opacity:1;stroke:#c700d3;stroke-width:1;stroke-linecap:round;stroke-opacity:1" />
  </g>
  <text
     x="55.884766"
     y="27.745117"
     id="text3051"
     xml:space="preserve"
     style="font-size:16px;font-style:normal;font-weight:normal;text-align:end;line-height:125%;letter-spacing:0px;word-spacing:0px;text-anchor:end;fill:#000000;fill-opacity:1;stroke:none;font-family:Sans"><tspan
       x="55.884766"
       y="27.745117"
       id="tspan3053"
       style="font-size:18px">sqrt</tspan></text>
</svg>
