<?xml version="1.0" encoding="UTF-8" standalone="no"?>
<!-- Created with Inkscape (http://www.inkscape.org/) -->

<svg
   xmlns:dc="http://purl.org/dc/elements/1.1/"
   xmlns:cc="http://creativecommons.org/ns#"
   xmlns:rdf="http://www.w3.org/1999/02/22-rdf-syntax-ns#"
   xmlns:svg="http://www.w3.org/2000/svg"
   xmlns="http://www.w3.org/2000/svg"
   version="1.1"
   width="132"
   height="88"
   id="svg2989">
  <metadata
     id="metadata2999">
    <rdf:RDF>
      <cc:Work
         rdf:about="">
        <dc:format>image/svg+xml</dc:format>
        <dc:type
           rdf:resource="http://purl.org/dc/dcmitype/StillImage" />
        <dc:title></dc:title>
      </cc:Work>
    </rdf:RDF>
  </metadata>
  <defs
     id="defs2997" />
  <g
     transform="matrix(2,0,0,2,0,14)"
     id="g2991"
     style="fill:#ffff00;stroke:#a0a000;stroke-opacity:1">
    <path
       d="m 0.5,8.5 0,-4 c 0,-2.0943951 1.9056049,-4 4,-4 l 4,0 5,-7 5,7 9,0 30,0 4,0 c 2.094395,0 4,1.9056049 4,4 l 0,12 c 0,2.094395 -1.905605,4 -4,4 l -4,0 -30,0 -1,0 0,2 -8,0 0,-2 -1,0 -4,0 c -2.617994,0 -5,2.382006 -5,5 l -8,0 z"
       id="path2993"
       style="fill:#ffff00;fill-opacity:1;stroke:#a0a000;stroke-width:1;stroke-linecap:round;stroke-opacity:1" />
  </g>
  <text
     x="56.000977"
     y="42.723404"
     id="text2985"
     xml:space="preserve"
     style="font-size:16px;font-style:normal;font-weight:normal;text-align:end;line-height:125%;letter-spacing:0px;word-spacing:0px;text-anchor:end;fill:#000000;fill-opacity:1;stroke:none;font-family:Sans"><tspan
       x="56.000977"
       y="42.723404"
       id="tspan2987"
       style="font-size:18px">start</tspan></text>
  <g
     transform="translate(0.17325328,0.1671734)"
     id="g3044">
    <rect
       width="14"
       height="4"
       x="2"
       y="62"
       id="rect3001"
       style="fill:#ffff00;fill-opacity:1;fill-rule:nonzero;stroke:none" />
    <path
       d="m 0.93159365,66.937672 15.79030835,0 c 0,6.59677 0,13.193539 0,19.790309 l -15.79030835,0 z"
       id="path3062"
       style="fill:#ffff00;fill-opacity:1;stroke:#ffff0f;stroke-width:2.20969129;stroke-linecap:round;stroke-opacity:0.94117647" />
    <path
       d="m 0.86227065,67.017617 0,19.594575"
       id="path2984"
       style="fill:#a0a000;fill-opacity:1;stroke:none" />
    <rect
       width="2"
       height="22"
       x="-0.17325328"
       y="65.832825"
       id="rect3753"
       style="fill:#a0a000;fill-opacity:1;fill-rule:nonzero;stroke:none" />
    <rect
       width="2"
       height="22"
       x="15.826747"
       y="65.832825"
       id="rect3753-6"
       style="fill:#a0a000;fill-opacity:1;fill-rule:nonzero;stroke:none" />
  </g>
</svg>
