<?xml version="1.0" encoding="UTF-8" standalone="no"?>
<!-- Created with Inkscape (http://www.inkscape.org/) -->

<svg
   xmlns:dc="http://purl.org/dc/elements/1.1/"
   xmlns:cc="http://creativecommons.org/ns#"
   xmlns:rdf="http://www.w3.org/1999/02/22-rdf-syntax-ns#"
   xmlns:svg="http://www.w3.org/2000/svg"
   xmlns="http://www.w3.org/2000/svg"
   version="1.1"
   width="114"
   height="51"
   id="svg2">
  <g
     transform="matrix(2,0,0,2,29,0)"
     id="g4">
    <path
       d="m -14,4.5 c 0,-2.0943951 1.905605,-4 4,-4 l 4,0 0,2 10,0 0,-2 22.5,0 7.5,0 4,0 c 2.094395,0 3.492035,1.9681383 4,4 l 0,4 -4,0 0,-3 -4,0 0,10 4,0 0,-3 4,0 0,4 -56,0 c 0,-4 0,-8 0,-12 z"
       id="path6"
       style="fill:#ffc000;fill-opacity:1;stroke:#c48d00;stroke-width:1;stroke-linecap:round;stroke-opacity:1" />
  </g>
  <rect
     width="110"
     height="2"
     x="2"
     y="32"
     id="rect2984-3"
     style="fill:#ffc000;fill-opacity:1;fill-rule:nonzero;stroke:none" />
  <text
     x="89.835869"
     y="24.595745"
     id="text3024"
     xml:space="preserve"
     style="font-size:16px;font-style:normal;font-weight:normal;text-align:end;line-height:125%;letter-spacing:0px;word-spacing:0px;text-anchor:end;fill:#000000;fill-opacity:1;stroke:none;font-family:Sans"><tspan
       x="89.835869"
       y="24.595745"
       id="tspan3026"
       style="font-size:12px">name</tspan></text>
  <path
     d="M 0,33.999999 0,51 l 114,0 0,-17.000001 z"
     id="path6-5"
     style="fill:#ffc000;fill-opacity:1;stroke:none" />
  <rect
     width="2"
     height="17"
     x="6.4648435e-07"
     y="34"
     id="rect3115"
     style="fill:#c48d00;fill-opacity:1;fill-rule:nonzero;stroke:none" />
  <rect
     width="2"
     height="17"
     x="112"
     y="34"
     id="rect3115-8"
     style="fill:#c48d00;fill-opacity:1;fill-rule:nonzero;stroke:none" />
  <text
     x="81.735352"
     y="49.3074"
     id="text2985"
     xml:space="preserve"
     style="font-size:16px;font-style:normal;font-weight:normal;text-align:end;line-height:125%;letter-spacing:0px;word-spacing:0px;text-anchor:end;fill:#000000;fill-opacity:1;stroke:none;font-family:Sans"><tspan
       x="81.735352"
       y="49.3074"
       id="tspan2987"
       style="font-size:18px">store in</tspan></text>
</svg>
