<?xml version="1.0" encoding="UTF-8" standalone="no"?>
<!-- Created with Inkscape (http://www.inkscape.org/) -->

<svg
   xmlns:dc="http://purl.org/dc/elements/1.1/"
   xmlns:cc="http://creativecommons.org/ns#"
   xmlns:rdf="http://www.w3.org/1999/02/22-rdf-syntax-ns#"
   xmlns:svg="http://www.w3.org/2000/svg"
   xmlns="http://www.w3.org/2000/svg"
   version="1.1"
   width="114"
   height="39"
   id="svg2">
  <metadata
     id="metadata12">
    <rdf:RDF>
      <cc:Work
         rdf:about="">
        <dc:format>image/svg+xml</dc:format>
        <dc:type
           rdf:resource="http://purl.org/dc/dcmitype/StillImage" />
        <dc:title></dc:title>
      </cc:Work>
    </rdf:RDF>
  </metadata>
  <defs
     id="defs10" />
  <g
     transform="matrix(2,0,0,2,30,-49)"
     id="g4">
    <path
       d="m 41.5,25 0,4.5 -4,0 0,-3 -4,0 0,10 4,0 0,-3 4,0 0,4 c 0,2.094395 -1.905605,4 -4,4 l -4,0 -31,0 0,2 -8,0 0,-2 -1,0 -4,0 c -2.094395,0 -4,-1.872546 -4,-4 l 0,-4 0,-8.5 z"
       id="path6"
       style="fill:#ffc000;fill-opacity:1;stroke:#c48d00;stroke-width:1;stroke-linecap:round;stroke-opacity:1" />
  </g>
  <rect
     width="110"
     height="2"
     x="2"
     y="0"
     id="rect2984-3"
     style="fill:#ffc000;fill-opacity:1;fill-rule:nonzero;stroke:none" />
  <text
     x="89.801758"
     y="18.775391"
     id="text3024"
     xml:space="preserve"
     style="font-size:16px;font-style:normal;font-weight:normal;text-align:end;line-height:125%;letter-spacing:0px;word-spacing:0px;text-anchor:end;fill:#000000;fill-opacity:1;stroke:none;font-family:Sans"><tspan
       x="89.801758"
       y="18.775391"
       id="tspan3026"
       style="font-size:12px">value</tspan></text>
</svg>
