<?xml version="1.0" encoding="UTF-8" standalone="no"?>
<!-- Created with Inkscape (http://www.inkscape.org/) -->

<svg
   xmlns:dc="http://purl.org/dc/elements/1.1/"
   xmlns:cc="http://creativecommons.org/ns#"
   xmlns:rdf="http://www.w3.org/1999/02/22-rdf-syntax-ns#"
   xmlns:svg="http://www.w3.org/2000/svg"
   xmlns="http://www.w3.org/2000/svg"
   version="1.1"
   width="152"
   height="42"
   id="svg2">
  <metadata
     id="metadata12">
    <rdf:RDF>
      <cc:Work
         rdf:about="">
        <dc:format>image/svg+xml</dc:format>
        <dc:type
           rdf:resource="http://purl.org/dc/dcmitype/StillImage" />
        <dc:title></dc:title>
      </cc:Work>
    </rdf:RDF>
  </metadata>
  <defs
     id="defs10" />
  <path
     d="m 17,1 134,0 0,40 -134,0 0,-16 0,-2 -12,0 0,6 -4,0 0,-16 4,0 0,6 12,0 0,-2 z"
     id="path6"
     style="fill:#ffff00;fill-opacity:1;stroke:#a0a000;stroke-width:2;stroke-linecap:round;stroke-opacity:1" />
  <path
     d="m 125.88588,15.639754 q 1.28205,-1.282051 2.5641,0.641027 l 0,7.692307 q 0.64103,1.282051 1.28206,0 l 0,-15.384615 q 1.28205,-1.282052 2.5641,0 l 0,11.538461 q 0.64102,1.282052 1.28205,0 l 0,-11.538461 q 1.28205,-1.282052 2.5641,0 l 0,11.538461 q 0.64103,1.282052 1.28205,0 l 0,-11.538461 q 1.28205,-1.282052 2.5641,0 l 0,11.538461 q 0.64103,1.282052 1.28205,0 l 0,-8.333333 q 1.28205,-1.282051 2.56411,0 l 0,16.025641 q 0,4.487179 -3.84616,5.128205 l -10.2564,0 q -3.84616,0 -3.84616,-5.128205"
     id="path4"
     style="fill:#e0e0a0;fill-opacity:1;stroke:none" />
</svg>
