<?xml version="1.0" encoding="UTF-8" standalone="no"?>
<!-- Created with Inkscape (http://www.inkscape.org/) -->

<svg
   xmlns:dc="http://purl.org/dc/elements/1.1/"
   xmlns:cc="http://creativecommons.org/ns#"
   xmlns:rdf="http://www.w3.org/1999/02/22-rdf-syntax-ns#"
   xmlns:svg="http://www.w3.org/2000/svg"
   xmlns="http://www.w3.org/2000/svg"
   version="1.0"
   width="55"
   height="55"
   id="svg2">
  <metadata
     id="metadata3044">
    <rdf:RDF>
      <cc:Work
         rdf:about="">
        <dc:format>image/svg+xml</dc:format>
        <dc:type
           rdf:resource="http://purl.org/dc/dcmitype/StillImage" />
        <dc:title></dc:title>
      </cc:Work>
    </rdf:RDF>
  </metadata>
  <defs
     id="defs5" />
  <rect
     width="45"
     height="45"
     x="5"
     y="5"
     id="rect2990"
     style="fill:#282828;fill-opacity:1;stroke:none" />
  <path
     d="m 27.567493,45.252146 c -0.46948,0 -0.933016,-0.02903 -1.389761,-0.08296 l 1.178368,1.948634 1.161389,-1.918769 c -0.314968,0.02489 -0.629086,0.05309 -0.949996,0.05309 z"
     id="path3003"
     style="fill:none;stroke:#ffffff;stroke-width:1.20000005;stroke-miterlimit:4;stroke-opacity:1;stroke-dasharray:none" />
  <path
     d="m 38.317981,14.929279 c -1.837168,0 -3.360217,1.289964 -3.68707,2.992219 1.578232,1.115757 2.934884,2.584076 3.968928,4.320343 1.939893,-0.142684 3.475677,-1.709721 3.475677,-3.641764 0,-2.027442 -1.682656,-3.670798 -3.757535,-3.670798 z"
     id="path3007"
     style="fill:#686868;fill-opacity:1;stroke:#ffffff;stroke-width:2.29999995;stroke-miterlimit:4;stroke-opacity:1;stroke-dasharray:none" />
  <path
     d="m 38.787461,38.290488 c -1.039138,1.851575 -2.42805,3.426908 -4.072502,4.609029 0.442312,1.546298 1.878767,2.686942 3.603022,2.686942 2.07403,0 3.757535,-1.642527 3.757535,-3.669969 0,-1.870656 -1.437304,-3.397874 -3.288055,-3.626002 z"
     id="path3009"
     style="fill:#686868;fill-opacity:1;stroke:#ffffff;stroke-width:2.29999995;stroke-miterlimit:4;stroke-opacity:1;stroke-dasharray:none" />
  <path
     d="m 16.340734,38.277215 c -1.912727,0.170889 -3.41625,1.724653 -3.41625,3.639275 0,2.026612 1.680958,3.669969 3.755837,3.669969 1.752271,0 3.212497,-1.177974 3.626793,-2.764091 -1.598607,-1.174655 -2.950165,-2.728419 -3.96638,-4.545153 z"
     id="path3011"
     style="fill:#686868;fill-opacity:1;stroke:#ffffff;stroke-width:2.29999995;stroke-miterlimit:4;stroke-opacity:1;stroke-dasharray:none" />
  <path
     d="m 20.375881,18.007772 c -0.291196,-1.744563 -1.828678,-3.078493 -3.69556,-3.078493 -2.074879,0 -3.755837,1.643356 -3.755837,3.669968 0,1.97601 1.601155,3.575399 3.603872,3.655037 1.006876,-1.694789 2.319381,-3.139051 3.847525,-4.246512 z"
     id="path3013"
     style="fill:#686868;fill-opacity:1;stroke:#ffffff;stroke-width:2.29999995;stroke-miterlimit:4;stroke-opacity:1;stroke-dasharray:none" />
  <path
     d="m 27.567493,15.62362 c 1.619832,0 3.164955,0.340948 4.599711,0.935742 0.629086,-0.892605 1.000085,-1.971862 1.000085,-3.138221 0,-3.058584 -2.537567,-5.5389654 -5.668563,-5.5389654 -3.130146,0 -5.667713,2.4803814 -5.667713,5.5389654 0,1.18461 0.383734,2.280457 1.032345,3.180529 1.463622,-0.62134 3.04525,-0.97805 4.704135,-0.97805 z"
     id="path3015"
     style="fill:#686868;fill-opacity:1;stroke:#ffffff;stroke-width:2.29999995;stroke-miterlimit:4;stroke-opacity:1;stroke-dasharray:none" />
  <g
     transform="matrix(0.8489685,0,0,0.82955893,4.2234061,5.2018707)"
     id="g3017"
     style="fill:#686868;fill-opacity:1;stroke:#ffffff;stroke-width:1.42992032;stroke-miterlimit:4;stroke-opacity:1;stroke-dasharray:none">
    <path
       d="m 43.102,30.421 c 0,4.7344 -1.6452,9.2798 -4.5706,12.6275 -2.9254,3.3478 -6.8973,5.2305 -11.0344,5.2305 -4.1371,0 -8.109,-1.8827 -11.0344,-5.2305 -2.9254,-3.3477 -4.5706,-7.8931 -4.5706,-12.6275 0,-9.7966 7.0444,-17.858 15.605,-17.858 8.5606,0 15.605,8.0614 15.605,17.858 z"
       id="path3019"
       style="fill:#686868;fill-opacity:1;stroke:#ffffff;stroke-width:1.42992032;stroke-miterlimit:4;stroke-opacity:1;stroke-dasharray:none" />
  </g>
  <g
     transform="matrix(0.8489685,0,0,0.82955893,4.2234061,5.2018707)"
     id="g3021"
     style="fill:#ffffff;fill-opacity:1;stroke:none">
    <path
       d="m 25.875,33.75 -1.542,-4.625 3.164,-2.587 3.615,2.626 -1.487,4.669 z"
       id="path3023"
       style="fill:#ffffff;fill-opacity:1;stroke:none" />
    <path
       d="m 27.501,41.551 c -3.968,-0.16 -5.543,-2.009 -5.543,-2.009 l 3.57,-4.163 4.465,0.168 3.132,4.12 c 0,0 -2.89,1.994 -5.624,1.884 z"
       id="path3025"
       style="fill:#ffffff;fill-opacity:1;stroke:none" />
    <path
       d="m 18.453,33.843 c -0.849,-2.968 0.172,-6.884 0.172,-6.884 l 4,2.167 1.493,4.629 -3.582,4.233 c 0,-10e-4 -1.465,-1.99 -2.083,-4.145 z"
       id="path3027"
       style="fill:#ffffff;fill-opacity:1;stroke:none" />
    <path
       d="m 19.458,25.125 c 0,0 0.5,-1.958 3.039,-3.822 2.237,-1.643 4.465,-1.72 4.465,-1.72 l -0.037,4.981 -3.521,2.75 -3.946,-2.189 z"
       id="path3029"
       style="fill:#ffffff;fill-opacity:1;stroke:none" />
    <path
       d="M 32.084,27.834 28.625,24.959 29,19.75 c 0,0 1.834,-0.042 3.959,1.667 2.228,1.791 3.362,4.983 3.362,4.983 l -4.237,1.434 z"
       id="path3031"
       style="fill:#ffffff;fill-opacity:1;stroke:none" />
    <path
       d="m 31.292,34.042 1.313,-4.464 4.187,-1.536 c 0,0 0.677,2.663 -0.042,5.667 -0.54,2.256 -2.084,4.361 -2.084,4.361 l -3.374,-4.028 z"
       id="path3033"
       style="fill:#ffffff;fill-opacity:1;stroke:none" />
  </g>
</svg>
