<?xml version="1.0" encoding="UTF-8" standalone="no"?>
<!-- Created with Inkscape (http://www.inkscape.org/) -->

<svg
   xmlns:dc="http://purl.org/dc/elements/1.1/"
   xmlns:cc="http://creativecommons.org/ns#"
   xmlns:rdf="http://www.w3.org/1999/02/22-rdf-syntax-ns#"
   xmlns:svg="http://www.w3.org/2000/svg"
   xmlns="http://www.w3.org/2000/svg"
   version="1.1"
   width="114"
   height="46"
   id="svg2">
  <metadata
     id="metadata12">
    <rdf:RDF>
      <cc:Work
         rdf:about="">
        <dc:format>image/svg+xml</dc:format>
        <dc:type
           rdf:resource="http://purl.org/dc/dcmitype/StillImage" />
        <dc:title></dc:title>
      </cc:Work>
    </rdf:RDF>
  </metadata>
  <defs
     id="defs10" />
  <g
     transform="scale(2,2)"
     id="g4">
    <path
       d="m 0.5,8.5 0,-4 c 0,-2.0943951 1.9056049,-4 4,-4 l 4,0 0,2 10,0 0,-2 30,0 4,0 c 2.094395,0 4,1.9056049 4,4 l 0,12 c 0,2.094395 -1.905605,4 -4,4 l -4,0 -30,0 -1,0 0,2 -8,0 0,-2 -1,0 -4,0 c -2.0943951,0 -4,-1.905605 -4,-4 l 0,-4 z"
       id="path6"
       style="fill:#ffdf4e;fill-opacity:1;stroke:#bb9000;stroke-width:1;stroke-linecap:round;stroke-opacity:1" />
  </g>
</svg>
