<?xml version="1.0" encoding="UTF-8" standalone="no"?>
<!-- Created with Inkscape (http://www.inkscape.org/) -->

<svg
   xmlns:dc="http://purl.org/dc/elements/1.1/"
   xmlns:cc="http://creativecommons.org/ns#"
   xmlns:rdf="http://www.w3.org/1999/02/22-rdf-syntax-ns#"
   xmlns:svg="http://www.w3.org/2000/svg"
   xmlns="http://www.w3.org/2000/svg"
   version="1.1"
   width="312.79999"
   height="328.60001"
   id="svg2">
  <metadata
     id="metadata112">
    <rdf:RDF>
      <cc:Work
         rdf:about="">
        <dc:format>image/svg+xml</dc:format>
        <dc:type
           rdf:resource="http://purl.org/dc/dcmitype/StillImage" />
        <dc:title></dc:title>
      </cc:Work>
    </rdf:RDF>
  </metadata>
  <defs
     id="defs110">
    <marker
       refX="0"
       refY="0"
       orient="auto"
       id="Arrow2Mstart"
       style="overflow:visible">
      <path
         d="M 8.7185878,4.0337352 -2.2072895,0.01601326 8.7185884,-4.0017078 c -1.7454984,2.3720609 -1.7354408,5.6174519 -6e-7,8.035443 z"
         transform="scale(0.6,0.6)"
         id="path3792"
         style="font-size:12px;fill-rule:evenodd;stroke-width:0.625;stroke-linejoin:round" />
    </marker>
    <marker
       refX="0"
       refY="0"
       orient="auto"
       id="marker18943"
       style="overflow:visible">
      <path
         d="M 8.7185878,4.0337352 -2.2072895,0.01601326 8.7185884,-4.0017078 c -1.7454984,2.3720609 -1.7354408,5.6174519 -6e-7,8.035443 z"
         transform="scale(0.6,0.6)"
         id="path18945"
         style="font-size:12px;fill-rule:evenodd;stroke-width:0.625;stroke-linejoin:round" />
    </marker>
    <marker
       refX="0"
       refY="0"
       orient="auto"
       id="Arrow2Mstart-3"
       style="overflow:visible">
      <path
         d="M 8.7185878,4.0337352 -2.2072895,0.01601326 8.7185884,-4.0017078 c -1.7454984,2.3720609 -1.7354408,5.6174519 -6e-7,8.035443 z"
         transform="scale(0.6,0.6)"
         id="path3792-6"
         style="font-size:12px;fill-rule:evenodd;stroke-width:0.625;stroke-linejoin:round" />
    </marker>
    <marker
       refX="0"
       refY="0"
       orient="auto"
       id="marker19393"
       style="overflow:visible">
      <path
         d="M 8.7185878,4.0337352 -2.2072895,0.01601326 8.7185884,-4.0017078 c -1.7454984,2.3720609 -1.7354408,5.6174519 -6e-7,8.035443 z"
         transform="scale(0.6,0.6)"
         id="path19395"
         style="font-size:12px;fill-rule:evenodd;stroke-width:0.625;stroke-linejoin:round" />
    </marker>
  </defs>
  <path
     d="M 156.4,164.3 97.6,83.4"
     id="path8"
     style="fill:none;stroke:#808080;stroke-width:5;stroke-linecap:round;stroke-opacity:1" />
  <path
     d="M 97.6,83.4 156.4,2.5"
     id="path10"
     style="fill:none;stroke:#808080;stroke-width:5;stroke-linecap:round;stroke-opacity:1" />
  <path
     d="m 156.4,2.5 95.1,30.9"
     id="path12"
     style="fill:none;stroke:#808080;stroke-width:5;stroke-linecap:round;stroke-opacity:1" />
  <path
     d="m 251.5,33.4 0,100"
     id="path14"
     style="fill:none;stroke:#808080;stroke-width:5;stroke-linecap:round;stroke-opacity:1" />
  <path
     d="m 251.5,133.4 -95.1,30.9"
     id="path16"
     style="fill:none;stroke:#808080;stroke-width:5;stroke-linecap:round;stroke-opacity:1" />
  <path
     d="M 156.4,164.3 61.3,133.4"
     id="path18"
     style="fill:none;stroke:#808080;stroke-width:5;stroke-linecap:round;stroke-opacity:1" />
  <path
     d="m 61.3,133.4 0,-100"
     id="path20"
     style="fill:none;stroke:#808080;stroke-width:5;stroke-linecap:round;stroke-opacity:1" />
  <path
     d="M 61.3,33.4 156.4,2.5"
     id="path22"
     style="fill:none;stroke:#808080;stroke-width:5;stroke-linecap:round;stroke-opacity:1" />
  <path
     d="m 156.4,2.5 58.8,80.9"
     id="path24"
     style="fill:none;stroke:#808080;stroke-width:5;stroke-linecap:round;stroke-opacity:1" />
  <path
     d="m 215.2,83.4 -58.8,80.9"
     id="path26"
     style="fill:none;stroke:#808080;stroke-width:5;stroke-linecap:round;stroke-opacity:1" />
  <path
     d="M 156.4,164.3 61.3,195.2"
     id="path28"
     style="fill:none;stroke:#808080;stroke-width:5;stroke-linecap:round;stroke-opacity:1" />
  <path
     d="M 61.3,195.2 2.5,114.3"
     id="path30"
     style="fill:none;stroke:#808080;stroke-width:5;stroke-linecap:round;stroke-opacity:1" />
  <path
     d="M 2.5,114.3 61.3,33.4"
     id="path32"
     style="fill:none;stroke:#808080;stroke-width:5;stroke-linecap:round;stroke-opacity:1" />
  <path
     d="m 61.3,33.4 95.1,30.9"
     id="path34"
     style="fill:none;stroke:#808080;stroke-width:5;stroke-linecap:round;stroke-opacity:1" />
  <path
     d="m 156.4,64.3 0,100"
     id="path36"
     style="fill:none;stroke:#808080;stroke-width:5;stroke-linecap:round;stroke-opacity:1" />
  <path
     d="M 156.4,164.3 97.6,245.2"
     id="path38"
     style="fill:none;stroke:#808080;stroke-width:5;stroke-linecap:round;stroke-opacity:1" />
  <path
     d="M 97.6,245.2 2.5,214.3"
     id="path40"
     style="fill:none;stroke:#808080;stroke-width:5;stroke-linecap:round;stroke-opacity:1" />
  <path
     d="m 2.5,214.3 0,-100"
     id="path42"
     style="fill:none;stroke:#808080;stroke-width:5;stroke-linecap:round;stroke-opacity:1" />
  <path
     d="M 2.5,114.3 97.6,83.4"
     id="path44"
     style="fill:none;stroke:#808080;stroke-width:5;stroke-linecap:round;stroke-opacity:1" />
  <path
     d="m 97.6,83.4 58.8,80.9"
     id="path46"
     style="fill:none;stroke:#808080;stroke-width:5;stroke-linecap:round;stroke-opacity:1" />
  <path
     d="m 156.4,164.3 0,100"
     id="path48"
     style="fill:none;stroke:#808080;stroke-width:5;stroke-linecap:round;stroke-opacity:1" />
  <path
     d="M 156.4,264.3 61.3,295.2"
     id="path50"
     style="fill:none;stroke:#808080;stroke-width:5;stroke-linecap:round;stroke-opacity:1" />
  <path
     d="M 61.3,295.2 2.5,214.3"
     id="path52"
     style="fill:none;stroke:#808080;stroke-width:5;stroke-linecap:round;stroke-opacity:1" />
  <path
     d="M 2.5,214.3 61.3,133.4"
     id="path54"
     style="fill:none;stroke:#808080;stroke-width:5;stroke-linecap:round;stroke-opacity:1" />
  <path
     d="m 61.3,133.4 95.1,30.9"
     id="path56"
     style="fill:none;stroke:#808080;stroke-width:5;stroke-linecap:round;stroke-opacity:1" />
  <path
     d="m 156.4,164.3 58.8,80.9"
     id="path58"
     style="fill:none;stroke:#808080;stroke-width:5;stroke-linecap:round;stroke-opacity:1" />
  <path
     d="m 215.2,245.2 -58.8,80.9"
     id="path60"
     style="fill:none;stroke:#808080;stroke-width:5;stroke-linecap:round;stroke-opacity:1" />
  <path
     d="M 156.4,326.1 61.3,295.2"
     id="path62"
     style="fill:none;stroke:#808080;stroke-width:5;stroke-linecap:round;stroke-opacity:1" />
  <path
     d="m 61.3,295.2 0,-100"
     id="path64"
     style="fill:none;stroke:#808080;stroke-width:5;stroke-linecap:round;stroke-opacity:1" />
  <path
     d="m 61.3,195.2 95.1,-30.9"
     id="path66"
     style="fill:none;stroke:#808080;stroke-width:5;stroke-linecap:round;stroke-opacity:1" />
  <path
     d="m 156.4,164.3 95.1,30.9"
     id="path68"
     style="fill:none;stroke:#808080;stroke-width:5;stroke-linecap:round;stroke-opacity:1" />
  <path
     d="m 251.5,195.2 0,100"
     id="path70"
     style="fill:none;stroke:#808080;stroke-width:5;stroke-linecap:round;stroke-opacity:1" />
  <path
     d="m 251.5,295.2 -95.1,30.9"
     id="path72"
     style="fill:none;stroke:#808080;stroke-width:5;stroke-linecap:round;stroke-opacity:1" />
  <path
     d="M 156.4,326.1 97.6,245.2"
     id="path74"
     style="fill:none;stroke:#808080;stroke-width:5;stroke-linecap:round;stroke-opacity:1" />
  <path
     d="m 97.6,245.2 58.8,-80.9"
     id="path76"
     style="fill:none;stroke:#808080;stroke-width:5;stroke-linecap:round;stroke-opacity:1" />
  <path
     d="m 156.4,164.3 95.1,-30.9"
     id="path78"
     style="fill:none;stroke:#808080;stroke-width:5;stroke-linecap:round;stroke-opacity:1" />
  <path
     d="m 251.5,133.4 58.8,80.9"
     id="path80"
     style="fill:none;stroke:#808080;stroke-width:5;stroke-linecap:round;stroke-opacity:1" />
  <path
     d="m 310.3,214.3 -58.8,80.9"
     id="path82"
     style="fill:none;stroke:#808080;stroke-width:5;stroke-linecap:round;stroke-opacity:1" />
  <path
     d="M 251.5,295.2 156.4,264.3"
     id="path84"
     style="fill:none;stroke:#808080;stroke-width:5;stroke-linecap:round;stroke-opacity:1" />
  <path
     d="m 156.4,264.3 0,-100"
     id="path86"
     style="fill:none;stroke:#808080;stroke-width:5;stroke-linecap:round;stroke-opacity:1" />
  <path
     d="M 156.4,164.3 215.2,83.4"
     id="path88"
     style="fill:none;stroke:#808080;stroke-width:5;stroke-linecap:round;stroke-opacity:1" />
  <path
     d="m 215.2,83.4 95.1,30.9"
     id="path90"
     style="fill:none;stroke:#808080;stroke-width:5;stroke-linecap:round;stroke-opacity:1" />
  <path
     d="m 310.3,114.3 0,100"
     id="path92"
     style="fill:none;stroke:#808080;stroke-width:5;stroke-linecap:round;stroke-opacity:1" />
  <path
     d="m 310.3,214.3 -95.1,30.9"
     id="path94"
     style="fill:none;stroke:#808080;stroke-width:5;stroke-linecap:round;stroke-opacity:1" />
  <path
     d="M 215.2,245.2 156.4,164.3"
     id="path96"
     style="fill:none;stroke:#808080;stroke-width:5;stroke-linecap:round;stroke-opacity:1" />
  <path
     d="m 156.4,164.3 0,-100"
     id="path98"
     style="fill:none;stroke:#808080;stroke-width:5;stroke-linecap:round;stroke-opacity:1" />
  <path
     d="M 156.4,64.3 251.5,33.4"
     id="path100"
     style="fill:none;stroke:#808080;stroke-width:5;stroke-linecap:round;stroke-opacity:1" />
  <path
     d="m 251.5,33.4 58.8,80.9"
     id="path102"
     style="fill:none;stroke:#808080;stroke-width:5;stroke-linecap:round;stroke-opacity:1" />
  <path
     d="m 310.3,114.3 -58.8,80.9"
     id="path104"
     style="fill:none;stroke:#808080;stroke-width:5;stroke-linecap:round;stroke-opacity:1" />
  <path
     d="M 251.5,195.2 156.4,164.3"
     id="path106"
     style="fill:none;stroke:#808080;stroke-width:5;stroke-linecap:round;stroke-opacity:1" />
  <g
     transform="translate(95,63.002965)"
     id="g5073">
    <path
       d="m 53.770861,101.59785 0,-43.757249"
       id="path2995-0"
       style="fill:none;stroke:#000000;stroke-width:1.13199997;stroke-linecap:butt;stroke-linejoin:miter;stroke-miterlimit:4;stroke-opacity:1;stroke-dasharray:none;marker-start:url(#Arrow2Mstart)" />
    <path
       d="m 53.792614,2.3483661 0,14.5856299"
       id="path2995-3-1"
       style="fill:none;stroke:#000000;stroke-width:1.13199997;stroke-linecap:butt;stroke-linejoin:miter;stroke-miterlimit:4;stroke-opacity:1;stroke-dasharray:none;marker-start:url(#Arrow2Mstart)" />
    <text
       x="-43.152924"
       y="57.421875"
       transform="matrix(0,-1,1,0,0,0)"
       id="text4233-3"
       xml:space="preserve"
       style="font-size:40px;font-style:normal;font-weight:normal;line-height:125%;letter-spacing:0px;word-spacing:0px;fill:#000000;fill-opacity:1;stroke:none;font-family:Sans"><tspan
         x="-43.152924"
         y="57.421875"
         id="tspan4235-7"
         style="font-size:10px">100</tspan></text>
  </g>
</svg>
