<?xml version="1.0" encoding="UTF-8" standalone="no"?>
<!-- Created with Inkscape (http://www.inkscape.org/) -->

<svg
   xmlns:dc="http://purl.org/dc/elements/1.1/"
   xmlns:cc="http://creativecommons.org/ns#"
   xmlns:rdf="http://www.w3.org/1999/02/22-rdf-syntax-ns#"
   xmlns:svg="http://www.w3.org/2000/svg"
   xmlns="http://www.w3.org/2000/svg"
   version="1.1"
   width="205"
   height="178.2"
   id="svg2">
  <metadata
     id="metadata48">
    <rdf:RDF>
      <cc:Work
         rdf:about="">
        <dc:format>image/svg+xml</dc:format>
        <dc:type
           rdf:resource="http://purl.org/dc/dcmitype/StillImage" />
        <dc:title></dc:title>
      </cc:Work>
    </rdf:RDF>
  </metadata>
  <defs
     id="defs46">
    <marker
       refX="0"
       refY="0"
       orient="auto"
       id="Arrow2Mstart"
       style="overflow:visible">
      <path
         d="M 8.7185878,4.0337352 -2.2072895,0.01601326 8.7185884,-4.0017078 c -1.7454984,2.3720609 -1.7354408,5.6174519 -6e-7,8.035443 z"
         transform="scale(0.6,0.6)"
         id="path3792"
         style="font-size:12px;fill-rule:evenodd;stroke-width:0.625;stroke-linejoin:round" />
    </marker>
    <marker
       refX="0"
       refY="0"
       orient="auto"
       id="marker10674"
       style="overflow:visible">
      <path
         d="M 8.7185878,4.0337352 -2.2072895,0.01601326 8.7185884,-4.0017078 c -1.7454984,2.3720609 -1.7354408,5.6174519 -6e-7,8.035443 z"
         transform="scale(0.6,0.6)"
         id="path10676"
         style="font-size:12px;fill-rule:evenodd;stroke-width:0.625;stroke-linejoin:round" />
    </marker>
    <marker
       refX="0"
       refY="0"
       orient="auto"
       id="Arrow2Mstart-5"
       style="overflow:visible">
      <path
         d="M 8.7185878,4.0337352 -2.2072895,0.01601326 8.7185884,-4.0017078 c -1.7454984,2.3720609 -1.7354408,5.6174519 -6e-7,8.035443 z"
         transform="scale(0.6,0.6)"
         id="path3792-5"
         style="font-size:12px;fill-rule:evenodd;stroke-width:0.625;stroke-linejoin:round" />
    </marker>
    <marker
       refX="0"
       refY="0"
       orient="auto"
       id="marker10718"
       style="overflow:visible">
      <path
         d="M 8.7185878,4.0337352 -2.2072895,0.01601326 8.7185884,-4.0017078 c -1.7454984,2.3720609 -1.7354408,5.6174519 -6e-7,8.035443 z"
         transform="scale(0.6,0.6)"
         id="path10720"
         style="font-size:12px;fill-rule:evenodd;stroke-width:0.625;stroke-linejoin:round" />
    </marker>
  </defs>
  <path
     d="m 102.5,89.1 50,86.6"
     id="path8"
     style="fill:none;stroke:#808080;stroke-width:5;stroke-linecap:round;stroke-opacity:1" />
  <path
     d="m 152.5,175.7 50,-86.6"
     id="path10"
     style="fill:none;stroke:#808080;stroke-width:5;stroke-linecap:round;stroke-opacity:1" />
  <path
     d="m 202.5,89.1 -100,0"
     id="path12"
     style="fill:none;stroke:#808080;stroke-width:5;stroke-linecap:round;stroke-opacity:1" />
  <path
     d="m 102.5,89.1 100,0"
     id="path14"
     style="fill:none;stroke:#808080;stroke-width:5;stroke-linecap:round;stroke-opacity:1" />
  <path
     d="M 202.5,89.1 152.5,2.5"
     id="path16"
     style="fill:none;stroke:#808080;stroke-width:5;stroke-linecap:round;stroke-opacity:1" />
  <path
     d="m 152.5,2.5 -50,86.6"
     id="path18"
     style="fill:none;stroke:#808080;stroke-width:5;stroke-linecap:round;stroke-opacity:1" />
  <path
     d="m 102.5,89.1 50,-86.6"
     id="path20"
     style="fill:none;stroke:#808080;stroke-width:5;stroke-linecap:round;stroke-opacity:1" />
  <path
     d="m 152.5,2.5 -100,0"
     id="path22"
     style="fill:none;stroke:#808080;stroke-width:5;stroke-linecap:round;stroke-opacity:1" />
  <path
     d="m 52.5,2.5 50,86.6"
     id="path24"
     style="fill:none;stroke:#808080;stroke-width:5;stroke-linecap:round;stroke-opacity:1" />
  <path
     d="M 102.5,89.1 52.5,2.5"
     id="path26"
     style="fill:none;stroke:#808080;stroke-width:5;stroke-linecap:round;stroke-opacity:1" />
  <path
     d="M 52.5,2.5 2.5,89.1"
     id="path28"
     style="fill:none;stroke:#808080;stroke-width:5;stroke-linecap:round;stroke-opacity:1" />
  <path
     d="m 2.5,89.1 100,0"
     id="path30"
     style="fill:none;stroke:#808080;stroke-width:5;stroke-linecap:round;stroke-opacity:1" />
  <path
     d="m 102.5,89.1 -100,0"
     id="path32"
     style="fill:none;stroke:#808080;stroke-width:5;stroke-linecap:round;stroke-opacity:1" />
  <path
     d="m 2.5,89.1 50,86.6"
     id="path34"
     style="fill:none;stroke:#808080;stroke-width:5;stroke-linecap:round;stroke-opacity:1" />
  <path
     d="m 52.5,175.7 50,-86.6"
     id="path36"
     style="fill:none;stroke:#808080;stroke-width:5;stroke-linecap:round;stroke-opacity:1" />
  <path
     d="m 102.5,89.1 -50,86.6"
     id="path38"
     style="fill:none;stroke:#808080;stroke-width:5;stroke-linecap:round;stroke-opacity:1" />
  <path
     d="m 52.5,175.7 100,0"
     id="path40"
     style="fill:none;stroke:#808080;stroke-width:5;stroke-linecap:round;stroke-opacity:1" />
  <path
     d="m 152.5,175.7 -50,-86.6"
     id="path42"
     style="fill:none;stroke:#808080;stroke-width:5;stroke-linecap:round;stroke-opacity:1" />
  <g
     transform="matrix(0,1,-1,0,105.59704,43.13652)"
     id="g5073">
    <path
       d="m 53.770861,101.59785 0,-43.757249"
       id="path2995-0-5"
       style="fill:none;stroke:#000000;stroke-width:1.13199997;stroke-linecap:butt;stroke-linejoin:miter;stroke-miterlimit:4;stroke-opacity:1;stroke-dasharray:none;marker-start:url(#Arrow2Mstart)" />
    <path
       d="m 53.792614,2.3483661 0,14.5856299"
       id="path2995-3-1-6"
       style="fill:none;stroke:#000000;stroke-width:1.13199997;stroke-linecap:butt;stroke-linejoin:miter;stroke-miterlimit:4;stroke-opacity:1;stroke-dasharray:none;marker-start:url(#Arrow2Mstart)" />
    <text
       x="-43.152924"
       y="57.421875"
       transform="matrix(0,-1,1,0,0,0)"
       id="text4233-3-2"
       xml:space="preserve"
       style="font-size:40px;font-style:normal;font-weight:normal;line-height:125%;letter-spacing:0px;word-spacing:0px;fill:#000000;fill-opacity:1;stroke:none;font-family:Sans"><tspan
         x="-43.152924"
         y="57.421875"
         id="tspan4235-7-2"
         style="font-size:10px">100</tspan></text>
  </g>
</svg>
