<?xml version="1.0" encoding="UTF-8" standalone="no"?>
<svg
   xmlns:dc="http://purl.org/dc/elements/1.1/"
   xmlns:cc="http://creativecommons.org/ns#"
   xmlns:rdf="http://www.w3.org/1999/02/22-rdf-syntax-ns#"
   xmlns:svg="http://www.w3.org/2000/svg"
   xmlns="http://www.w3.org/2000/svg"
   id="svg194"
   version="1.1"
   height="270.84308"
   width="518.52441">
  <metadata
     id="metadata200">
    <rdf:RDF>
      <cc:Work
         rdf:about="">
        <dc:format>image/svg+xml</dc:format>
        <dc:type
           rdf:resource="http://purl.org/dc/dcmitype/StillImage" />
        <dc:title></dc:title>
      </cc:Work>
    </rdf:RDF>
  </metadata>
  <defs
     id="defs198" />
  <g
     id="g1105">
    <g
       transform="translate(0,0.42153745)"
       id="g10">
      <g
         transform="scale(1.5)"
         id="g8">
        <path
           d="m 0.5,14.5 v -4 a 4,4 90 0 1 4,-4 h 4 l 5,-6 5,6 h 9 60 4 a 4,4 90 0 1 4,4 v 4 4 4 a 4,4 90 0 1 -4,4 h -4 -60 -1 v 2 h -8 v -2 h -1 -4 a 5,5 90 0 0 -5,5 v 4 4 42 4 a 5,5 90 0 0 5,5 h 4 v 2 h 10 v -2 h 8 v 6 6 4 a 4,4 90 0 1 -4,4 h -4 -9 l -5,6 -5,-6 h -4 a 4,4 90 0 1 -4,-4 v -4 z"
           style="fill:#ffdf37;fill-opacity:1;stroke:#644300;stroke-width:1;stroke-linecap:round;stroke-opacity:1"
           id="path2" />
        <text
           style="font-size:10px;font-family:sans-serif;text-anchor:start;fill:#000000"
           id="text6">
          <tspan
             x="5.3333335"
             y="21.5"
             id="tspan4">start</tspan>
        </text>
      </g>
    </g>
    <g
       transform="translate(13.5,103.92154)"
       id="g24">
      <g
         transform="scale(1.5)"
         id="g22">
        <path
           d="m 0.5,8.5 v -4 a 4,4 90 0 1 4,-4 h 4 v 2 h 10 v -2 h 43.354492 4 a 4,4 90 0 1 4,4 v 4 h -4 v -3 h -4 v 10 h 4 v -3 h 4 v 4 a 4,4 90 0 1 -4,4 h -4 H 18.5 h -1 v 2 h -8 v -2 h -1 -4 a 4,4 90 0 1 -4,-4 v -4 z"
           style="fill:#fa644e;fill-opacity:1;stroke:#000000;stroke-width:1;stroke-linecap:round;stroke-opacity:1"
           id="path12" />
        <text
           style="font-size:10px;font-family:sans-serif;text-anchor:end;fill:#000000"
           id="text16">
          <tspan
             x="59.687824"
             y="13.5"
             id="tspan14">new turtle</tspan>
        </text>
        <text
           style="font-size:6.66666651px;font-family:sans-serif;text-anchor:end;fill:#000000"
           id="text20">
          <tspan
             x="59.687824"
             y="11.25"
             id="tspan18" />
        </text>
      </g>
    </g>
    <g
       transform="translate(107.03174,103.92154)"
       id="g34">
      <g
         transform="scale(1.5)"
         id="g32">
        <path
           d="m 8.5,0.5 h 90 v 20 h -90 v -8 -1 h -6 v 3 h -2 v -8 h 2 v 3 h 6 v -1 z"
           style="fill:#47e0db;fill-opacity:1;stroke:#003e47;stroke-width:1;stroke-linecap:round;stroke-opacity:1"
           id="path26" />
        <text
           style="font-size:10px;font-family:sans-serif;text-anchor:start;fill:#000000"
           id="text30">
          <tspan
             x="13.333333"
             y="13.833333"
             id="tspan28">Yertle</tspan>
        </text>
      </g>
    </g>
    <g
       transform="translate(13.5,40.921537)"
       id="g52">
      <g
         transform="scale(1.5)"
         id="g50">
        <path
           d="m 0.5,8.5 v -4 a 4,4 90 0 1 4,-4 h 4 v 2 h 10 v -2 h 30 4 a 4,4 90 0 1 4,4 v 4 h -4 v -3 h -4 v 10 h 4 v -3 h 4 v 17 h -4 v -3 h -4 v 10 h 4 v -3 h 4 v 4 a 4,4 90 0 1 -4,4 h -4 -30 -1 v 2 h -8 v -2 h -1 -4 a 4,4 90 0 1 -4,-4 v -4 -21 z"
           style="fill:#ffdf37;fill-opacity:1;stroke:#644300;stroke-width:1;stroke-linecap:round;stroke-opacity:1"
           id="path36" />
        <text
           style="font-size:10px;font-family:sans-serif;text-anchor:end;fill:#000000"
           id="text40">
          <tspan
             x="46.333332"
             y="24"
             id="tspan38">on</tspan>
        </text>
        <text
           style="font-size:6.66666651px;font-family:sans-serif;text-anchor:end;fill:#000000"
           id="text44">
          <tspan
             x="46.333332"
             y="11.25"
             id="tspan42">event</tspan>
        </text>
        <text
           style="font-size:6.66666651px;font-family:sans-serif;text-anchor:end;fill:#000000"
           id="text48">
          <tspan
             x="46.333332"
             y="32.25"
             id="tspan46">do</tspan>
        </text>
      </g>
    </g>
    <g
       transform="translate(87,40.921537)"
       id="g62">
      <g
         transform="scale(1.5)"
         id="g60">
        <path
           d="m 8.5,0.5 h 90 v 20 h -90 v -8 -1 h -6 v 3 h -2 v -8 h 2 v 3 h 6 v -1 z"
           style="fill:#47e0db;fill-opacity:1;stroke:#003e47;stroke-width:1;stroke-linecap:round;stroke-opacity:1"
           id="path54" />
        <text
           style="font-size:10px;font-family:sans-serif;text-anchor:start;fill:#000000"
           id="text58">
          <tspan
             x="13.333333"
             y="13.833333"
             id="tspan56">Yertle</tspan>
        </text>
      </g>
    </g>
    <g
       transform="translate(87,72.421537)"
       id="g72">
      <g
         transform="scale(1.5)"
         id="g70">
        <path
           d="m 8.5,0.5 h 90 v 20 h -90 v -8 -1 h -6 v 3 h -2 v -8 h 2 v 3 h 6 v -1 z"
           style="fill:#47e0db;fill-opacity:1;stroke:#003e47;stroke-width:1;stroke-linecap:round;stroke-opacity:1"
           id="path64" />
        <text
           style="font-size:10px;font-family:sans-serif;text-anchor:start;fill:#000000"
           id="text68">
          <tspan
             x="13.333333"
             y="13.833333"
             id="tspan66">action</tspan>
        </text>
      </g>
    </g>
  </g>
  <g
     transform="translate(32)"
     id="g1067">
    <g
       transform="translate(240,0.42153745)"
       id="g86">
      <g
         transform="scale(1.5)"
         id="g84">
        <path
           d="m 0.5,14.5 v -4 a 4,4 90 0 1 4,-4 h 4 l 5,-6 5,6 h 9 35 4 a 4,4 90 0 1 4,4 v 4 h -4 v -3 h -4 v 10 h 4 v -3 h 4 v 4 a 4,4 90 0 1 -4,4 h -4 -35 -1 v 2 h -8 v -2 h -1 -4 a 5,5 90 0 0 -5,5 v 4 4 105 4 a 5,5 90 0 0 5,5 h 4 v 2 h 10 v -2 h 8 v 6 6 4 a 4,4 90 0 1 -4,4 h -4 -9 l -5,6 -5,-6 h -4 a 4,4 90 0 1 -4,-4 v -4 z"
           style="fill:#ffdf37;fill-opacity:1;stroke:#644300;stroke-width:1;stroke-linecap:round;stroke-opacity:1"
           id="path74" />
        <text
           style="font-size:10px;font-family:sans-serif;text-anchor:start;fill:#000000"
           id="text78">
          <tspan
             x="5.3333335"
             y="21.5"
             id="tspan76">action</tspan>
        </text>
        <text
           style="font-size:6.66666651px;font-family:sans-serif;text-anchor:end;fill:#000000"
           id="text82">
          <tspan
             x="60.333332"
             y="5.25"
             id="tspan80" />
        </text>
      </g>
    </g>
    <g
       transform="translate(334.5,9.4215375)"
       id="g96">
      <g
         transform="scale(1.5)"
         id="g94">
        <path
           d="m 8.5,0.5 h 90 v 20 h -90 v -8 -1 h -6 v 3 h -2 v -8 h 2 v 3 h 6 v -1 z"
           style="fill:#47e0db;fill-opacity:1;stroke:#003e47;stroke-width:1;stroke-linecap:round;stroke-opacity:1"
           id="path88" />
        <text
           style="font-size:10px;font-family:sans-serif;text-anchor:start;fill:#000000"
           id="text92">
          <tspan
             x="13.333333"
             y="13.833333"
             id="tspan90">action</tspan>
        </text>
      </g>
    </g>
    <g
       transform="translate(253.5,40.921537)"
       id="g110">
      <g
         transform="scale(1.5)"
         id="g108">
        <path
           d="m 0.5,8.5 v -4 a 4,4 90 0 1 4,-4 h 4 v 2 h 10 v -2 h 9 28.349609 4 a 4,4 90 0 1 4,4 v 4 h -4 v -3 h -4 v 10 h 4 v -3 h 4 v 4 a 4,4 90 0 1 -4,4 h -4 H 27.5 h -1 v 2 h -8 v -2 h -1 -4 a 5,5 90 0 0 -5,5 v 4 4 63 4 a 5,5 90 0 0 5,5 h 4 v 2 h 10 v -2 h 8 v 6 6 4 a 4,4 90 0 1 -4,4 h -4 -9 -1 v 2 h -8 v -2 h -1 -4 a 4,4 90 0 1 -4,-4 v -4 z"
           style="fill:#fa644e;fill-opacity:1;stroke:#000000;stroke-width:1;stroke-linecap:round;stroke-opacity:1"
           id="path98" />
        <text
           style="font-size:10px;font-family:sans-serif;text-anchor:start;fill:#000000"
           id="text102">
          <tspan
             x="5.3333335"
             y="15.25"
             id="tspan100">set turtle</tspan>
        </text>
        <text
           style="font-size:6.66666651px;font-family:sans-serif;text-anchor:end;fill:#000000"
           id="text106">
          <tspan
             x="53.682941"
             y="11.25"
             id="tspan104" />
        </text>
      </g>
    </g>
    <g
       transform="translate(338.02441,40.921537)"
       id="g120">
      <g
         transform="scale(1.5)"
         id="g118">
        <path
           d="m 8.5,0.5 h 90 v 20 h -90 v -8 -1 h -6 v 3 h -2 v -8 h 2 v 3 h 6 v -1 z"
           style="fill:#47e0db;fill-opacity:1;stroke:#003e47;stroke-width:1;stroke-linecap:round;stroke-opacity:1"
           id="path112" />
        <text
           style="font-size:10px;font-family:sans-serif;text-anchor:start;fill:#000000"
           id="text116">
          <tspan
             x="13.333333"
             y="13.833333"
             id="tspan114">Yertle</tspan>
        </text>
      </g>
    </g>
    <g
       transform="translate(267,72.421537)"
       id="g134">
      <g
         transform="scale(1.5)"
         id="g132">
        <path
           d="m 0.5,8.5 v -4 a 4,4 90 0 1 4,-4 h 4 v 2 h 10 v -2 h 9 20 4 a 4,4 90 0 1 4,4 v 4 h -4 v -3 h -4 v 10 h 4 v -3 h 4 v 4 a 4,4 90 0 1 -4,4 h -4 -20 -1 v 2 h -8 v -2 h -1 -4 a 5,5 90 0 0 -5,5 v 4 4 21 4 a 5,5 90 0 0 5,5 h 4 v 2 h 10 v -2 h 8 v 6 6 4 a 4,4 90 0 1 -4,4 h -4 -9 -1 v 2 h -8 v -2 h -1 -4 a 4,4 90 0 1 -4,-4 v -4 z"
           style="fill:#ff9404;fill-opacity:1;stroke:#3f0a00;stroke-width:1;stroke-linecap:round;stroke-opacity:1"
           id="path122" />
        <text
           style="font-size:10px;font-family:sans-serif;text-anchor:start;fill:#000000"
           id="text126">
          <tspan
             x="5.3333335"
             y="15.25"
             id="tspan124">repeat</tspan>
        </text>
        <text
           style="font-size:6.66666651px;font-family:sans-serif;text-anchor:end;fill:#000000"
           id="text130">
          <tspan
             x="45.333332"
             y="11.25"
             id="tspan128" />
        </text>
      </g>
    </g>
    <g
       transform="translate(339,72.421537)"
       id="g144">
      <g
         transform="scale(1.5)"
         id="g142">
        <path
           d="m 8.5,0.5 h 60 v 20 h -60 v -8 -1 h -6 v 3 h -2 v -8 h 2 v 3 h 6 v -1 z"
           style="fill:#ff9db5;fill-opacity:1;stroke:#73003b;stroke-width:1;stroke-linecap:round;stroke-opacity:1"
           id="path136" />
        <text
           style="font-size:10px;font-family:sans-serif;text-anchor:start;fill:#000000"
           id="text140">
          <tspan
             x="13.333333"
             y="13.833333"
             id="tspan138">4</tspan>
        </text>
      </g>
    </g>
    <g
       transform="translate(280.5,103.92154)"
       id="g158">
      <g
         transform="scale(1.5)"
         id="g156">
        <path
           d="m 0.5,8.5 v -4 a 4,4 90 0 1 4,-4 h 4 v 2 h 10 v -2 h 33.344727 4 a 4,4 90 0 1 4,4 v 4 h -4 v -3 h -4 v 10 h 4 v -3 h 4 v 4 a 4,4 90 0 1 -4,4 h -4 H 18.5 h -1 v 2 h -8 v -2 h -1 -4 a 4,4 90 0 1 -4,-4 v -4 z"
           style="fill:#88e20a;fill-opacity:1;stroke:#004100;stroke-width:1;stroke-linecap:round;stroke-opacity:1"
           id="path146" />
        <text
           style="font-size:10px;font-family:sans-serif;text-anchor:end;fill:#000000"
           id="text150">
          <tspan
             x="49.678059"
             y="13.5"
             id="tspan148">forward</tspan>
        </text>
        <text
           style="font-size:6.66666651px;font-family:sans-serif;text-anchor:end;fill:#000000"
           id="text154">
          <tspan
             x="49.678059"
             y="11.25"
             id="tspan152" />
        </text>
      </g>
    </g>
    <g
       transform="translate(359.01709,103.92154)"
       id="g168">
      <g
         transform="scale(1.5)"
         id="g166">
        <path
           d="m 8.5,0.5 h 60 v 20 h -60 v -8 -1 h -6 v 3 h -2 v -8 h 2 v 3 h 6 v -1 z"
           style="fill:#ff9db5;fill-opacity:1;stroke:#73003b;stroke-width:1;stroke-linecap:round;stroke-opacity:1"
           id="path160" />
        <text
           style="font-size:10px;font-family:sans-serif;text-anchor:start;fill:#000000"
           id="text164">
          <tspan
             x="13.333333"
             y="13.833333"
             id="tspan162">100</tspan>
        </text>
      </g>
    </g>
    <g
       transform="translate(280.5,135.42154)"
       id="g182">
      <g
         transform="scale(1.5)"
         id="g180">
        <path
           d="m 0.5,8.5 v -4 a 4,4 90 0 1 4,-4 h 4 v 2 h 10 v -2 h 30 4 a 4,4 90 0 1 4,4 v 4 h -4 v -3 h -4 v 10 h 4 v -3 h 4 v 4 a 4,4 90 0 1 -4,4 h -4 -30 -1 v 2 h -8 v -2 h -1 -4 a 4,4 90 0 1 -4,-4 v -4 z"
           style="fill:#88e20a;fill-opacity:1;stroke:#004100;stroke-width:1;stroke-linecap:round;stroke-opacity:1"
           id="path170" />
        <text
           style="font-size:10px;font-family:sans-serif;text-anchor:end;fill:#000000"
           id="text174">
          <tspan
             x="46.333332"
             y="13.5"
             id="tspan172">right</tspan>
        </text>
        <text
           style="font-size:6.66666651px;font-family:sans-serif;text-anchor:end;fill:#000000"
           id="text178">
          <tspan
             x="46.333332"
             y="11.25"
             id="tspan176" />
        </text>
      </g>
    </g>
    <g
       transform="translate(354,135.42154)"
       id="g192">
      <g
         transform="scale(1.5)"
         id="g190">
        <path
           d="m 8.5,0.5 h 60 v 20 h -60 v -8 -1 h -6 v 3 h -2 v -8 h 2 v 3 h 6 v -1 z"
           style="fill:#ff9db5;fill-opacity:1;stroke:#73003b;stroke-width:1;stroke-linecap:round;stroke-opacity:1"
           id="path184" />
        <text
           style="font-size:10px;font-family:sans-serif;text-anchor:start;fill:#000000"
           id="text188">
          <tspan
             x="13.333333"
             y="13.833333"
             id="tspan186">90</tspan>
        </text>
      </g>
    </g>
  </g>
</svg>
