<?xml version="1.0" encoding="UTF-8" standalone="no"?>
<svg
   xmlns:dc="http://purl.org/dc/elements/1.1/"
   xmlns:cc="http://creativecommons.org/ns#"
   xmlns:rdf="http://www.w3.org/1999/02/22-rdf-syntax-ns#"
   xmlns:svg="http://www.w3.org/2000/svg"
   xmlns="http://www.w3.org/2000/svg"
   id="svg376"
   version="1.1"
   height="680.34308"
   width="472.22607">
  <metadata
     id="metadata382">
    <rdf:RDF>
      <cc:Work
         rdf:about="">
        <dc:format>image/svg+xml</dc:format>
        <dc:type
           rdf:resource="http://purl.org/dc/dcmitype/StillImage" />
        <dc:title></dc:title>
      </cc:Work>
    </rdf:RDF>
  </metadata>
  <defs
     id="defs380" />
  <g
     id="g10"
     transform="translate(0,0.42153745)">
    <g
       id="g8"
       transform="scale(1.5)">
      <path
         id="path2"
         style="fill:#ffdf37;fill-opacity:1;stroke:#644300;stroke-width:1;stroke-linecap:round;stroke-opacity:1"
         d="m 0.5,14.5 v -4 a 4,4 90 0 1 4,-4 h 4 l 5,-6 5,6 h 9 60 4 a 4,4 90 0 1 4,4 v 4 4 4 a 4,4 90 0 1 -4,4 h -4 -60 -1 v 2 h -8 v -2 h -1 -4 a 5,5 90 0 0 -5,5 v 4 4 378 4 a 5,5 90 0 0 5,5 h 4 v 2 h 10 v -2 h 8 v 6 6 4 a 4,4 90 0 1 -4,4 h -4 -9 l -5,6 -5,-6 h -4 a 4,4 90 0 1 -4,-4 v -4 z" />
      <text
         id="text6"
         style="font-size:10px;font-family:sans-serif;text-anchor:start;fill:#000000">
        <tspan
           id="tspan4"
           y="21.5"
           x="5.3333335">start</tspan>
      </text>
    </g>
  </g>
  <g
     id="g24"
     transform="translate(13.5,40.921537)">
    <g
       id="g22"
       transform="scale(1.5)">
      <path
         id="path12"
         style="fill:#ff9404;fill-opacity:1;stroke:#3f0a00;stroke-width:1;stroke-linecap:round;stroke-opacity:1"
         d="m 0.5,8.5 v -4 a 4,4 90 0 1 4,-4 h 4 v 2 h 10 v -2 h 9 20 4 a 4,4 90 0 1 4,4 v 4 h -4 v -3 h -4 v 10 h 4 v -3 h 4 v 4 a 4,4 90 0 1 -4,4 h -4 -20 -1 v 2 h -8 v -2 h -1 -4 a 5,5 90 0 0 -5,5 v 4 4 336 4 a 5,5 90 0 0 5,5 h 4 v 2 h 10 v -2 h 8 v 6 6 4 a 4,4 90 0 1 -4,4 h -4 -9 -1 v 2 h -8 v -2 h -1 -4 a 4,4 90 0 1 -4,-4 v -4 z" />
      <text
         id="text16"
         style="font-size:10px;font-family:sans-serif;text-anchor:start;fill:#000000">
        <tspan
           id="tspan14"
           y="15.25"
           x="5.3333335">repeat</tspan>
      </text>
      <text
         id="text20"
         style="font-size:6.66666651px;font-family:sans-serif;text-anchor:end;fill:#000000">
        <tspan
           id="tspan18"
           y="11.25"
           x="45.333332" />
      </text>
    </g>
  </g>
  <g
     id="g34"
     transform="translate(85.5,40.921537)">
    <g
       id="g32"
       transform="scale(1.5)">
      <path
         id="path26"
         style="fill:#ff9db5;fill-opacity:1;stroke:#73003b;stroke-width:1;stroke-linecap:round;stroke-opacity:1"
         d="m 8.5,0.5 h 60 v 20 h -60 v -8 -1 h -6 v 3 h -2 v -8 h 2 v 3 h 6 v -1 z" />
      <text
         id="text30"
         style="font-size:10px;font-family:sans-serif;text-anchor:start;fill:#000000">
        <tspan
           id="tspan28"
           y="13.833333"
           x="13.333333">4</tspan>
      </text>
    </g>
  </g>
  <g
     id="g48"
     transform="translate(27,72.421537)">
    <g
       id="g46"
       transform="scale(1.5)">
      <path
         id="path36"
         style="fill:#ff8000;fill-opacity:1;stroke:#520000;stroke-width:1;stroke-linecap:round;stroke-opacity:1"
         d="m 0.5,8.5 v -4 a 4,4 90 0 1 4,-4 h 4 v 2 h 10 v -2 h 51.694336 4 a 4,4 90 0 1 4,4 v 4 h -4 v -3 h -4 v 10 h 4 v -3 h 4 v 4 a 4,4 90 0 1 -4,4 h -4 H 18.5 h -1 v 2 h -8 v -2 h -1 -4 a 4,4 90 0 1 -4,-4 v -4 z" />
      <text
         id="text40"
         style="font-size:10px;font-family:sans-serif;text-anchor:end;fill:#000000">
        <tspan
           id="tspan38"
           y="13.5"
           x="68.027672">box</tspan>
      </text>
      <text
         id="text44"
         style="font-size:6.66666651px;font-family:sans-serif;text-anchor:end;fill:#000000">
        <tspan
           id="tspan42"
           y="11.25"
           x="68.027672" />
      </text>
    </g>
  </g>
  <g
     id="g58"
     transform="translate(133.0415,72.421537)">
    <g
       id="g56"
       transform="scale(1.5)">
      <path
         id="path50"
         style="fill:#ff9db5;fill-opacity:1;stroke:#73003b;stroke-width:1;stroke-linecap:round;stroke-opacity:1"
         d="m 8.5,0.5 h 60 v 20 h -60 v -8 -1 h -6 v 3 h -2 v -8 h 2 v 3 h 6 v -1 z" />
      <text
         id="text54"
         style="font-size:10px;font-family:sans-serif;text-anchor:start;fill:#000000">
        <tspan
           id="tspan52"
           y="13.833333"
           x="13.333333">1</tspan>
      </text>
    </g>
  </g>
  <g
     id="g72"
     transform="translate(27,103.92154)">
    <g
       id="g70"
       transform="scale(1.5)">
      <path
         id="path60"
         style="fill:#ff9404;fill-opacity:1;stroke:#3f0a00;stroke-width:1;stroke-linecap:round;stroke-opacity:1"
         d="m 0.5,8.5 v -4 a 4,4 90 0 1 4,-4 h 4 v 2 h 10 v -2 h 9 20 4 a 4,4 90 0 1 4,4 v 4 h -4 v -3 h -4 v 10 h 4 v -3 h 4 v 4 a 4,4 90 0 1 -4,4 h -4 -20 -1 v 2 h -8 v -2 h -1 -4 a 5,5 90 0 0 -5,5 v 4 4 273 4 a 5,5 90 0 0 5,5 h 4 v 2 h 10 v -2 h 8 v 6 6 4 a 4,4 90 0 1 -4,4 h -4 -9 -1 v 2 h -8 v -2 h -1 -4 a 4,4 90 0 1 -4,-4 v -4 z" />
      <text
         id="text64"
         style="font-size:10px;font-family:sans-serif;text-anchor:start;fill:#000000">
        <tspan
           id="tspan62"
           y="15.25"
           x="5.3333335">repeat</tspan>
      </text>
      <text
         id="text68"
         style="font-size:6.66666651px;font-family:sans-serif;text-anchor:end;fill:#000000">
        <tspan
           id="tspan66"
           y="11.25"
           x="45.333332" />
      </text>
    </g>
  </g>
  <g
     id="g82"
     transform="translate(99,103.92154)">
    <g
       id="g80"
       transform="scale(1.5)">
      <path
         id="path74"
         style="fill:#ff9db5;fill-opacity:1;stroke:#73003b;stroke-width:1;stroke-linecap:round;stroke-opacity:1"
         d="m 8.5,0.5 h 60 v 20 h -60 v -8 -1 h -6 v 3 h -2 v -8 h 2 v 3 h 6 v -1 z" />
      <text
         id="text78"
         style="font-size:10px;font-family:sans-serif;text-anchor:start;fill:#000000">
        <tspan
           id="tspan76"
           y="13.833333"
           x="13.333333">10</tspan>
      </text>
    </g>
  </g>
  <g
     id="g96"
     transform="translate(40.5,135.42154)">
    <g
       id="g94"
       transform="scale(1.5)">
      <path
         id="path84"
         style="fill:#fa644e;fill-opacity:1;stroke:#000000;stroke-width:1;stroke-linecap:round;stroke-opacity:1"
         d="m 0.5,8.5 v -4 a 4,4 90 0 1 4,-4 h 4 v 2 h 10 v -2 h 43.354492 4 a 4,4 90 0 1 4,4 v 4 h -4 v -3 h -4 v 10 h 4 v -3 h 4 v 4 a 4,4 90 0 1 -4,4 h -4 H 18.5 h -1 v 2 h -8 v -2 h -1 -4 a 4,4 90 0 1 -4,-4 v -4 z" />
      <text
         id="text88"
         style="font-size:10px;font-family:sans-serif;text-anchor:end;fill:#000000">
        <tspan
           id="tspan86"
           y="13.5"
           x="59.687824">new turtle</tspan>
      </text>
      <text
         id="text92"
         style="font-size:6.66666651px;font-family:sans-serif;text-anchor:end;fill:#000000">
        <tspan
           id="tspan90"
           y="11.25"
           x="59.687824" />
      </text>
    </g>
  </g>
  <g
     id="g106"
     transform="translate(134.03174,135.42154)">
    <g
       id="g104"
       transform="scale(1.5)">
      <path
         id="path98"
         style="fill:#ff8000;fill-opacity:1;stroke:#520000;stroke-width:1;stroke-linecap:round;stroke-opacity:1"
         d="m 8.5,0.5 h 80 v 20 h -80 v -8 -1 h -6 v 3 h -2 v -8 h 2 v 3 h 6 v -1 z" />
      <text
         id="text102"
         style="font-size:10px;font-family:sans-serif;text-anchor:start;fill:#000000">
        <tspan
           id="tspan100"
           y="13.833333"
           x="13.333333">box</tspan>
      </text>
    </g>
  </g>
  <g
     id="g120"
     transform="translate(40.5,166.92154)">
    <g
       id="g118"
       transform="scale(1.5)">
      <path
         id="path108"
         style="fill:#ff9404;fill-opacity:1;stroke:#3f0a00;stroke-width:1;stroke-linecap:round;stroke-opacity:1"
         d="m 0.5,8.5 v -4 a 4,4 90 0 1 4,-4 h 4 v 2 h 10 v -2 h 9 4 a 4,4 90 0 1 4,4 v 4 9 a 8,8 90 0 0 -8,8 8,8 90 0 0 8,8 v 4 a 4,4 90 0 1 -4,4 h -4 -1 v 2 h -8 v -2 h -1 -4 a 5,5 90 0 0 -5,5 v 4 4 168 4 a 5,5 90 0 0 5,5 h 4 v 2 h 10 v -2 h 8 v 6 6 4 a 4,4 90 0 1 -4,4 h -4 -9 -1 v 2 h -8 v -2 h -1 -4 a 4,4 90 0 1 -4,-4 v -4 z" />
      <text
         id="text112"
         style="font-size:10px;font-family:sans-serif;text-anchor:start;fill:#000000">
        <tspan
           id="tspan110"
           y="18.583334"
           x="5.3333335">if</tspan>
      </text>
      <text
         id="text116"
         style="font-size:6.66666651px;font-family:sans-serif;text-anchor:end;fill:#000000">
        <tspan
           id="tspan114"
           y="37.833332"
           x="30.666666">then</tspan>
      </text>
    </g>
  </g>
  <g
     id="g130"
     transform="translate(82.5,189.42154)">
    <g
       id="g128"
       transform="scale(1.5)">
      <path
         id="path122"
         style="fill:#fa644e;fill-opacity:1;stroke:#000000;stroke-width:1;stroke-linecap:round;stroke-opacity:1"
         d="m 0.5,10.5 a 7,7 90 0 1 7,-7 h 1 v -1 -2 h 74 v 8 h -4 v -3 h -4 v 10 h 4 v -3 h 4 v 8 h -74 v -2 -1 h -1 a 7,7 90 0 1 -7,-7 z" />
      <text
         id="text126"
         style="font-size:10px;font-family:sans-serif;text-anchor:end;fill:#000000">
        <tspan
           id="tspan124"
           y="13.833333"
           x="69.666664">found turtle</tspan>
      </text>
    </g>
  </g>
  <g
     id="g140"
     transform="translate(195,189.42154)">
    <g
       id="g138"
       transform="scale(1.5)">
      <path
         id="path132"
         style="fill:#ff8000;fill-opacity:1;stroke:#520000;stroke-width:1;stroke-linecap:round;stroke-opacity:1"
         d="m 8.5,0.5 h 80 v 20 h -80 v -8 -1 h -6 v 3 h -2 v -8 h 2 v 3 h 6 v -1 z" />
      <text
         id="text136"
         style="font-size:10px;font-family:sans-serif;text-anchor:start;fill:#000000">
        <tspan
           id="tspan134"
           y="13.833333"
           x="13.333333">box</tspan>
      </text>
    </g>
  </g>
  <g
     id="g154"
     transform="translate(54,229.92154)">
    <g
       id="g152"
       transform="scale(1.5)">
      <path
         id="path142"
         style="fill:#fa644e;fill-opacity:1;stroke:#000000;stroke-width:1;stroke-linecap:round;stroke-opacity:1"
         d="m 0.5,8.5 v -4 a 4,4 90 0 1 4,-4 h 4 v 2 h 10 v -2 h 9 28.349609 4 a 4,4 90 0 1 4,4 v 4 h -4 v -3 h -4 v 10 h 4 v -3 h 4 v 4 a 4,4 90 0 1 -4,4 h -4 H 27.5 h -1 v 2 h -8 v -2 h -1 -4 a 5,5 90 0 0 -5,5 v 4 4 126 4 a 5,5 90 0 0 5,5 h 4 v 2 h 10 v -2 h 8 v 6 6 4 a 4,4 90 0 1 -4,4 h -4 -9 -1 v 2 h -8 v -2 h -1 -4 a 4,4 90 0 1 -4,-4 v -4 z" />
      <text
         id="text146"
         style="font-size:10px;font-family:sans-serif;text-anchor:start;fill:#000000">
        <tspan
           id="tspan144"
           y="15.25"
           x="5.3333335">set turtle</tspan>
      </text>
      <text
         id="text150"
         style="font-size:6.66666651px;font-family:sans-serif;text-anchor:end;fill:#000000">
        <tspan
           id="tspan148"
           y="11.25"
           x="53.682941" />
      </text>
    </g>
  </g>
  <g
     id="g164"
     transform="translate(138.52441,229.92154)">
    <g
       id="g162"
       transform="scale(1.5)">
      <path
         id="path156"
         style="fill:#ff8000;fill-opacity:1;stroke:#520000;stroke-width:1;stroke-linecap:round;stroke-opacity:1"
         d="m 8.5,0.5 h 80 v 20 h -80 v -8 -1 h -6 v 3 h -2 v -8 h 2 v 3 h 6 v -1 z" />
      <text
         id="text160"
         style="font-size:10px;font-family:sans-serif;text-anchor:start;fill:#000000">
        <tspan
           id="tspan158"
           y="13.833333"
           x="13.333333">box</tspan>
      </text>
    </g>
  </g>
  <g
     id="g178"
     transform="translate(67.5,261.42154)">
    <g
       id="g176"
       transform="scale(1.5)">
      <path
         id="path166"
         style="fill:#00a8a8;fill-opacity:1;stroke:#000000;stroke-width:1;stroke-linecap:round;stroke-opacity:1"
         d="m 0.5,8.5 v -4 a 4,4 90 0 1 4,-4 h 4 v 2 h 10 v -2 h 37.792969 4 a 4,4 90 0 1 4,4 v 4 h -4 v -3 h -4 v 10 h 4 v -3 h 4 v 4 a 4,4 90 0 1 -4,4 h -4 H 18.5 h -1 v 2 h -8 v -2 h -1 -4 a 4,4 90 0 1 -4,-4 v -4 z" />
      <text
         id="text170"
         style="font-size:10px;font-family:sans-serif;text-anchor:end;fill:#000000">
        <tspan
           id="tspan168"
           y="13.5"
           x="54.126301">set color</tspan>
      </text>
      <text
         id="text174"
         style="font-size:6.66666651px;font-family:sans-serif;text-anchor:end;fill:#000000">
        <tspan
           id="tspan172"
           y="11.25"
           x="54.126301" />
      </text>
    </g>
  </g>
  <g
     id="g196"
     transform="translate(152.68945,261.42154)">
    <g
       id="g194"
       transform="scale(1.5)">
      <path
         id="path180"
         style="fill:#ff9db5;fill-opacity:1;stroke:#73003b;stroke-width:1;stroke-linecap:round;stroke-opacity:1"
         d="m 8.5,8.5 v -4 a 4,4 90 0 1 4,-4 h 4 10 30 4 a 4,4 90 0 1 4,4 v 4 h -4 v -3 h -4 v 10 h 4 v -3 h 4 v 17 h -4 v -3 h -4 v 10 h 4 v -3 h 4 v 4 a 4,4 90 0 1 -4,4 h -4 -30 -10 -4 a 4,4 90 0 1 -4,-4 v -4 -21 -1 h -6 v 3 h -2 v -8 h 2 v 3 h 6 z" />
      <text
         id="text184"
         style="font-size:14px;font-family:sans-serif;text-anchor:end;fill:#000000">
        <tspan
           id="tspan182"
           y="23.799999"
           x="54.333332">×</tspan>
      </text>
      <text
         id="text188"
         style="font-size:9.33333302px;font-family:sans-serif;text-anchor:end;fill:#000000">
        <tspan
           id="tspan186"
           y="10.75"
           x="54.333332" />
      </text>
      <text
         id="text192"
         style="font-size:9.33333302px;font-family:sans-serif;text-anchor:end;fill:#000000">
        <tspan
           id="tspan190"
           y="31.75"
           x="54.333332" />
      </text>
    </g>
  </g>
  <g
     id="g210"
     transform="translate(238.18945,261.42154)">
    <g
       id="g208"
       transform="scale(1.5)">
      <path
         id="path198"
         style="fill:#ff9db5;fill-opacity:1;stroke:#73003b;stroke-width:1;stroke-linecap:round;stroke-opacity:1"
         d="m 8.5,8.5 v -4 a 4,4 90 0 1 4,-4 h 4 10 30 4 a 4,4 90 0 1 4,4 v 4 h -4 v -3 h -4 v 10 h 4 v -3 h 4 v 4 a 4,4 90 0 1 -4,4 h -4 -30 -10 -4 a 4,4 90 0 1 -4,-4 v -4 -1 h -6 v 3 h -2 v -8 h 2 v 3 h 6 z" />
      <text
         id="text202"
         style="font-size:10px;font-family:sans-serif;text-anchor:end;fill:#000000">
        <tspan
           id="tspan200"
           y="12.5"
           x="54.333332">int</tspan>
      </text>
      <text
         id="text206"
         style="font-size:6.66666651px;font-family:sans-serif;text-anchor:end;fill:#000000">
        <tspan
           id="tspan204"
           y="11.25"
           x="54.333332" />
      </text>
    </g>
  </g>
  <g
     id="g220"
     transform="translate(323.68945,261.42154)">
    <g
       id="g218"
       transform="scale(1.5)">
      <path
         id="path212"
         style="fill:#fa644e;fill-opacity:1;stroke:#000000;stroke-width:1;stroke-linecap:round;stroke-opacity:1"
         d="m 8.5,0.5 h 90.024414 v 20 H 8.5 v -8 -1 h -6 v 3 h -2 v -8 h 2 v 3 h 6 v -1 z" />
      <text
         id="text216"
         style="font-size:10px;font-family:sans-serif;text-anchor:start;fill:#000000">
        <tspan
           id="tspan214"
           y="13.833333"
           x="13.333333">turtle name</tspan>
      </text>
    </g>
  </g>
  <g
     id="g230"
     transform="translate(238.18945,292.92154)">
    <g
       id="g228"
       transform="scale(1.5)">
      <path
         id="path222"
         style="fill:#ff9db5;fill-opacity:1;stroke:#73003b;stroke-width:1;stroke-linecap:round;stroke-opacity:1"
         d="m 8.5,0.5 h 60 v 20 h -60 v -8 -1 h -6 v 3 h -2 v -8 h 2 v 3 h 6 v -1 z" />
      <text
         id="text226"
         style="font-size:10px;font-family:sans-serif;text-anchor:start;fill:#000000">
        <tspan
           id="tspan224"
           y="13.833333"
           x="13.333333">8</tspan>
      </text>
    </g>
  </g>
  <g
     id="g240"
     transform="translate(67.5,292.92154)">
    <g
       id="g238"
       transform="scale(1.5)">
      <path
         id="path232"
         style="fill:#fa644e;fill-opacity:1;stroke:#000000;stroke-width:1;stroke-linecap:round;stroke-opacity:1"
         d="m 0.5,8.5 v -4 a 4,4 90 0 1 4,-4 h 4 v 2 h 10 v -2 h 20 4 a 4,4 90 0 1 4,4 v 4 4 4 a 4,4 90 0 1 -4,4 h -4 -20 -1 v 2 h -8 v -2 h -1 -4 a 4,4 90 0 1 -4,-4 v -4 z" />
      <text
         id="text236"
         style="font-size:10px;font-family:sans-serif;text-anchor:end;fill:#000000">
        <tspan
           id="tspan234"
           y="13.5"
           x="36.333332">↓</tspan>
      </text>
    </g>
  </g>
  <g
     id="g254"
     transform="translate(67.5,324.42154)">
    <g
       id="g252"
       transform="scale(1.5)">
      <path
         id="path242"
         style="fill:#ff9404;fill-opacity:1;stroke:#3f0a00;stroke-width:1;stroke-linecap:round;stroke-opacity:1"
         d="m 0.5,8.5 v -4 a 4,4 90 0 1 4,-4 h 4 v 2 h 10 v -2 h 9 20 4 a 4,4 90 0 1 4,4 v 4 h -4 v -3 h -4 v 10 h 4 v -3 h 4 v 4 a 4,4 90 0 1 -4,4 h -4 -20 -1 v 2 h -8 v -2 h -1 -4 a 5,5 90 0 0 -5,5 v 4 4 42 4 a 5,5 90 0 0 5,5 h 4 v 2 h 10 v -2 h 8 v 6 6 4 a 4,4 90 0 1 -4,4 h -4 -9 -1 v 2 h -8 v -2 h -1 -4 a 4,4 90 0 1 -4,-4 v -4 z" />
      <text
         id="text246"
         style="font-size:10px;font-family:sans-serif;text-anchor:start;fill:#000000">
        <tspan
           id="tspan244"
           y="15.25"
           x="5.3333335">repeat</tspan>
      </text>
      <text
         id="text250"
         style="font-size:6.66666651px;font-family:sans-serif;text-anchor:end;fill:#000000">
        <tspan
           id="tspan248"
           y="11.25"
           x="45.333332" />
      </text>
    </g>
  </g>
  <g
     id="g264"
     transform="translate(139.5,324.42154)">
    <g
       id="g262"
       transform="scale(1.5)">
      <path
         id="path256"
         style="fill:#ff9db5;fill-opacity:1;stroke:#73003b;stroke-width:1;stroke-linecap:round;stroke-opacity:1"
         d="m 8.5,0.5 h 60 v 20 h -60 v -8 -1 h -6 v 3 h -2 v -8 h 2 v 3 h 6 v -1 z" />
      <text
         id="text260"
         style="font-size:10px;font-family:sans-serif;text-anchor:start;fill:#000000">
        <tspan
           id="tspan258"
           y="13.833333"
           x="13.333333">10</tspan>
      </text>
    </g>
  </g>
  <g
     id="g278"
     transform="translate(81,355.92154)">
    <g
       id="g276"
       transform="scale(1.5)">
      <path
         id="path266"
         style="fill:#88e20a;fill-opacity:1;stroke:#004100;stroke-width:1;stroke-linecap:round;stroke-opacity:1"
         d="m 0.5,8.5 v -4 a 4,4 90 0 1 4,-4 h 4 v 2 h 10 v -2 h 33.344727 4 a 4,4 90 0 1 4,4 v 4 h -4 v -3 h -4 v 10 h 4 v -3 h 4 v 4 a 4,4 90 0 1 -4,4 h -4 H 18.5 h -1 v 2 h -8 v -2 h -1 -4 a 4,4 90 0 1 -4,-4 v -4 z" />
      <text
         id="text270"
         style="font-size:10px;font-family:sans-serif;text-anchor:end;fill:#000000">
        <tspan
           id="tspan268"
           y="13.5"
           x="49.678059">forward</tspan>
      </text>
      <text
         id="text274"
         style="font-size:6.66666651px;font-family:sans-serif;text-anchor:end;fill:#000000">
        <tspan
           id="tspan272"
           y="11.25"
           x="49.678059" />
      </text>
    </g>
  </g>
  <g
     id="g288"
     transform="translate(159.51709,355.92154)">
    <g
       id="g286"
       transform="scale(1.5)">
      <path
         id="path280"
         style="fill:#ff9db5;fill-opacity:1;stroke:#73003b;stroke-width:1;stroke-linecap:round;stroke-opacity:1"
         d="m 8.5,0.5 h 60 v 20 h -60 v -8 -1 h -6 v 3 h -2 v -8 h 2 v 3 h 6 v -1 z" />
      <text
         id="text284"
         style="font-size:10px;font-family:sans-serif;text-anchor:start;fill:#000000">
        <tspan
           id="tspan282"
           y="13.833333"
           x="13.333333">25</tspan>
      </text>
    </g>
  </g>
  <g
     id="g302"
     transform="translate(81,387.42154)">
    <g
       id="g300"
       transform="scale(1.5)">
      <path
         id="path290"
         style="fill:#88e20a;fill-opacity:1;stroke:#004100;stroke-width:1;stroke-linecap:round;stroke-opacity:1"
         d="m 0.5,8.5 v -4 a 4,4 90 0 1 4,-4 h 4 v 2 h 10 v -2 h 30 4 a 4,4 90 0 1 4,4 v 4 h -4 v -3 h -4 v 10 h 4 v -3 h 4 v 4 a 4,4 90 0 1 -4,4 h -4 -30 -1 v 2 h -8 v -2 h -1 -4 a 4,4 90 0 1 -4,-4 v -4 z" />
      <text
         id="text294"
         style="font-size:10px;font-family:sans-serif;text-anchor:end;fill:#000000">
        <tspan
           id="tspan292"
           y="13.5"
           x="46.333332">right</tspan>
      </text>
      <text
         id="text298"
         style="font-size:6.66666651px;font-family:sans-serif;text-anchor:end;fill:#000000">
        <tspan
           id="tspan296"
           y="11.25"
           x="46.333332" />
      </text>
    </g>
  </g>
  <g
     id="g320"
     transform="translate(154.5,387.42154)">
    <g
       id="g318"
       transform="scale(1.5)">
      <path
         id="path304"
         style="fill:#ff9db5;fill-opacity:1;stroke:#73003b;stroke-width:1;stroke-linecap:round;stroke-opacity:1"
         d="m 8.5,8.5 v -4 a 4,4 90 0 1 4,-4 h 4 10 30 4 a 4,4 90 0 1 4,4 v 4 h -4 v -3 h -4 v 10 h 4 v -3 h 4 v 17 h -4 v -3 h -4 v 10 h 4 v -3 h 4 v 4 a 4,4 90 0 1 -4,4 h -4 -30 -10 -4 a 4,4 90 0 1 -4,-4 v -4 -21 -1 h -6 v 3 h -2 v -8 h 2 v 3 h 6 z" />
      <text
         id="text308"
         style="font-size:10px;font-family:sans-serif;text-anchor:end;fill:#000000">
        <tspan
           id="tspan306"
           y="23"
           x="54.333332">one of</tspan>
      </text>
      <text
         id="text312"
         style="font-size:6.66666651px;font-family:sans-serif;text-anchor:end;fill:#000000">
        <tspan
           id="tspan310"
           y="11.25"
           x="54.333332">this</tspan>
      </text>
      <text
         id="text316"
         style="font-size:6.66666651px;font-family:sans-serif;text-anchor:end;fill:#000000">
        <tspan
           id="tspan314"
           y="32.25"
           x="54.333332">that</tspan>
      </text>
    </g>
  </g>
  <g
     id="g330"
     transform="translate(240,387.42154)">
    <g
       id="g328"
       transform="scale(1.5)">
      <path
         id="path322"
         style="fill:#ff9db5;fill-opacity:1;stroke:#73003b;stroke-width:1;stroke-linecap:round;stroke-opacity:1"
         d="m 8.5,0.5 h 60 v 20 h -60 v -8 -1 h -6 v 3 h -2 v -8 h 2 v 3 h 6 v -1 z" />
      <text
         id="text326"
         style="font-size:10px;font-family:sans-serif;text-anchor:start;fill:#000000">
        <tspan
           id="tspan324"
           y="13.833333"
           x="13.333333">-45</tspan>
      </text>
    </g>
  </g>
  <g
     id="g340"
     transform="translate(240,418.92154)">
    <g
       id="g338"
       transform="scale(1.5)">
      <path
         id="path332"
         style="fill:#ff9db5;fill-opacity:1;stroke:#73003b;stroke-width:1;stroke-linecap:round;stroke-opacity:1"
         d="m 8.5,0.5 h 60 v 20 h -60 v -8 -1 h -6 v 3 h -2 v -8 h 2 v 3 h 6 v -1 z" />
      <text
         id="text336"
         style="font-size:10px;font-family:sans-serif;text-anchor:start;fill:#000000">
        <tspan
           id="tspan334"
           y="13.833333"
           x="13.333333">45</tspan>
      </text>
    </g>
  </g>
  <g
     id="g350"
     transform="translate(81,418.92154)">
    <g
       id="g348"
       transform="scale(1.5)">
      <path
         id="path342"
         style="fill:#fa644e;fill-opacity:1;stroke:#000000;stroke-width:1;stroke-linecap:round;stroke-opacity:1"
         d="m 0.5,8.5 v -4 a 4,4 90 0 1 4,-4 h 4 v 2 h 10 v -2 h 20 4 a 4,4 90 0 1 4,4 v 4 4 4 a 4,4 90 0 1 -4,4 h -4 -20 -1 v 2 h -8 v -2 h -1 -4 a 4,4 90 0 1 -4,-4 v -4 z" />
      <text
         id="text346"
         style="font-size:10px;font-family:sans-serif;text-anchor:end;fill:#000000">
        <tspan
           id="tspan344"
           y="13.5"
           x="36.333332">↓</tspan>
      </text>
    </g>
  </g>
  <g
     id="g364"
     transform="translate(40.5,544.92154)">
    <g
       id="g362"
       transform="scale(1.5)">
      <path
         id="path352"
         style="fill:#ff8000;fill-opacity:1;stroke:#520000;stroke-width:1;stroke-linecap:round;stroke-opacity:1"
         d="m 0.5,8.5 v -4 a 4,4 90 0 1 4,-4 h 4 v 2 h 10 v -2 h 36.142578 4 a 4,4 90 0 1 4,4 v 4 h -4 v -3 h -4 v 10 h 4 v -3 h 4 v 4 a 4,4 90 0 1 -4,4 h -4 H 18.5 h -1 v 2 h -8 v -2 h -1 -4 a 4,4 90 0 1 -4,-4 v -4 z" />
      <text
         id="text356"
         style="font-size:10px;font-family:sans-serif;text-anchor:end;fill:#000000">
        <tspan
           id="tspan354"
           y="13.5"
           x="52.47591">add 1 to</tspan>
      </text>
      <text
         id="text360"
         style="font-size:6.66666651px;font-family:sans-serif;text-anchor:end;fill:#000000">
        <tspan
           id="tspan358"
           y="11.25"
           x="52.47591" />
      </text>
    </g>
  </g>
  <g
     id="g374"
     transform="translate(123.21387,544.92154)">
    <g
       id="g372"
       transform="scale(1.5)">
      <path
         id="path366"
         style="fill:#ff8000;fill-opacity:1;stroke:#520000;stroke-width:1;stroke-linecap:round;stroke-opacity:1"
         d="m 8.5,0.5 h 80 v 20 h -80 v -8 -1 h -6 v 3 h -2 v -8 h 2 v 3 h 6 v -1 z" />
      <text
         id="text370"
         style="font-size:10px;font-family:sans-serif;text-anchor:start;fill:#000000">
        <tspan
           id="tspan368"
           y="13.833333"
           x="13.333333">box</tspan>
      </text>
    </g>
  </g>
</svg>
