<?xml version="1.0" encoding="UTF-8" standalone="no"?>
<!-- Created with Inkscape (http://www.inkscape.org/) -->

<svg
   xmlns:dc="http://purl.org/dc/elements/1.1/"
   xmlns:cc="http://creativecommons.org/ns#"
   xmlns:rdf="http://www.w3.org/1999/02/22-rdf-syntax-ns#"
   xmlns:svg="http://www.w3.org/2000/svg"
   xmlns="http://www.w3.org/2000/svg"
   version="1.1"
   width="102"
   height="84"
   id="svg3175">
  <metadata
     id="metadata3191">
    <rdf:RDF>
      <cc:Work
         rdf:about="">
        <dc:format>image/svg+xml</dc:format>
        <dc:type
           rdf:resource="http://purl.org/dc/dcmitype/StillImage" />
        <dc:title></dc:title>
      </cc:Work>
    </rdf:RDF>
  </metadata>
  <defs
     id="defs3189" />
  <g
     transform="matrix(2,0,0,2,0,-32)"
     id="g3179"
     style="fill:#d8d100;fill-opacity:1;stroke:#a19a00;stroke-opacity:1">
    <path
       d="m 0.5,41.5 a 7,7 90 0 1 7,-7 l 1,0 0,-10 a 8,8 90 0 1 8,-8 l 34,0 0,8 -4,0 0,-3 -4,0 0,10 4,0 0,-3 4,0 0,17 -4,0 0,-3 -4,0 0,10 4,0 0,-3 4,0 0,8 -30,0 -12,0 -1,0 0,-1 0,-7 a 7,7 90 0 1 -7,-7 z"
       id="path3181"
       style="fill:#d8d100;fill-opacity:1;stroke:#a19a00;stroke-width:1;stroke-linecap:round;stroke-opacity:1;filter:url(#dropshadow)" />
  </g>
  <text
     id="text3183"
     style="font-size:28px;text-anchor:end;fill:#000000;fill-opacity:1;font-family:sans-serif">
    <tspan
       x="82"
       y="49"
       id="tspan3185"
       style="fill:#000000;fill-opacity:1">&gt;</tspan>
  </text>
</svg>
