<?xml version="1.0" encoding="UTF-8" standalone="no"?>
<!-- Created with Inkscape (http://www.inkscape.org/) -->

<svg
   xmlns:dc="http://purl.org/dc/elements/1.1/"
   xmlns:cc="http://creativecommons.org/ns#"
   xmlns:rdf="http://www.w3.org/1999/02/22-rdf-syntax-ns#"
   xmlns:svg="http://www.w3.org/2000/svg"
   xmlns="http://www.w3.org/2000/svg"
   version="1.1"
   width="215.79192"
   height="67.199997"
   id="svg2">
  <metadata
     id="metadata35">
    <rdf:RDF>
      <cc:Work
         rdf:about="">
        <dc:format>image/svg+xml</dc:format>
        <dc:type
           rdf:resource="http://purl.org/dc/dcmitype/StillImage" />
        <dc:title></dc:title>
      </cc:Work>
    </rdf:RDF>
  </metadata>
  <defs
     id="defs33">
    <filter
       height="1.3"
       color-interpolation-filters="sRGB"
       id="dropshadow">
      <feGaussianBlur
         in="SourceAlpha"
         stdDeviation="3"
         id="feGaussianBlur7" />
      <feOffset
         dx="2"
         dy="2"
         result="offsetblur"
         id="feOffset9" />
      <feComponentTransfer
         id="feComponentTransfer11">
        <feFuncA
           type="linear"
           slope="0.2"
           id="feFuncA13" />
      </feComponentTransfer>
      <feMerge
         id="feMerge15">
        <feMergeNode
           id="feMergeNode17" />
        <feMergeNode
           in="SourceGraphic"
           id="feMergeNode19" />
      </feMerge>
    </filter>
  </defs>
  <path
     d="m 8.5,8.5 0,-4 c 0,-2.0943951 1.905605,-4 4,-4 l 4,0 10,0 42,0 4,0 c 2.094395,0 4.507965,1.9681383 4,4 l 0,4 -4,0 0,-3 -4,0 0,10 4,0 0,-3 4,0 0,4 c 0,2.094395 -1.905605,4 -4,4 l -4,0 -42,0 -10,0 -4,0 c -2.094395,0 -4,-1.905605 -4,-4 l 0,-4 0,-1 -6,0 0,3 -2,0 0,-8 2,0 0,3 6,0 z"
     transform="matrix(2,0,0,2,30.827416,16.799996)"
     id="path21"
     style="fill:#dd7f00;fill-opacity:1;stroke:#955100;stroke-width:1;stroke-linecap:round;stroke-opacity:1;filter:url(#dropshadow)" />
  <text
     x="52.827415"
     y="16.799995"
     id="text23"
     style="font-size:20px;text-anchor:end;fill:#000000;font-family:Sans">
    <tspan
       x="162.82742"
       y="42.799995"
       id="tspan25">index heap</tspan>
  </text>
  <text
     x="30.827415"
     y="16.799995"
     id="text27"
     style="font-size:13.33333302px;text-anchor:end;fill:#000000;font-family:Sans">
    <tspan
       x="140.82742"
       y="39.299995"
       id="tspan29" />
  </text>
</svg>
