<?xml version="1.0" encoding="UTF-8" standalone="no"?>
<!-- Created with Inkscape (http://www.inkscape.org/) -->

<svg
   xmlns:dc="http://purl.org/dc/elements/1.1/"
   xmlns:cc="http://creativecommons.org/ns#"
   xmlns:rdf="http://www.w3.org/1999/02/22-rdf-syntax-ns#"
   xmlns:svg="http://www.w3.org/2000/svg"
   xmlns="http://www.w3.org/2000/svg"
   version="1.1"
   width="102"
   height="84"
   id="svg3012">
  <metadata
     id="metadata3041">
    <rdf:RDF>
      <cc:Work
         rdf:about="">
        <dc:format>image/svg+xml</dc:format>
        <dc:type
           rdf:resource="http://purl.org/dc/dcmitype/StillImage" />
        <dc:title></dc:title>
      </cc:Work>
    </rdf:RDF>
  </metadata>
  <defs
     id="defs3039">
    <filter
       height="1.3"
       color-interpolation-filters="sRGB"
       id="dropshadow">
      <feGaussianBlur
         in="SourceAlpha"
         stdDeviation="3"
         id="feGaussianBlur3017" />
      <feOffset
         dx="2"
         dy="2"
         result="offsetblur"
         id="feOffset3019" />
      <feComponentTransfer
         id="feComponentTransfer3021">
        <feFuncA
           type="linear"
           slope="0.2"
           id="feFuncA3023" />
      </feComponentTransfer>
      <feMerge
         id="feMerge3025">
        <feMergeNode
           id="feMergeNode3027" />
        <feMergeNode
           in="SourceGraphic"
           id="feMergeNode3029" />
      </feMerge>
    </filter>
  </defs>
  <path
     d="M 1,67 A 14,14 0 0 1 15,53 l 2,0 0,-36 A 16,16 0 0 1 33,1 l 68,0 0,16 -8,0 0,-6 -8,0 0,20 8,0 0,-6 8,0 0,34 -8,0 0,-6 -8,0 0,20 8,0 0,-6 8,0 0,16 -60,0 -24,0 0,-2 -2,0 A 14,14 0 0 1 1,67 z"
     id="path3031"
     style="fill:#ff00ff;fill-opacity:1;stroke:#c700d3;stroke-width:2;stroke-linecap:round;stroke-opacity:1" />
  <text
     id="text3033"
     style="font-size:28px;text-anchor:end;fill:#000000;font-family:Sans">
    <tspan
       x="82"
       y="49"
       id="tspan3035">&lt;</tspan>
  </text>
</svg>
