<?xml version="1.0" encoding="UTF-8" standalone="no"?>
<!-- Created with Inkscape (http://www.inkscape.org/) -->

<svg
   xmlns:dc="http://purl.org/dc/elements/1.1/"
   xmlns:cc="http://creativecommons.org/ns#"
   xmlns:rdf="http://www.w3.org/1999/02/22-rdf-syntax-ns#"
   xmlns:svg="http://www.w3.org/2000/svg"
   xmlns="http://www.w3.org/2000/svg"
   version="1.1"
   width="145.2"
   height="109.2"
   id="svg2">
  <metadata
     id="metadata39">
    <rdf:RDF>
      <cc:Work
         rdf:about="">
        <dc:format>image/svg+xml</dc:format>
        <dc:type
           rdf:resource="http://purl.org/dc/dcmitype/StillImage" />
        <dc:title></dc:title>
      </cc:Work>
    </rdf:RDF>
  </metadata>
  <defs
     id="defs37" />
  <g
     transform="scale(2,2)"
     id="g4">
    <filter
       height="1.3"
       color-interpolation-filters="sRGB"
       id="dropshadow">
      <feGaussianBlur
         id="feGaussianBlur7"
         stdDeviation="3"
         in="SourceAlpha" />
      <feOffset
         id="feOffset9"
         result="offsetblur"
         dy="2"
         dx="2" />
      <feComponentTransfer
         id="feComponentTransfer11">
        <feFuncA
           id="feFuncA13"
           slope="0.2"
           type="linear" />
      </feComponentTransfer>
      <feMerge
         id="feMerge15">
        <feMergeNode
           id="feMergeNode17" />
        <feMergeNode
           id="feMergeNode19"
           in="SourceGraphic" />
      </feMerge>
    </filter>
    <path
       d="m 8.5,8.5 0,-4 a 4,4 90 0 1 4,-4 l 4,0 10,0 30,0 4,0 a 4,4 90 0 1 4,4 l 0,4 -4,0 0,-3 -4,0 0,10 4,0 0,-3 4,0 0,17 -4,0 0,-3 -4,0 0,10 4,0 0,-3 4,0 0,4 a 4,4 90 0 1 -4,4 l -4,0 -30,0 -10,0 -4,0 a 4,4 90 0 1 -4,-4 l 0,-4 0,-21 0,-1 -6,0 0,3 -2,0 0,-8 2,0 0,3 6,0 0,-1 z"
       id="path21"
       style="fill:#ff00ff;fill-opacity:1;stroke:#c700d3;stroke-width:1;stroke-linecap:round;stroke-opacity:1;filter:url(#dropshadow)" />
    <text
       id="text23"
       style="font-size:10px;text-anchor:end;fill:#000000;font-family:Sans">
      <tspan
         x="55"
         y="23.5"
         id="tspan25">one of</tspan>
    </text>
    <text
       id="text27"
       style="font-size:6.66666651px;text-anchor:end;fill:#000000;font-family:Sans">
      <tspan
         x="55"
         y="11.25"
         id="tspan29">this</tspan>
    </text>
    <text
       id="text31"
       style="font-size:6.66666651px;text-anchor:end;fill:#000000;font-family:Sans">
      <tspan
         x="55"
         y="32.25"
         id="tspan33">that</tspan>
    </text>
  </g>
</svg>
