<?xml version="1.0" encoding="UTF-8" standalone="no"?>
<!-- Created with Inkscape (http://www.inkscape.org/) -->

<svg
   xmlns:dc="http://purl.org/dc/elements/1.1/"
   xmlns:cc="http://creativecommons.org/ns#"
   xmlns:rdf="http://www.w3.org/1999/02/22-rdf-syntax-ns#"
   xmlns:svg="http://www.w3.org/2000/svg"
   xmlns="http://www.w3.org/2000/svg"
   version="1.1"
   width="102"
   height="132"
   id="svg3029">
  <metadata
     id="metadata3058">
    <rdf:RDF>
      <cc:Work
         rdf:about="">
        <dc:format>image/svg+xml</dc:format>
        <dc:type
           rdf:resource="http://purl.org/dc/dcmitype/StillImage" />
        <dc:title></dc:title>
      </cc:Work>
    </rdf:RDF>
  </metadata>
  <defs
     id="defs3056">
    <filter
       height="1.3"
       color-interpolation-filters="sRGB"
       id="dropshadow">
      <feGaussianBlur
         in="SourceAlpha"
         stdDeviation="3"
         id="feGaussianBlur3034" />
      <feOffset
         dx="2"
         dy="2"
         result="offsetblur"
         id="feOffset3036" />
      <feComponentTransfer
         id="feComponentTransfer3038">
        <feFuncA
           type="linear"
           slope="0.2"
           id="feFuncA3040" />
      </feComponentTransfer>
      <feMerge
         id="feMerge3042">
        <feMergeNode
           id="feMergeNode3044" />
        <feMergeNode
           in="SourceGraphic"
           id="feMergeNode3046" />
      </feMerge>
    </filter>
  </defs>
  <path
     d="m 1,115 a 14,14 0 0 1 14,-14 l 2,0 0,-84 A 16,16 0 0 1 33,1 l 68,0 0,8 a 16,16 0 0 0 -16,16 16,16 0 0 0 16,16 l 0,50 a 16,16 0 0 0 -16,16 16,16 0 0 0 16,16 l 0,8 -60,0 -24,0 0,-2 -2,0 A 14,14 0 0 1 1,115 z"
     id="path3048"
     style="fill:#ff00ff;fill-opacity:1;stroke:#c700d3;stroke-width:2;stroke-linecap:round;stroke-opacity:1" />
  <text
     id="text3050"
     style="font-size:20px;text-anchor:end;fill:#000000;font-family:Sans">
    <tspan
       x="82"
       y="71"
       id="tspan3052">or</tspan>
  </text>
</svg>
