<?xml version="1.0" encoding="UTF-8" standalone="no"?>
<!-- Created with Inkscape (http://www.inkscape.org/) -->

<svg
   xmlns:dc="http://purl.org/dc/elements/1.1/"
   xmlns:cc="http://creativecommons.org/ns#"
   xmlns:rdf="http://www.w3.org/1999/02/22-rdf-syntax-ns#"
   xmlns:svg="http://www.w3.org/2000/svg"
   xmlns="http://www.w3.org/2000/svg"
   version="1.1"
   width="114"
   height="54.5625"
   id="svg3748">
  <metadata
     id="metadata3777">
    <rdf:RDF>
      <cc:Work
         rdf:about="">
        <dc:format>image/svg+xml</dc:format>
        <dc:type
           rdf:resource="http://purl.org/dc/dcmitype/StillImage" />
        <dc:title></dc:title>
      </cc:Work>
    </rdf:RDF>
  </metadata>
  <defs
     id="defs3775">
    <filter
       height="1.3"
       color-interpolation-filters="sRGB"
       id="dropshadow">
      <feGaussianBlur
         in="SourceAlpha"
         stdDeviation="3"
         id="feGaussianBlur3753" />
      <feOffset
         dx="2"
         dy="2"
         result="offsetblur"
         id="feOffset3755" />
      <feComponentTransfer
         id="feComponentTransfer3757">
        <feFuncA
           type="linear"
           slope="0.2"
           id="feFuncA3759" />
      </feComponentTransfer>
      <feMerge
         id="feMerge3761">
        <feMergeNode
           id="feMergeNode3763" />
        <feMergeNode
           in="SourceGraphic"
           id="feMergeNode3765" />
      </feMerge>
    </filter>
  </defs>
  <path
     d="M 1,17 1,9 A 8,8 0 0 1 9,1 l 8,0 0,4 20,0 0,-4 60,0 8,0 a 8,8 0 0 1 8,8 l 0,8 0,8 0,8 a 8,8 0 0 1 -8,8 L 97,41 37,41 27,53 17,41 9,41 A 8,8 0 0 1 1,33 l 0,-8 z"
     id="path3767"
     style="fill:#fd6600;fill-opacity:1;stroke:#ac3d00;stroke-width:2;stroke-linecap:round;stroke-opacity:1" />
  <text
     id="text3769"
     style="font-size:20px;text-anchor:end;fill:#000000;font-family:Sans">
    <tspan
       x="94"
       y="32"
       id="tspan3771">stop</tspan>
  </text>
</svg>
