<?xml version="1.0" ?>
<!DOCTYPE svg  PUBLIC '-//W3C//DTD SVG 1.1//EN'  'http://www.w3.org/Graphics/SVG/1.1/DTD/svg11.dtd' [
	<!ENTITY stroke_color "#000">
	<!ENTITY fill_color "#eee">
]>
<svg height="100px" viewBox="0 0 55 55" width="100px" xmlns="http://www.w3.org/2000/svg" xmlns:xlink="http://www.w3.org/1999/xlink" stroke-linecap="round" stroke-linejoin="round" stroke-width="3.5" stroke="&stroke_color;" fill="&fill_color;">
  <path
     d="m 27.497,48.279 c -0.553,0 -1.099,-0.035 -1.637,-0.1 l 1.388,2.349 1.368,-2.313 c -0.371,0.03 -0.741,0.064 -1.119,0.064 z"
     id="path6"
     style="fill:&fill_color;;stroke:&stroke_color;;stroke-width:3.5" />
  <g
     id="g8">
    <path
       d="m 40.16,11.726 c -2.164,0 -3.958,1.555 -4.343,3.607 1.859,1.345 3.457,3.115 4.675,5.208 2.285,-0.172 4.094,-2.061 4.094,-4.39 0,-2.444 -1.982,-4.425 -4.426,-4.425 z"
       id="path10"
       style="fill:&fill_color;;stroke:&stroke_color;;stroke-width:3.5" />
    <path
       d="m 40.713,39.887 c -1.224,2.232 -2.86,4.131 -4.797,5.556 0.521,1.864 2.213,3.239 4.244,3.239 2.443,0 4.426,-1.98 4.426,-4.424 0,-2.255 -1.693,-4.096 -3.873,-4.371 z"
       id="path12"
       style="fill:&fill_color;;stroke:&stroke_color;;stroke-width:3.5" />
    <path
       d="m 14.273,39.871 c -2.253,0.206 -4.024,2.079 -4.024,4.387 0,2.443 1.98,4.424 4.424,4.424 2.064,0 3.784,-1.42 4.272,-3.332 -1.883,-1.416 -3.475,-3.289 -4.672,-5.479 z"
       id="path14"
       style="fill:&fill_color;;stroke:&stroke_color;;stroke-width:3.5" />
    <path
       d="m 19.026,15.437 c -0.343,-2.103 -2.154,-3.711 -4.353,-3.711 -2.444,0 -4.424,1.981 -4.424,4.424 0,2.382 1.886,4.31 4.245,4.406 1.186,-2.043 2.732,-3.784 4.532,-5.119 z"
       id="path16"
       style="fill:&fill_color;;stroke:&stroke_color;;stroke-width:3.5" />
  </g>
  <path
     d="m 27.497,12.563 c 1.908,0 3.728,0.411 5.418,1.128 0.741,-1.076 1.178,-2.377 1.178,-3.783 0,-3.687 -2.989,-6.677 -6.677,-6.677 -3.687,0 -6.676,2.99 -6.676,6.677 0,1.428 0.452,2.749 1.216,3.834 1.724,-0.749 3.587,-1.179 5.541,-1.179 z"
     id="path18"
     style="fill:&fill_color;;stroke:&stroke_color;;stroke-width:3.5" />
  <g
     id="g20">
    <path
       d="m 43.102,30.421 c 0,4.7344 -1.6452,9.2798 -4.5706,12.6275 -2.9254,3.3478 -6.8973,5.2305 -11.0344,5.2305 -4.1371,0 -8.109,-1.8827 -11.0344,-5.2305 -2.9254,-3.3477 -4.5706,-7.8931 -4.5706,-12.6275 0,-9.7966 7.0444,-17.858 15.605,-17.858 8.5606,0 15.605,8.0614 15.605,17.858 z"
       id="path22"
       style="fill:&fill_color;;stroke:&stroke_color;;stroke-width:3.5" />
  </g>
  <text
     x="37.286064"
     y="34.756939"
     id="text3035"
     xml:space="preserve"
     style="font-size:16px;font-style:normal;font-weight:normal;text-align:end;line-height:125%;letter-spacing:0px;word-spacing:0px;text-anchor:end;fill:&stroke_color;;fill-opacity:1;stroke:none;font-family:Sans"><tspan
       x="37.286064"
       y="34.756939"
       id="tspan3037"
       style="font-weight:bold;-inkscape-font-specification:Sans Bold">JS</tspan></text>
</svg>
