<?xml version="1.0" encoding="UTF-8" standalone="no"?>
<!-- Created with Inkscape (http://www.inkscape.org/) -->

<svg
   xmlns:dc="http://purl.org/dc/elements/1.1/"
   xmlns:cc="http://creativecommons.org/ns#"
   xmlns:rdf="http://www.w3.org/1999/02/22-rdf-syntax-ns#"
   xmlns:svg="http://www.w3.org/2000/svg"
   xmlns="http://www.w3.org/2000/svg"
   version="1.1"
   width="114"
   height="88"
   id="svg2989">
  <g
     transform="matrix(2,0,0,2,0,14)"
     id="g2991"
     style="fill:#ffdc00;fill-opacity:1;stroke:#c48d00;stroke-opacity:1">
    <path
       d="m 0.5,8.5 0,-4 c 0,-2.0943951 1.9056049,-4 4,-4 l 4,0 5,-7 5,7 9,0 21,0 4,0 c 2.094395,0 3.740222,1.9217781 4,4 l 0,4 -4,0 0,-3 -4,0 0,10 4,0 0,-3 4,0 0,4 c 0,2.094395 -1.905605,4 -4,4 l -4,0 -21,0 -1,0 0,2 -8,0 0,-2 -1,0 -4,0 c -2.617994,0 -5,2.382006 -5,5 l -8,0 z"
       id="path2993"
       style="fill:#ffdc00;fill-opacity:1;stroke:#c48d00;stroke-width:1;stroke-linecap:round;stroke-opacity:1" />
  </g>
  <rect
     width="14"
     height="4"
     x="2"
     y="62"
     id="rect3001"
     style="fill:#ffdc00;fill-opacity:1;fill-rule:nonzero;stroke:none" />
  <text
     x="69.360352"
     y="42.723404"
     id="text2985"
     xml:space="preserve"
     style="font-size:16px;font-style:normal;font-weight:normal;text-align:end;line-height:125%;letter-spacing:0px;word-spacing:0px;text-anchor:end;fill:#000000;fill-opacity:1;stroke:none;font-family:Sans"><tspan
       x="69.360352"
       y="42.723404"
       id="tspan2987"
       style="font-size:18px">action</tspan></text>
  <path
     d="m 1.104846,67.104846 15.790308,0 c 0,6.59677 0,13.193538 0,19.790308 l -15.790308,0 z"
     id="path3062"
     style="fill:#ffdc00;fill-opacity:1;stroke:#ffdc00;stroke-width:2.20969129;stroke-linecap:round;stroke-opacity:0.94117647" />
  <path
     d="m 1.035523,67.18479 0,19.594575"
     id="path2984"
     style="fill:#c48d00;fill-opacity:1;stroke:none" />
  <rect
     width="2"
     height="22"
     x="0"
     y="66"
     id="rect3753"
     style="fill:#c48d00;fill-opacity:1;fill-rule:nonzero;stroke:none" />
  <rect
     width="2"
     height="22"
     x="16"
     y="66"
     id="rect3753-6"
     style="fill:#c48d00;fill-opacity:1;fill-rule:nonzero;stroke:none" />
</svg>
