<?xml version="1.0" encoding="UTF-8" standalone="no"?>
<!-- Created with Inkscape (http://www.inkscape.org/) -->

<svg
   xmlns:dc="http://purl.org/dc/elements/1.1/"
   xmlns:cc="http://creativecommons.org/ns#"
   xmlns:rdf="http://www.w3.org/1999/02/22-rdf-syntax-ns#"
   xmlns:svg="http://www.w3.org/2000/svg"
   xmlns="http://www.w3.org/2000/svg"
   version="1.1"
   width="114"
   height="56"
   id="svg3008">
  <g
     id="g4342">
    <path
       d="m 17,1 c 0,5.235988 4.764012,10 10,10 l 8,0 0,4 20,0 0,-4 50,0 c 3.8873,0 8,4.112699 8,8 l 0,24 c 0,4.18879 -3.81121,8 -8,8 l -50,0 -18,0 -2,0 0,4 -16,0 0,-4 -2,0 -8,0 C 4.8112098,51 1,47.18879 1,43 L 1,1 z"
       id="path3012"
       style="fill:#ffa548;fill-opacity:1;stroke:#ac3d00;stroke-width:2;stroke-linecap:round;stroke-opacity:1" />
    <rect
       width="12.994842"
       height="0.99484116"
       x="2.5025792"
       y="0.50257939"
       id="rect3831"
       style="fill:#ffa548;fill-opacity:1;fill-rule:nonzero;stroke:#ffa548;stroke-width:1.00515878;stroke-linecap:square;stroke-linejoin:miter;stroke-miterlimit:4;stroke-opacity:1;stroke-dasharray:none;stroke-dashoffset:0" />
  </g>
</svg>
