<?xml version="1.0" encoding="UTF-8" standalone="no"?>
<!-- Created with Inkscape (http://www.inkscape.org/) -->

<svg
   xmlns:dc="http://purl.org/dc/elements/1.1/"
   xmlns:cc="http://creativecommons.org/ns#"
   xmlns:rdf="http://www.w3.org/1999/02/22-rdf-syntax-ns#"
   xmlns:svg="http://www.w3.org/2000/svg"
   xmlns="http://www.w3.org/2000/svg"
   version="1.1"
   width="102"
   height="84"
   id="svg2">
  <g
     transform="scale(2,2)"
     id="g4">
    <path
       d="m 1,27.5 c 0,-3.665191 2.8634661,-7 6.5,-7 l 1,0 0,-12 c 0,-4.1887902 3.81121,-8 8,-8 l 34,0 0,8 -4,0 0,-3 -4,0 0,10 4,0 0,-3 4,0 0,17 -4,0 0,-3 -4,0 0,10 4,0 0,-3 4,0 0,8 -30,0 -12,0 0,-7 -1,0 C 3.8348086,34.5 1,31.165191 1,27.5 z"
       id="path6"
       style="fill:#ff9fff;fill-opacity:1;stroke:#c700d3;stroke-width:1;stroke-linecap:round;stroke-opacity:1" />
  </g>
  <text
     x="74.152542"
     y="55.779659"
     id="text3043"
     xml:space="preserve"
     style="font-size:16px;font-style:normal;font-weight:normal;text-align:end;line-height:125%;letter-spacing:0px;word-spacing:0px;text-anchor:end;fill:#000000;fill-opacity:1;stroke:none;font-family:Sans"><tspan
       x="74.152542"
       y="55.779659"
       id="tspan3045"
       style="font-size:24px">&lt;</tspan></text>
</svg>
