<?xml version="1.0" encoding="UTF-8" standalone="no"?>
<!-- Created with Inkscape (http://www.inkscape.org/) -->

<svg
   xmlns:dc="http://purl.org/dc/elements/1.1/"
   xmlns:cc="http://creativecommons.org/ns#"
   xmlns:rdf="http://www.w3.org/1999/02/22-rdf-syntax-ns#"
   xmlns:svg="http://www.w3.org/2000/svg"
   xmlns="http://www.w3.org/2000/svg"
   version="1.0"
   width="200"
   height="42"
   id="svg2">
  <metadata
     id="metadata3044">
    <rdf:RDF>
      <cc:Work
         rdf:about="">
        <dc:format>image/svg+xml</dc:format>
        <dc:type
           rdf:resource="http://purl.org/dc/dcmitype/StillImage" />
        <dc:title></dc:title>
      </cc:Work>
    </rdf:RDF>
  </metadata>
  <defs
     id="defs5" />
  <rect
     width="200"
     height="42"
     x="0"
     y="0"
     id="rect2990"
     style="fill:#282828;fill-opacity:1;stroke:none" />
  <text
     x="55.070312"
     y="30.152542"
     id="text3015"
     xml:space="preserve"
     style="font-size:16px;font-style:normal;font-weight:normal;text-align:end;line-height:125%;letter-spacing:0px;word-spacing:0px;text-anchor:end;fill:#000000;fill-opacity:1;stroke:none;font-family:Sans"><tspan
       x="55.070312"
       y="30.152542"
       id="tspan3017"
       style="font-size:24px;text-align:start;text-anchor:start;fill:#ffffff">Extras</tspan></text>
  <g
     transform="matrix(0.64,0,0,0.63959066,8.9044807,3.9400377)"
     id="g3">
    <polygon
       points="14.659,4.975 20.555,2.531 26.891,12.363 17.238,16.369 "
       id="polygon5"
       style="fill:#ffffff" />
    <polygon
       points="50.04,14.654 52.477,20.55 42.646,26.88 38.649,17.228 "
       id="polygon7"
       style="fill:#ffffff" />
    <polygon
       points="40.349,50.029 34.453,52.471 28.117,42.645 37.775,38.645 "
       id="polygon9"
       style="fill:#ffffff" />
    <polygon
       points="34.394,2.439 40.295,4.882 37.824,16.315 28.171,12.309 "
       id="polygon11"
       style="fill:#ffffff" />
    <polygon
       points="52.493,34.365 50.055,40.258 38.628,37.791 42.623,28.139 "
       id="polygon13"
       style="fill:#ffffff" />
    <polygon
       points="2.515,34.34 4.953,40.234 16.385,37.76 12.391,28.105 "
       id="polygon15"
       style="fill:#ffffff" />
    <polygon
       points="4.936,14.643 2.493,20.539 12.319,26.875 16.32,17.216 "
       id="polygon17"
       style="fill:#ffffff" />
    <polygon
       points="14.719,50.018 20.609,52.461 26.939,42.623 17.287,38.629 "
       id="polygon19"
       style="fill:#ffffff" />
    <path
       d="m 39.925,22.352 c 2.845,6.863 -0.412,14.728 -7.274,17.574 -6.867,2.85 -14.734,-0.418 -17.578,-7.281 -2.84,-6.862 0.418,-14.733 7.279,-17.572 6.862,-2.845 14.734,0.417 17.573,7.279 z"
       id="path21"
       style="fill:none;stroke:#ffffff;stroke-width:11.69439983" />
  </g>
</svg>
